<svg width="1783" height="1680" viewBox="0 0 1783 1680" fill="none" xmlns="http://www.w3.org/2000/svg">
<path d="M654.489 261.35C641.707 261.708 629.548 266.945 620.506 275.987C611.465 285.028 606.227 297.188 605.869 309.969C605.593 320.823 608.891 331.467 615.257 340.263L615.705 340.936L651.01 388.919C651.714 389.917 652.652 390.728 653.741 391.28C654.83 391.833 656.038 392.11 657.259 392.088C658.481 392.066 659.678 391.745 660.746 391.153C661.815 390.562 662.722 389.718 663.39 388.695L695.291 341.272C701.637 332.462 705.182 321.945 705.464 311.091C705.451 304.458 704.114 297.895 701.532 291.785C698.95 285.675 695.175 280.142 690.428 275.51C685.68 270.877 680.056 267.239 673.885 264.808C667.714 262.376 661.12 261.201 654.489 261.35ZM655.648 340.674C650.034 340.674 644.545 339.009 639.877 335.89C635.209 332.771 631.571 328.338 629.423 323.151C627.274 317.964 626.712 312.256 627.807 306.75C628.903 301.244 631.606 296.186 635.576 292.216C639.546 288.246 644.604 285.542 650.11 284.447C655.616 283.352 661.324 283.914 666.511 286.062C671.698 288.211 676.131 291.849 679.25 296.517C682.369 301.185 684.034 306.674 684.034 312.288C684.039 316.017 683.308 319.71 681.883 323.157C680.458 326.603 678.368 329.734 675.731 332.371C673.094 335.008 669.963 337.098 666.517 338.523C663.07 339.948 659.377 340.679 655.648 340.674Z" fill="#E0E0E0"/>
<path d="M1409.88 160.334C1412.8 139.278 1383.07 121.963 1360.74 120.167C1350.08 119.307 1339.01 120.915 1328.91 117.4C1307.07 109.92 1298.32 81.5339 1277 72.5207C1261.03 65.7888 1242.67 71.7727 1227.22 79.5517C1211.78 87.3308 1196.48 97.1294 1179.2 98.2514C1164.24 99.1864 1147.86 93.6139 1134.73 100.982C1124.93 106.442 1119.77 117.736 1110.76 124.394C1101.75 131.051 1090.42 132.285 1079.46 132.883C1068.5 133.482 1057.02 133.594 1047.14 138.156C1037.27 142.719 1028.93 153.116 1030.99 164.037L1409.88 160.334Z" fill="#EBEBEB"/>
<path d="M756.514 48.2859C758.047 37.0661 742.227 27.8659 730.334 26.8935C724.65 26.4447 718.778 27.3049 713.392 25.4349C701.761 21.3584 697.124 6.36126 685.754 1.53674C677.265 -2.0162 667.503 1.16275 659.275 5.27668C651.048 9.3906 642.895 14.6265 633.694 15.2249C625.728 15.7111 617.014 12.7565 610.021 16.6461C604.822 19.5632 602.092 25.5845 597.267 29.1375C592.271 32.2115 586.49 33.7704 580.625 33.6254C574.764 33.5031 568.931 34.4668 563.421 36.4677C560.696 37.5293 558.387 39.4424 556.837 41.9223C555.287 44.4021 554.579 47.3162 554.819 50.2307L756.514 48.2859Z" fill="#F5F5F5"/>
<path d="M404.137 248.185C406.419 231.617 383.044 218.004 365.504 216.583C357.126 215.91 348.412 217.181 340.484 214.414C323.317 208.43 316.436 186.215 299.681 179.146C287.152 173.91 272.716 178.585 260.561 184.681C248.406 190.777 236.364 198.519 222.788 199.379C210.97 200.127 198.179 195.639 187.819 201.511C180.115 205.812 176.076 214.713 169.12 219.912C162.164 225.11 153.001 226.269 144.361 226.606C135.722 226.943 126.859 227.167 119.005 230.757C111.151 234.348 104.681 242.65 106.289 251.103L404.137 248.185Z" fill="#F5F5F5"/>
<path d="M1725.87 212.918C1725.87 212.918 1723.7 212.357 1719.85 211.571C1714.4 210.486 1708.81 210.334 1703.32 211.123C1695.19 212.277 1687.54 215.626 1681.17 220.809C1673.42 227.173 1667.94 235.89 1665.58 245.642V245.941L1664.64 249.681L1663.22 246.203C1659.42 236.934 1652.9 229.033 1644.52 223.539C1637.69 219.059 1629.82 216.395 1621.67 215.798C1614.08 215.396 1606.48 216.359 1599.23 218.64C1600.99 217.521 1602.9 216.688 1604.92 216.172C1610.36 214.462 1616.06 213.74 1621.75 214.04C1630.26 214.413 1638.54 216.991 1645.76 221.52C1654.62 227.174 1661.52 235.43 1665.5 245.156H1663.15V244.857C1665.58 234.52 1671.42 225.301 1679.72 218.677C1686.42 213.313 1694.52 209.967 1703.05 209.028C1708.74 208.346 1714.5 208.765 1720.03 210.262C1722.12 210.805 1724.09 211.703 1725.87 212.918Z" fill="#E0E0E0"/>
<path d="M90.282 534.59L224.172 1261.45L502.684 1311.93L752.213 1151.38L1019.09 1215.82L1295.85 1038.25L1160.35 348.715L884.793 486.083L647.083 434.471L388.28 571.503L90.282 534.59Z" fill="white"/>
<path d="M503.096 1313.92L222.601 1263.05L222.377 1261.78L88.0381 532.495L387.943 569.67L646.859 432.602L884.569 484.325L1161.74 345.947L1162.18 348.341L1297.94 1039.14L1296.86 1039.82L1019.43 1217.8L1018.68 1217.61L752.55 1153.36L503.096 1313.92ZM225.78 1259.84L502.311 1309.99L751.876 1149.36L752.624 1149.55L1018.76 1213.8L1293.76 1037.35L1159.12 351.482L885.055 488.065H884.42L647.345 436.566L388.617 573.56H388.13L92.6756 536.684L225.78 1259.84Z" fill="#E0E0E0"/>
<path d="M119.042 557.777L245.489 1247.12L500.815 1285.76L749.632 1120.56L1010.9 1182.76L1269.78 1026.32L1147.86 377.55L889.207 509.682L646.859 467.719L382.221 596.859L263.852 579.282L119.042 557.777Z" fill="#EBEBEB"/>
<path d="M310.19 582.947L310.938 842.162L1203.14 1071.2L1158.71 1100.52L316.735 881.693L309.442 1256.81L255.176 1248.58L263.852 579.282L310.19 582.947Z" fill="#FAFAFA"/>
<path d="M132.992 619.449L266.994 649.555L262.357 692.153L137.779 659.877L132.992 619.449Z" fill="#FAFAFA"/>
<path d="M165.118 808.988L261.122 787.82L260.486 836.589L172.074 856.411L165.118 808.988Z" fill="#FAFAFA"/>
<path d="M200.498 1001.74L258.28 1006.79L257.943 1034.69L205.061 1032.97L200.498 1001.74Z" fill="#FAFAFA"/>
<path d="M309.442 1256.81L383.418 1267.99L400.51 1118.77L516.672 1130.59L527.779 1267.84L576.922 1235.23L575.912 949.049L316.735 881.693L309.442 1256.81Z" fill="#E0E0E0"/>
<path d="M605.57 956.753L604.149 1110.5L603.139 1217.8L576.922 1235.23L574.229 937.642L605.57 956.753Z" fill="#FAFAFA"/>
<path d="M725.697 1136.42L604.149 1110.5L603.812 1146.52L687.475 1161.81L725.697 1136.42Z" fill="#FAFAFA"/>
<path d="M447.034 565.22L427.437 872.081L471.493 883.376L496.327 541.172L447.034 565.22Z" fill="#FAFAFA"/>
<path d="M579.316 911.051L586.796 527.932L613.312 538.516L611.255 671.808L886.85 751.618L952.337 486.868L1002.75 458.669L922.081 759.846L859.624 994.751C859.624 994.751 823.234 986.299 824.506 980.315C825.777 974.331 874.322 799.938 874.322 799.938L606.991 713.246L602.167 933.528L579.316 911.051Z" fill="#FAFAFA"/>
<path d="M896.537 796.684L1081.74 850.838L1167.79 483.614L1151.53 402.682L1055.9 801.995L903.643 755.246L896.537 796.684Z" fill="#FAFAFA"/>
<path d="M793.614 1133.8L824.468 980.315L861.12 989.066L828.545 1144.35L793.614 1133.8Z" fill="#FAFAFA"/>
<path d="M1175.12 755.844L1099.43 1129.28L1166.41 1087.05L1232.35 839.581L1222.85 774.88L1175.12 755.844Z" fill="#E0E0E0"/>
<path opacity="0.1" d="M382.221 596.859L500.815 1285.76L245.489 1247.12L119.042 557.777L382.221 596.859Z" fill="black"/>
<path d="M551.977 514.02L578.119 524.454L1223.97 782.472L1205.04 681.906L646.859 467.719L551.977 514.02Z" fill="#E0E0E0"/>
<path opacity="0.1" d="M646.859 467.719L749.632 1120.56L1010.9 1182.76L889.207 509.682L646.859 467.719Z" fill="black"/>
<path d="M1660.08 1535.73H1302.92L1323.04 1515.87H1671.86L1660.08 1535.73Z" fill="#E0E0E0"/>
<path d="M1691.95 1677.96C1691.95 1678.49 1329.17 1678.93 881.839 1678.93C434.506 1678.93 71.6572 1678.49 71.6572 1677.96C71.6572 1677.44 434.431 1676.99 881.839 1676.99C1329.25 1676.99 1691.95 1677.36 1691.95 1677.96Z" fill="#263238"/>
<path d="M527.219 362.515C527.219 362.777 522.955 361.057 515.026 359.299C503.825 356.842 492.278 356.387 480.918 357.952C464.051 360.18 448.137 367.056 434.954 377.811C418.788 390.961 407.383 409.053 402.492 429.31C402.492 429.497 402.492 429.684 402.492 429.871L401.557 433.611L400.136 430.096C392.166 410.923 378.563 394.621 361.128 383.347C346.931 374.109 330.605 368.663 313.706 367.527C302.317 366.717 290.873 367.765 279.822 370.631C272.005 372.688 267.854 374.371 267.779 374.371C268.703 373.802 269.68 373.326 270.696 372.95C273.607 371.6 276.606 370.45 279.672 369.509C290.794 366.313 302.381 365.048 313.93 365.769C331.22 366.695 347.973 372.095 362.549 381.439C380.436 392.937 394.365 409.646 402.454 429.31L400.098 429.535V428.936C405.102 408.153 416.845 389.611 433.496 376.203C447.061 365.311 463.416 358.455 480.694 356.419C492.243 354.984 503.959 355.694 515.251 358.513C518.306 359.264 521.305 360.226 524.227 361.393C525.26 361.663 526.263 362.039 527.219 362.515Z" fill="#263238"/>
<path d="M895.191 229.785C895.191 229.785 892.797 229.112 888.421 228.177C882.263 226.94 875.939 226.763 869.722 227.653C860.545 228.915 851.897 232.695 844.739 238.574C835.956 245.751 829.758 255.6 827.086 266.623V266.922L826.151 270.662L824.73 267.147C820.437 256.688 813.068 247.78 803.6 241.603C795.868 236.539 786.974 233.527 777.757 232.852C771.481 232.343 765.165 232.861 759.057 234.385C754.756 235.432 752.437 236.367 752.362 236.18C752.288 235.993 752.886 235.806 753.971 235.283C755.532 234.555 757.145 233.943 758.795 233.45C766.439 231.112 774.498 230.457 782.42 231.528C790.341 232.6 797.936 235.374 804.684 239.658C814.641 246.033 822.397 255.317 826.899 266.249H824.543V265.913C827.354 254.347 833.933 244.045 843.243 236.629C850.781 230.627 859.851 226.857 869.422 225.746C875.821 225.009 882.301 225.466 888.533 227.092C890.219 227.528 891.869 228.091 893.47 228.775C894.667 229.411 895.228 229.673 895.191 229.785Z" fill="#263238"/>
<path d="M645.288 98.775C645.288 98.775 642.969 101.468 638.743 106.255C632.813 113.001 627.459 120.232 622.736 127.872C607.034 153.103 598.8 182.265 598.988 211.983C598.969 212.332 598.969 212.681 598.988 213.03H596.519C594.105 197.074 588.902 181.668 581.148 167.515C570.548 148.072 555.582 131.353 537.429 118.671C534.655 116.939 531.971 115.067 529.388 113.062C530.188 113.348 530.954 113.724 531.669 114.184C533.128 115.006 535.409 116.091 537.99 117.923C545.557 122.764 552.59 128.393 558.971 134.716C580.407 155.715 594.45 183.105 598.988 212.768H596.519V211.721C596.303 181.553 604.908 151.979 621.278 126.638C626.166 119 631.79 111.86 638.07 105.32C640.239 102.926 642.147 101.318 643.343 100.159C643.957 99.6503 644.607 99.1878 645.288 98.775Z" fill="#263238"/>
<path d="M1781.67 1335.38H777.196V1358.65H1781.67V1335.38Z" fill="#E0E0E0"/>
<path d="M787.331 1359.1C787.331 1359.1 787.331 1358.68 787.331 1357.79C787.331 1356.89 787.331 1355.47 787.331 1353.67C787.331 1349.93 787.331 1344.36 787.331 1336.81V1336.47H787.63C846.871 1336.02 1042.21 1335.72 1273.82 1335.72L1633.3 1336.02L1742.21 1336.36L1771.83 1336.58L1742.21 1336.81L1633.3 1337.14L1273.82 1337.48C1042.39 1337.48 847.058 1337.14 787.817 1336.69L788.116 1336.39C788.116 1343.87 788.116 1349.52 788.116 1353.26C788.116 1355.06 788.116 1356.4 788.116 1357.37C788.116 1358.35 787.331 1359.1 787.331 1359.1Z" fill="#263238"/>
<path d="M906.934 1337.03C908.38 1344.31 908.38 1351.81 906.934 1359.1C905.488 1351.81 905.488 1344.31 906.934 1337.03Z" fill="#263238"/>
<path d="M1038.65 1337.03C1040.1 1344.31 1040.1 1351.81 1038.65 1359.1C1037.21 1351.81 1037.21 1344.31 1038.65 1337.03Z" fill="#263238"/>
<path d="M1170.38 1337.03C1171.82 1344.31 1171.82 1351.81 1170.38 1359.1C1168.93 1351.81 1168.93 1344.31 1170.38 1337.03Z" fill="#263238"/>
<path d="M1302.1 1337.03C1303.54 1344.31 1303.54 1351.81 1302.1 1359.1C1300.65 1351.81 1300.65 1344.31 1302.1 1337.03Z" fill="#263238"/>
<path d="M1433.82 1337.03C1435.26 1344.31 1435.26 1351.81 1433.82 1359.1C1432.37 1351.81 1432.37 1344.31 1433.82 1337.03Z" fill="#263238"/>
<path d="M1565.54 1337.03C1566.98 1344.31 1566.98 1351.81 1565.54 1359.1C1564.09 1351.81 1564.09 1344.31 1565.54 1337.03Z" fill="#263238"/>
<path d="M1697.11 1337.03C1698.55 1344.31 1698.55 1351.81 1697.11 1359.1C1695.66 1351.81 1695.66 1344.31 1697.11 1337.03Z" fill="#263238"/>
<path d="M1220.38 208.654H954.207V1334.26H1220.38V208.654Z" fill="#455A64"/>
<path d="M1084.39 264.828H1003.5V420.709H1084.39V264.828Z" fill="white"/>
<path d="M1046.36 420.746C1045.76 420.746 1045.27 385.815 1045.27 342.768C1045.27 299.722 1045.76 264.828 1046.36 264.828C1046.96 264.828 1047.41 299.722 1047.41 342.768C1047.41 385.815 1046.84 420.746 1046.36 420.746Z" fill="#263238"/>
<path d="M1084.39 318.982C1070.95 320.066 1057.45 320.428 1043.97 320.067C1030.47 320.428 1016.96 320.066 1003.5 318.982C1016.96 317.899 1030.47 317.537 1043.97 317.898C1057.45 317.537 1070.95 317.899 1084.39 318.982Z" fill="#263238"/>
<path d="M1084.84 374.745C1071.27 375.827 1057.65 376.189 1044.04 375.829C1030.44 376.19 1016.83 375.828 1003.27 374.745C1016.83 373.662 1030.44 373.3 1044.04 373.66C1057.65 373.3 1071.27 373.662 1084.84 374.745Z" fill="#263238"/>
<path d="M1084.73 470.524H1003.84V626.405H1084.73V470.524Z" fill="white"/>
<path d="M1046.55 626.442C1045.95 626.442 1045.46 591.549 1045.46 548.502C1045.46 505.455 1045.95 470.562 1046.55 470.562C1047.14 470.562 1047.63 505.455 1047.63 548.502C1047.63 591.549 1047.14 626.442 1046.55 626.442Z" fill="#263238"/>
<path d="M1084.73 524.679C1071.27 525.761 1057.76 526.123 1044.26 525.763C1030.78 526.124 1017.28 525.762 1003.84 524.679C1017.28 523.595 1030.78 523.233 1044.26 523.594C1057.76 523.234 1071.27 523.596 1084.73 524.679Z" fill="#263238"/>
<path d="M1085.14 580.441C1071.58 581.524 1057.97 581.886 1044.38 581.526C1030.77 581.887 1017.15 581.525 1003.57 580.441C1017.15 579.358 1030.77 578.996 1044.38 579.356C1057.97 578.996 1071.58 579.358 1085.14 580.441Z" fill="#263238"/>
<path d="M1084.73 674.426H1003.84V830.306H1084.73V674.426Z" fill="white"/>
<path d="M1046.55 830.306C1045.95 830.306 1045.46 795.413 1045.46 752.366C1045.46 709.319 1045.95 674.426 1046.55 674.426C1047.14 674.426 1047.63 709.319 1047.63 752.366C1047.63 795.413 1047.14 830.306 1046.55 830.306Z" fill="#263238"/>
<path d="M1084.73 728.58C1071.27 729.662 1057.76 730.024 1044.26 729.665C1030.78 730.025 1017.28 729.663 1003.84 728.58C1017.28 727.497 1030.78 727.135 1044.26 727.495C1057.76 727.136 1071.27 727.498 1084.73 728.58Z" fill="#263238"/>
<path d="M1085.14 784.342C1071.58 785.425 1057.97 785.787 1044.38 785.427C1030.77 785.788 1017.15 785.426 1003.57 784.342C1017.15 783.259 1030.77 782.897 1044.38 783.258C1057.97 782.897 1071.58 783.259 1085.14 784.342Z" fill="#263238"/>
<path d="M1084.73 884.198H1003.84V1040.08H1084.73V884.198Z" fill="white"/>
<path d="M1046.55 1040.12C1045.95 1040.12 1045.46 1005.22 1045.46 962.176C1045.46 919.129 1045.95 884.198 1046.55 884.198C1047.14 884.198 1047.63 919.092 1047.63 962.176C1047.63 1005.26 1047.14 1040.12 1046.55 1040.12Z" fill="#263238"/>
<path d="M1084.73 938.353C1071.27 939.435 1057.76 939.797 1044.26 939.437C1030.78 939.798 1017.28 939.436 1003.84 938.353C1017.29 937.317 1030.78 936.968 1044.26 937.306C1057.76 936.968 1071.27 937.318 1084.73 938.353Z" fill="#263238"/>
<path d="M1085.14 994.115C1071.58 995.198 1057.97 995.56 1044.38 995.2C1030.77 995.561 1017.15 995.199 1003.57 994.115C1017.15 993.032 1030.77 992.67 1044.38 993.031C1057.97 992.67 1071.58 993.032 1085.14 994.115Z" fill="#263238"/>
<path d="M1333.59 208.654H1139.63V1334.26H1333.59V208.654Z" fill="#455A64"/>
<g opacity="0.3">
<path d="M1333.59 208.654H1139.63V1334.26H1333.59V208.654Z" fill="black"/>
</g>
<path d="M1275.58 264.828H1194.68V420.709H1275.58V264.828Z" fill="white"/>
<path d="M1237.43 420.746C1236.83 420.746 1236.35 385.815 1236.35 342.768C1236.35 299.722 1236.83 264.828 1237.43 264.828C1238.03 264.828 1238.52 299.722 1238.52 342.768C1238.52 385.815 1238.03 420.746 1237.43 420.746Z" fill="#263238"/>
<path d="M1275.58 318.982C1262.13 320.066 1248.64 320.428 1235.15 320.067C1221.65 320.428 1208.14 320.066 1194.68 318.982C1208.14 317.899 1221.65 317.537 1235.15 317.898C1248.64 317.537 1262.13 317.899 1275.58 318.982Z" fill="#263238"/>
<path d="M1276.03 374.745C1262.46 375.827 1248.84 376.189 1235.23 375.829C1221.63 376.19 1208.02 375.828 1194.46 374.745C1208.02 373.662 1221.63 373.3 1235.23 373.66C1248.84 373.3 1262.46 373.662 1276.03 374.745Z" fill="#263238"/>
<path d="M1275.92 476.396H1195.02V632.277H1275.92V476.396Z" fill="white"/>
<path d="M1237.73 632.314C1237.13 632.314 1236.65 597.383 1236.65 554.336C1236.65 511.29 1237.13 476.396 1237.73 476.396C1238.33 476.396 1238.82 511.29 1238.82 554.336C1238.82 597.383 1238.33 632.314 1237.73 632.314Z" fill="#263238"/>
<path d="M1275.92 530.55C1262.46 531.633 1248.95 531.995 1235.45 531.635C1221.96 531.996 1208.47 531.634 1195.02 530.55C1208.47 529.467 1221.96 529.105 1235.45 529.466C1248.95 529.106 1262.46 529.468 1275.92 530.55Z" fill="#263238"/>
<path d="M1276.33 586.313C1262.77 587.396 1249.16 587.758 1235.56 587.397C1221.95 587.758 1208.33 587.396 1194.76 586.313C1208.33 585.229 1221.95 584.867 1235.56 585.228C1249.16 584.868 1262.77 585.23 1276.33 586.313Z" fill="#263238"/>
<path d="M1275.92 674.426H1195.02V830.306H1275.92V674.426Z" fill="white"/>
<path d="M1237.73 830.306C1237.13 830.306 1236.65 795.413 1236.65 752.366C1236.65 709.319 1237.13 674.426 1237.73 674.426C1238.33 674.426 1238.82 709.319 1238.82 752.366C1238.82 795.413 1238.33 830.306 1237.73 830.306Z" fill="#263238"/>
<path d="M1275.92 728.58C1262.46 729.662 1248.95 730.024 1235.45 729.665C1221.96 730.025 1208.47 729.663 1195.02 728.58C1208.47 727.497 1221.96 727.135 1235.45 727.495C1248.95 727.136 1262.46 727.498 1275.92 728.58Z" fill="#263238"/>
<path d="M1276.33 784.342C1262.77 785.425 1249.16 785.787 1235.56 785.427C1221.95 785.788 1208.33 785.426 1194.76 784.342C1208.33 783.259 1221.95 782.897 1235.56 783.258C1249.16 782.897 1262.77 783.259 1276.33 784.342Z" fill="#263238"/>
<path d="M1279.21 887.602H1198.31V1043.48H1279.21V887.602Z" fill="white"/>
<path d="M1241.02 1043.48C1240.42 1043.48 1239.98 1008.59 1239.98 965.542C1239.98 922.496 1240.42 887.602 1241.02 887.602C1241.62 887.602 1242.11 922.496 1242.11 965.542C1242.11 1008.59 1241.62 1043.48 1241.02 1043.48Z" fill="#263238"/>
<path d="M1279.21 941.756C1265.76 942.839 1252.26 943.201 1238.78 942.841C1225.28 943.202 1211.77 942.84 1198.31 941.756C1211.77 940.673 1225.28 940.311 1238.78 940.672C1252.26 940.311 1265.76 940.673 1279.21 941.756Z" fill="#263238"/>
<path d="M1279.62 997.519C1266.06 998.601 1252.45 998.964 1238.85 998.603C1225.26 998.964 1211.65 998.601 1198.09 997.519C1211.65 996.436 1225.26 996.074 1238.85 996.434C1252.45 996.074 1266.06 996.436 1279.62 997.519Z" fill="#263238"/>
<path d="M1084.73 1098.95H1003.84V1254.83H1084.73V1098.95Z" fill="white"/>
<path d="M1046.55 1254.75C1045.95 1254.75 1045.46 1219.82 1045.46 1176.77C1045.46 1133.73 1045.95 1098.83 1046.55 1098.83C1047.14 1098.83 1047.63 1133.73 1047.63 1176.77C1047.63 1219.82 1047.14 1254.75 1046.55 1254.75Z" fill="#263238"/>
<path d="M1084.73 1153.1C1071.27 1154.18 1057.76 1154.54 1044.26 1154.18C1030.78 1154.54 1017.28 1154.18 1003.84 1153.1C1017.28 1152.02 1030.78 1151.65 1044.26 1152.02C1057.76 1151.66 1071.27 1152.02 1084.73 1153.1Z" fill="#263238"/>
<path d="M1085.14 1208.86C1071.58 1209.95 1057.97 1210.31 1044.38 1209.95C1030.77 1210.31 1017.15 1209.95 1003.57 1208.86C1017.15 1207.78 1030.77 1207.42 1044.38 1207.78C1057.97 1207.42 1071.58 1207.78 1085.14 1208.86Z" fill="#263238"/>
<path d="M1275.92 1105.64H1195.02V1261.52H1275.92V1105.64Z" fill="white"/>
<path d="M1237.73 1261.52C1237.13 1261.52 1236.65 1226.63 1236.65 1183.58C1236.65 1140.53 1237.13 1105.64 1237.73 1105.64C1238.33 1105.64 1238.82 1140.53 1238.82 1183.58C1238.82 1226.63 1238.33 1261.52 1237.73 1261.52Z" fill="#263238"/>
<path d="M1275.92 1159.79C1262.46 1160.88 1248.95 1161.24 1235.45 1160.88C1221.96 1161.24 1208.47 1160.88 1195.02 1159.79C1208.47 1158.71 1221.96 1158.35 1235.45 1158.71C1248.95 1158.35 1262.46 1158.71 1275.92 1159.79Z" fill="#263238"/>
<path d="M1276.33 1215.56C1262.77 1216.64 1249.16 1217 1235.56 1216.64C1221.95 1217 1208.33 1216.64 1194.76 1215.56C1208.33 1214.47 1221.95 1214.11 1235.56 1214.47C1249.16 1214.11 1262.77 1214.47 1276.33 1215.56Z" fill="#263238"/>
<path d="M1466.05 833.186H1560.38V696.865H1466.05V833.186Z" fill="#FF725E"/>
<g opacity="0.3">
<path d="M1466.05 833.186H1560.38V696.865H1466.05V833.186Z" fill="black"/>
</g>
<path d="M1381.19 833.186H1475.52V696.865H1381.19V833.186Z" fill="#FF725E"/>
<path d="M1403.71 805.66C1403.71 805.66 1403.71 805.211 1403.71 804.276C1403.71 803.341 1403.71 801.808 1403.71 800.087C1403.71 796.347 1403.71 790.85 1403.71 784.081C1403.71 770.205 1403.52 750.72 1403.37 727.981V727.421H1446.53L1447.2 728.131V749.86C1447.2 756.929 1447.2 763.735 1447.2 770.318C1447.2 783.407 1447.2 795.375 1447.2 805.735V806.258H1446.53L1415.08 805.997H1406.59H1404.42C1403.93 805.997 1403.71 805.997 1403.71 805.997H1404.53H1406.81H1415.42L1446.53 805.735L1446.01 806.221C1446.01 795.861 1446.01 783.781 1446.01 770.804C1446.01 764.222 1446.01 757.415 1446.01 750.346V728.617C1445.41 727.982 1446.83 729.403 1446.68 729.253H1403.71L1404.34 728.617C1404.34 751.057 1404.12 770.505 1404.05 784.305C1404.05 791.112 1404.05 796.572 1403.86 800.424C1403.86 802.219 1403.86 803.678 1403.86 804.762C1403.83 805.064 1403.78 805.364 1403.71 805.66Z" fill="#263238"/>
<path d="M1412.27 771.028C1412.27 771.028 1413.32 771.028 1413.84 772.113C1414 772.482 1414.06 772.884 1414.02 773.281C1413.98 773.679 1413.84 774.062 1413.62 774.394C1413.29 774.789 1412.84 775.073 1412.35 775.209C1411.85 775.345 1411.32 775.327 1410.83 775.157C1410.35 774.986 1409.92 774.672 1409.62 774.255C1409.32 773.838 1409.15 773.339 1409.13 772.823C1409.17 772.421 1409.31 772.035 1409.53 771.697C1409.75 771.359 1410.05 771.078 1410.4 770.879C1411.6 770.243 1412.42 770.879 1412.27 770.879C1412.12 770.879 1411.56 770.879 1410.93 771.514C1410.73 771.648 1410.58 771.834 1410.49 772.05C1410.4 772.267 1410.37 772.505 1410.41 772.737C1410.45 772.969 1410.55 773.184 1410.71 773.359C1410.87 773.533 1411.07 773.659 1411.3 773.721C1412.46 774.17 1413.1 773.122 1412.91 772.225C1412.72 771.327 1412.24 771.215 1412.27 771.028Z" fill="#263238"/>
<path d="M1285.08 1335.12H1676.24V807.904H1285.08V1335.12Z" fill="#FF725E"/>
<path d="M1519.61 1335.12L1729.42 1335.38V807.941H1519.61V1335.12Z" fill="#FF725E"/>
<g opacity="0.3">
<path d="M1519.61 1335.12L1729.42 1335.38V807.941H1519.61V1335.12Z" fill="black"/>
</g>
<path d="M1313.8 1165.52H1385.35V1093.97H1313.8V1165.52Z" fill="#EBEBEB"/>
<path d="M1346.83 1172.7C1346.45 1172.7 1346.15 1154.18 1346.15 1131.56C1346.15 1108.93 1346.45 1090.42 1346.83 1090.42C1347.2 1090.42 1347.5 1108.89 1347.5 1131.56C1347.5 1154.22 1347.2 1172.7 1346.83 1172.7Z" fill="#455A64"/>
<path d="M1300.38 1117.94C1300.38 1117.57 1321.17 1117.27 1346.82 1117.27C1372.48 1117.27 1393.31 1117.57 1393.31 1117.94C1393.31 1118.32 1372.52 1118.62 1346.82 1118.62C1321.13 1118.62 1300.38 1118.32 1300.38 1117.94Z" fill="#455A64"/>
<path d="M1415.86 1165.52H1487.41V1093.97H1415.86V1165.52Z" fill="#EBEBEB"/>
<path d="M1448.89 1172.7C1448.51 1172.7 1448.18 1154.18 1448.18 1131.56C1448.18 1108.93 1448.51 1090.42 1448.89 1090.42C1449.26 1090.42 1449.56 1108.89 1449.56 1131.56C1449.56 1154.22 1449.26 1172.7 1448.89 1172.7Z" fill="#455A64"/>
<path d="M1402.4 1117.94C1402.4 1117.57 1423.19 1117.27 1448.85 1117.27C1474.51 1117.27 1495.34 1117.57 1495.34 1117.94C1495.34 1118.32 1474.54 1118.62 1448.85 1118.62C1423.16 1118.62 1402.4 1118.32 1402.4 1117.94Z" fill="#455A64"/>
<path d="M1313.8 1052.5H1385.35V980.951H1313.8V1052.5Z" fill="#EBEBEB"/>
<path d="M1346.83 1059.68C1346.45 1059.68 1346.15 1041.16 1346.15 1018.54C1346.15 995.91 1346.45 977.398 1346.83 977.398C1347.2 977.398 1347.5 995.873 1347.5 1018.54C1347.5 1041.2 1347.2 1059.68 1346.83 1059.68Z" fill="#455A64"/>
<path d="M1300.38 1004.92C1300.38 1004.55 1321.17 1004.25 1346.82 1004.25C1372.48 1004.25 1393.31 1004.55 1393.31 1004.92C1393.31 1005.3 1372.52 1005.6 1346.82 1005.6C1321.13 1005.6 1300.38 1005.3 1300.38 1004.92Z" fill="#455A64"/>
<path d="M1415.86 1052.5H1487.41V980.951H1415.86V1052.5Z" fill="#EBEBEB"/>
<path d="M1448.89 1059.68C1448.51 1059.68 1448.18 1041.16 1448.18 1018.54C1448.18 995.91 1448.51 977.398 1448.89 977.398C1449.26 977.398 1449.56 995.873 1449.56 1018.54C1449.56 1041.2 1449.26 1059.68 1448.89 1059.68Z" fill="#455A64"/>
<path d="M1402.4 1004.92C1402.4 1004.55 1423.19 1004.25 1448.85 1004.25C1474.51 1004.25 1495.34 1004.55 1495.34 1004.92C1495.34 1005.3 1474.54 1005.6 1448.85 1005.6C1423.16 1005.6 1402.4 1005.3 1402.4 1004.92Z" fill="#455A64"/>
<path d="M1313.8 939.176H1385.35V867.631H1313.8V939.176Z" fill="#EBEBEB"/>
<path d="M1346.83 946.394C1346.45 946.394 1346.15 927.881 1346.15 905.254C1346.15 882.628 1346.45 864.115 1346.83 864.115C1347.2 864.115 1347.5 882.59 1347.5 905.254C1347.5 927.918 1347.2 946.394 1346.83 946.394Z" fill="#455A64"/>
<path d="M1300.38 891.641C1300.38 891.267 1321.17 890.968 1346.82 890.968C1372.48 890.968 1393.31 891.267 1393.31 891.641C1393.31 892.015 1372.52 892.314 1346.82 892.314C1321.13 892.314 1300.38 891.978 1300.38 891.641Z" fill="#455A64"/>
<path d="M1415.86 939.176H1487.41V867.631H1415.86V939.176Z" fill="#EBEBEB"/>
<path d="M1448.89 946.394C1448.51 946.394 1448.18 927.881 1448.18 905.254C1448.18 882.628 1448.51 864.115 1448.89 864.115C1449.26 864.115 1449.56 882.59 1449.56 905.254C1449.56 927.918 1449.26 946.394 1448.89 946.394Z" fill="#455A64"/>
<path d="M1402.4 891.641C1402.4 891.267 1423.19 890.968 1448.85 890.968C1474.51 890.968 1495.34 891.267 1495.34 891.641C1495.34 892.015 1474.54 892.314 1448.85 892.314C1423.16 892.314 1402.4 891.978 1402.4 891.641Z" fill="#455A64"/>
<g opacity="0.7">
<path d="M1591.45 939.176H1663V867.631H1591.45V939.176Z" fill="white"/>
</g>
<path d="M1627.25 946.394C1626.87 946.394 1626.57 927.881 1626.57 905.254C1626.57 882.628 1626.87 864.115 1627.25 864.115C1627.62 864.115 1627.92 882.59 1627.92 905.254C1627.92 927.918 1627.62 946.394 1627.25 946.394Z" fill="#263238"/>
<path d="M1578.03 891.641C1578.03 891.267 1598.86 890.968 1624.52 890.968C1650.17 890.968 1670.97 891.267 1670.97 891.641C1670.97 892.015 1650.17 892.314 1624.52 892.314C1598.86 892.314 1578.03 891.978 1578.03 891.641Z" fill="#263238"/>
<g opacity="0.7">
<path d="M1591.45 1053.58H1663V982.035H1591.45V1053.58Z" fill="white"/>
</g>
<path d="M1627.25 1060.8C1626.87 1060.8 1626.57 1042.29 1626.57 1019.66C1626.57 997.032 1626.87 978.52 1627.25 978.52C1627.62 978.52 1627.92 996.995 1627.92 1019.66C1627.92 1042.32 1627.62 1060.8 1627.25 1060.8Z" fill="#263238"/>
<path d="M1578.03 1006.05C1578.03 1005.67 1598.86 1005.37 1624.52 1005.37C1650.17 1005.37 1670.97 1005.67 1670.97 1006.05C1670.97 1006.42 1650.17 1006.72 1624.52 1006.72C1598.86 1006.72 1578.03 1006.42 1578.03 1006.05Z" fill="#263238"/>
<g opacity="0.7">
<path d="M1591.45 1168.02H1663V1096.48H1591.45V1168.02Z" fill="white"/>
</g>
<path d="M1627.25 1175.17C1626.87 1175.17 1626.57 1156.69 1626.57 1134.03C1626.57 1111.36 1626.87 1092.89 1627.25 1092.89C1627.62 1092.89 1627.92 1111.4 1627.92 1134.03C1627.92 1156.65 1627.62 1175.17 1627.25 1175.17Z" fill="#263238"/>
<path d="M1578.03 1120.45C1578.03 1120.08 1598.86 1119.78 1624.52 1119.78C1650.17 1119.78 1670.97 1120.08 1670.97 1120.45C1670.97 1120.82 1650.17 1121.12 1624.52 1121.12C1598.86 1121.12 1578.03 1120.82 1578.03 1120.45Z" fill="#263238"/>
<path d="M1366.09 1332.77C1366.09 1332.77 1366.09 1332.54 1366.09 1332.13C1366.09 1331.72 1366.09 1331.01 1366.09 1330.22C1366.09 1328.45 1366.09 1326.02 1366.09 1322.93C1366.09 1316.46 1366.09 1307.22 1365.9 1295.7C1365.9 1272.4 1365.9 1239.94 1365.64 1202.73V1202.09H1440.44V1202.73C1440.44 1240.13 1440.44 1273 1440.21 1296.53C1440.21 1308.16 1440.21 1317.51 1440.21 1324.01C1440.21 1327.19 1440.21 1329.62 1440.21 1331.49C1440.21 1332.28 1440.21 1332.92 1440.21 1333.4C1440.21 1333.89 1440.21 1334.04 1440.21 1334.04C1440.2 1333.83 1440.2 1333.61 1440.21 1333.4C1440.21 1332.92 1440.21 1332.28 1440.21 1331.49C1440.21 1329.7 1440.21 1327.27 1440.21 1324.01C1440.21 1317.51 1440.21 1308.16 1440.21 1296.53C1440.21 1273 1440.21 1240.24 1439.99 1202.73L1440.62 1203.4H1367.32L1367.99 1202.73C1367.99 1240.13 1367.81 1272.4 1367.73 1295.7C1367.73 1307.22 1367.73 1316.46 1367.54 1322.93C1367.54 1326.05 1367.54 1328.48 1367.54 1330.22C1367.54 1331.01 1367.54 1331.64 1367.54 1332.13C1367.54 1332.62 1366.09 1332.77 1366.09 1332.77Z" fill="#263238"/>
<path d="M1405.21 1270.27H1430.19V1210.47H1405.21V1270.27Z" fill="#E0E0E0"/>
<path d="M1430.26 1270.35H1405.13V1210.51H1430.26V1270.35ZM1405.24 1270.35H1430.11V1210.51H1405.39L1405.24 1270.35Z" fill="#263238"/>
<path d="M1375.32 1270.27H1400.31V1210.47H1375.32V1270.27Z" fill="#E0E0E0"/>
<path d="M1400.38 1270.35H1375.25V1210.51H1400.38V1270.35ZM1375.36 1270.35H1400.23V1210.51H1375.47L1375.36 1270.35Z" fill="#263238"/>
<path d="M1374.8 1276.48C1374.8 1276.67 1373.57 1276.67 1373 1278.09C1372.84 1278.47 1372.75 1278.87 1372.75 1279.29C1372.75 1279.7 1372.84 1280.11 1373 1280.48C1373.24 1280.89 1373.6 1281.23 1374.02 1281.44C1374.45 1281.65 1374.93 1281.74 1375.4 1281.68C1375.86 1281.55 1376.27 1281.29 1376.59 1280.93C1376.91 1280.57 1377.12 1280.13 1377.19 1279.66C1377.26 1279.26 1377.22 1278.84 1377.08 1278.46C1376.93 1278.08 1376.69 1277.74 1376.37 1277.49C1375.17 1276.52 1374.05 1276.74 1374.01 1276.55C1373.98 1276.37 1375.17 1275.66 1376.93 1276.74C1377.45 1277.06 1377.86 1277.51 1378.13 1278.06C1378.39 1278.6 1378.5 1279.21 1378.43 1279.81C1378.43 1280.62 1378.14 1281.41 1377.61 1282.03C1377.09 1282.66 1376.36 1283.07 1375.56 1283.21C1374.75 1283.34 1373.93 1283.19 1373.23 1282.77C1372.53 1282.35 1372 1281.7 1371.73 1280.93C1371.5 1280.38 1371.41 1279.79 1371.45 1279.2C1371.5 1278.61 1371.68 1278.03 1371.99 1277.53C1372.18 1277.18 1372.45 1276.88 1372.76 1276.65C1373.08 1276.42 1373.44 1276.26 1373.83 1276.18C1374.54 1276.26 1374.8 1276.37 1374.8 1276.48Z" fill="#263238"/>
<path d="M1297.91 1202.73C1297.89 1202.45 1297.89 1202.18 1297.91 1201.91C1297.91 1201.2 1297.91 1200.37 1297.91 1199.4C1297.91 1196.93 1297.91 1193.75 1297.91 1189.86H1298.09H1339.83L1340.09 1190.13V1203.14H1339.83H1309.91H1301.2H1309.99H1339.91L1339.64 1203.4V1190.65C1340.17 1191.21 1339.64 1190.65 1339.91 1190.95H1298.17V1190.76C1298.17 1194.5 1298.17 1197.75 1298.17 1200.19C1298.17 1201.16 1298.17 1202.02 1298.17 1202.73C1298.17 1203.44 1297.91 1202.73 1297.91 1202.73Z" fill="#263238"/>
<path d="M1460.29 1176.21C1460.28 1175.93 1460.28 1175.64 1460.29 1175.35C1460.29 1174.64 1460.29 1173.82 1460.29 1172.85C1460.29 1170.42 1460.29 1167.24 1460.29 1163.35V1163.16H1460.48H1502.22C1502.22 1163.16 1501.96 1162.86 1502.48 1163.42V1176.51H1502.22H1472.3H1463.59H1472.34H1502.26L1501.99 1176.81V1163.98L1502.26 1164.24H1460.52C1460.52 1167.98 1460.52 1171.24 1460.52 1173.63C1460.52 1174.64 1460.52 1175.46 1460.52 1176.18C1460.52 1176.89 1460.29 1176.21 1460.29 1176.21Z" fill="#263238"/>
<path d="M1486.32 1071.49C1486.32 1071.49 1486.32 1071.23 1486.32 1070.67V1068.17C1486.32 1065.73 1486.32 1062.56 1486.32 1058.63H1528.06L1528.36 1058.89V1071.91H1528.1H1498.18H1489.47H1498.22H1528.14L1527.88 1072.17C1527.88 1070.15 1527.88 1068.02 1527.88 1065.88V1059.41C1528.44 1059.98 1527.88 1059.41 1528.14 1059.71H1486.4L1486.59 1059.53C1486.59 1063.27 1486.59 1066.56 1486.59 1068.95V1071.49C1486.5 1071.5 1486.41 1071.5 1486.32 1071.49Z" fill="#263238"/>
<path d="M1336.24 958.922V958.062C1336.24 957.352 1336.24 956.529 1336.24 955.556C1336.24 953.126 1336.24 949.947 1336.24 946.057H1378.02L1378.28 946.319V959.296H1378.02H1348.1H1339.38H1348.13H1378.05L1377.79 959.596C1377.79 957.539 1377.79 955.444 1377.79 953.275V946.768L1378.09 947.029H1336.32H1336.5C1336.5 950.769 1336.5 954.023 1336.5 956.417V958.96C1336.28 958.586 1336.24 958.922 1336.24 958.922Z" fill="#263238"/>
<path d="M1455.06 838.721C1455.04 838.447 1455.04 838.172 1455.06 837.898C1455.06 837.188 1455.06 836.365 1455.06 835.392C1455.06 832.899 1455.06 829.72 1455.06 825.856H1496.8L1497.06 826.117V839.132H1496.8H1466.88H1458.16H1466.91H1496.83L1496.57 839.394V826.641C1497.1 827.202 1496.57 826.641 1496.83 826.94H1455.1V826.753C1455.1 830.493 1455.1 833.784 1455.1 836.178C1455.1 837.15 1455.1 838.01 1455.1 838.721C1455.1 839.432 1455.06 838.721 1455.06 838.721Z" fill="#263238"/>
<path d="M1310.96 971.339C1310.94 971.065 1310.94 970.79 1310.96 970.516V968.01C1310.96 965.579 1310.96 962.401 1310.96 958.511V958.324H1311.15H1352.88C1352.88 958.324 1352.62 958.062 1353.18 958.623V965.093C1353.18 967.262 1353.18 969.357 1353.18 971.376V971.638H1352.92H1323H1314.33H1323.08H1353L1352.73 971.9V959.147L1353 959.409H1311.26H1311.45C1311.45 963.148 1311.45 966.402 1311.45 968.796C1311.45 969.806 1311.45 970.628 1311.45 971.339C1311.28 971.344 1311.12 971.344 1310.96 971.339Z" fill="#263238"/>
<path d="M1504.24 1084.1C1504.24 1084.1 1504.24 1083.84 1504.24 1083.28C1504.24 1082.71 1504.24 1081.74 1504.24 1080.77C1504.24 1078.3 1504.24 1075.12 1504.24 1071.23H1545.98L1546.28 1071.49V1077.96C1546.28 1080.1 1546.28 1082.19 1546.28 1084.25V1084.51H1546.01H1516.09H1507.42H1516.17H1546.09L1545.83 1084.77V1071.49L1546.09 1071.76H1504.35L1504.54 1071.57C1504.54 1075.41 1504.54 1078.55 1504.54 1080.99C1504.54 1081.97 1504.54 1082.79 1504.54 1083.54C1504.54 1084.29 1504.24 1084.1 1504.24 1084.1Z" fill="#263238"/>
<path d="M1486.32 851.586C1486.32 851.586 1486.32 851.325 1486.32 850.764V848.258C1486.32 845.789 1486.32 842.61 1486.32 838.721H1528.06L1528.36 838.983V851.998H1528.1H1498.18H1489.47H1498.22H1528.14L1527.88 852.26C1527.88 850.203 1527.88 848.108 1527.88 845.976V839.506L1528.14 839.768H1486.4L1486.59 839.581C1486.59 843.446 1486.59 846.587 1486.59 849.006V850.838C1486.36 851.25 1486.32 851.586 1486.32 851.586Z" fill="#263238"/>
<path d="M1284.37 1215.59C1284.35 1215.32 1284.35 1215.05 1284.37 1214.77C1284.37 1214.06 1284.37 1213.24 1284.37 1212.27C1284.37 1209.83 1284.37 1206.66 1284.37 1202.73H1284.55H1326.29L1326.55 1202.99V1216.01H1326.29H1296.37H1287.66H1296.45H1326.37L1326.11 1216.27V1209.98C1326.11 1208.9 1326.11 1207.81 1326.11 1206.73V1203.51L1326.4 1203.81H1284.67V1203.63C1284.67 1207.37 1284.67 1210.66 1284.67 1213.05C1284.67 1214.02 1284.67 1214.88 1284.67 1215.59H1284.37Z" fill="#263238"/>
<path d="M1460.6 403.022C1446.61 403.334 1432.97 407.465 1421.15 414.969C1409.34 422.472 1399.81 433.063 1393.58 445.595C1387.35 458.126 1384.67 472.122 1385.82 486.069C1386.98 500.015 1391.92 513.38 1400.12 524.719L1400.87 525.729L1455.28 599.518C1456.39 601.023 1457.85 602.24 1459.53 603.065C1461.21 603.89 1463.06 604.3 1464.93 604.259C1466.8 604.219 1468.63 603.73 1470.27 602.833C1471.91 601.936 1473.31 600.658 1474.36 599.107L1523.5 526.066C1532.78 511.891 1539.17 497.081 1539.17 479.616C1539.15 469.394 1537.1 459.279 1533.12 449.864C1529.14 440.449 1523.32 431.924 1516 424.789C1508.68 417.654 1500.01 412.053 1490.49 408.315C1480.98 404.578 1470.81 402.778 1460.6 403.022ZM1462.43 535.565C1451.01 535.565 1439.86 532.181 1430.37 525.84C1420.88 519.499 1413.48 510.486 1409.11 499.942C1404.75 489.397 1403.6 477.794 1405.83 466.6C1408.06 455.406 1413.55 445.123 1421.62 437.053C1429.69 428.982 1439.98 423.486 1451.17 421.26C1462.36 419.033 1473.97 420.176 1484.51 424.543C1495.06 428.911 1504.07 436.308 1510.41 445.798C1516.75 455.287 1520.14 466.445 1520.14 477.858C1520.14 493.163 1514.06 507.841 1503.23 518.663C1492.41 529.485 1477.73 535.565 1462.43 535.565Z" fill="#FF725E"/>
<g opacity="0.3">
<path d="M1460.6 403.022C1446.61 403.334 1432.97 407.465 1421.15 414.969C1409.34 422.472 1399.81 433.063 1393.58 445.595C1387.35 458.126 1384.67 472.122 1385.82 486.069C1386.98 500.015 1391.92 513.38 1400.12 524.719L1400.87 525.729L1455.28 599.518C1456.39 601.023 1457.85 602.24 1459.53 603.065C1461.21 603.89 1463.06 604.3 1464.93 604.259C1466.8 604.219 1468.63 603.73 1470.27 602.833C1471.91 601.936 1473.31 600.658 1474.36 599.107L1523.5 526.066C1532.78 511.891 1539.17 497.081 1539.17 479.616C1539.15 469.394 1537.1 459.279 1533.12 449.864C1529.14 440.449 1523.32 431.924 1516 424.789C1508.68 417.654 1500.01 412.053 1490.49 408.315C1480.98 404.578 1470.81 402.778 1460.6 403.022ZM1462.43 535.565C1451.01 535.565 1439.86 532.181 1430.37 525.84C1420.88 519.499 1413.48 510.486 1409.11 499.942C1404.75 489.397 1403.6 477.794 1405.83 466.6C1408.06 455.406 1413.55 445.123 1421.62 437.053C1429.69 428.982 1439.98 423.486 1451.17 421.26C1462.36 419.033 1473.97 420.176 1484.51 424.543C1495.06 428.911 1504.07 436.308 1510.41 445.798C1516.75 455.287 1520.14 466.445 1520.14 477.858C1520.14 493.163 1514.06 507.841 1503.23 518.663C1492.41 529.485 1477.73 535.565 1462.43 535.565Z" fill="black"/>
</g>
<path d="M1456.03 403.022C1442.04 403.334 1428.4 407.465 1416.59 414.969C1404.78 422.472 1395.25 433.063 1389.02 445.595C1382.79 458.126 1380.11 472.122 1381.26 486.069C1382.41 500.015 1387.36 513.38 1395.56 524.719L1396.31 525.729L1450.72 599.518C1451.84 601.023 1453.3 602.24 1454.98 603.064C1456.66 603.889 1458.51 604.299 1460.38 604.258C1462.26 604.218 1464.09 603.729 1465.74 602.833C1467.38 601.936 1468.79 600.659 1469.83 599.107L1518.94 526.066C1528.25 511.891 1534.61 497.081 1534.61 479.616C1534.59 469.394 1532.53 459.279 1528.55 449.864C1524.57 440.449 1518.75 431.924 1511.43 424.789C1504.11 417.654 1495.44 412.053 1485.93 408.315C1476.42 404.578 1466.25 402.778 1456.03 403.022ZM1457.87 525.168C1449.22 525.176 1440.76 522.618 1433.57 517.818C1426.37 513.019 1420.76 506.193 1417.45 498.205C1414.13 490.217 1413.26 481.425 1414.94 472.942C1416.63 464.459 1420.79 456.665 1426.9 450.547C1433.01 444.429 1440.8 440.261 1449.29 438.571C1457.77 436.881 1466.56 437.745 1474.55 441.053C1482.54 444.361 1489.37 449.965 1494.18 457.155C1498.98 464.345 1501.55 472.8 1501.55 481.448C1501.55 493.037 1496.95 504.152 1488.76 512.35C1480.57 520.548 1469.45 525.158 1457.87 525.168Z" fill="#FF725E"/>
<path d="M364.307 1545.61H0L20.4948 1525.37H376.275L364.307 1545.61Z" fill="#E0E0E0"/>
<path d="M670.308 1118.69C672.598 1117.58 674.777 1116.25 676.816 1114.73C680.743 1112.11 686.091 1108.44 691.776 1104.29L694.73 1102.2L693.646 1101.94C696.787 1107.44 699.592 1112.26 701.686 1115.66C702.731 1117.58 703.986 1119.37 705.426 1121.01C704.753 1118.96 703.836 1117.01 702.696 1115.18C700.864 1111.62 698.171 1106.69 695.216 1101.19L694.768 1100.44L694.094 1100.93L691.102 1103.02C685.268 1107.17 679.883 1110.99 676.143 1113.83C674.028 1115.24 672.072 1116.87 670.308 1118.69Z" fill="#263238"/>
<path d="M1101.17 1531.97C1105.9 1464.41 1054.97 1405.81 987.403 1401.08C919.84 1396.35 861.236 1447.28 856.506 1514.85C851.777 1582.41 902.713 1641.01 970.276 1645.74C1037.84 1650.47 1096.44 1599.54 1101.17 1531.97Z" fill="#263238"/>
<path d="M851.209 1521.15V1521.48C851.067 1553.72 863.652 1584.7 886.23 1607.71C908.808 1630.71 939.553 1643.88 971.783 1644.34C1004.01 1644.81 1035.12 1632.53 1058.35 1610.18C1081.58 1587.84 1095.05 1557.22 1095.84 1525C1095.84 1525 1095.84 1524.77 1095.84 1524.7L851.209 1521.15Z" fill="#263238"/>
<path d="M887.636 1522.01C887.364 1539.03 892.149 1555.75 901.385 1570.05C910.622 1584.35 923.894 1595.59 939.522 1602.35C955.15 1609.1 972.431 1611.06 989.176 1607.99C1005.92 1604.91 1021.38 1596.94 1033.59 1585.08C1045.8 1573.21 1054.21 1557.99 1057.77 1541.34C1061.32 1524.69 1059.85 1507.36 1053.55 1491.55C1047.25 1475.73 1036.4 1462.14 1022.37 1452.5C1008.34 1442.85 991.763 1437.59 974.739 1437.37C951.976 1437.08 930.026 1445.83 913.7 1461.69C897.373 1477.56 888 1499.24 887.636 1522.01Z" fill="#FAFAFA"/>
<path d="M974.739 1437.37C951.976 1437.08 930.026 1445.83 913.699 1461.69C897.373 1477.56 888 1499.24 887.636 1522.01L1059.37 1524.48C1059.66 1501.71 1050.92 1479.76 1035.05 1463.44C1019.19 1447.11 997.501 1437.74 974.739 1437.37Z" fill="#E0E0E0"/>
<path d="M921.183 1522.49C921.029 1532.85 923.95 1543.02 929.577 1551.72C935.204 1560.41 943.284 1567.25 952.795 1571.35C962.306 1575.45 972.821 1576.64 983.008 1574.77C993.196 1572.89 1002.6 1568.04 1010.03 1560.82C1017.46 1553.6 1022.58 1544.34 1024.74 1534.21C1026.9 1524.08 1026.02 1513.54 1022.19 1503.92C1018.36 1494.29 1011.76 1486.02 1003.23 1480.15C994.693 1474.27 984.61 1471.06 974.253 1470.92C960.379 1470.73 946.996 1476.05 937.046 1485.72C927.095 1495.39 921.39 1508.62 921.183 1522.49Z" fill="#263238"/>
<path d="M915.461 1343.87C915.461 1343.87 1040.71 1305.99 1092.55 1442.05L830.452 1523.24L915.461 1343.87Z" fill="#455A64"/>
<path d="M96.4155 1521.48C96.0703 1545.68 102.907 1569.43 116.061 1589.74C129.216 1610.04 148.097 1625.99 170.316 1635.57C192.536 1645.15 217.097 1647.92 240.893 1643.54C264.688 1639.16 286.65 1627.82 304 1610.95C321.351 1594.09 333.311 1572.46 338.368 1548.8C343.425 1525.13 341.352 1500.51 332.41 1478.02C323.469 1455.54 308.062 1436.21 288.136 1422.49C268.211 1408.76 244.662 1401.25 220.469 1400.91C204.405 1400.68 188.453 1403.61 173.524 1409.54C158.595 1415.48 144.982 1424.3 133.461 1435.49C121.941 1446.69 112.74 1460.05 106.383 1474.8C100.027 1489.56 96.6398 1505.42 96.4155 1521.48Z" fill="#263238"/>
<path d="M96.4155 1521.15V1521.48C96.2734 1553.72 108.859 1584.7 131.437 1607.71C154.014 1630.71 184.759 1643.88 216.99 1644.34C249.22 1644.81 280.331 1632.53 303.56 1610.18C326.79 1587.84 340.26 1557.22 341.045 1525C341.045 1525 341.045 1524.77 341.045 1524.7L96.4155 1521.15Z" fill="#263238"/>
<path d="M132.842 1522.01C132.57 1539.03 137.357 1555.76 146.598 1570.06C155.84 1584.37 169.119 1595.61 184.753 1602.36C200.388 1609.11 217.675 1611.07 234.423 1607.98C251.171 1604.9 266.627 1596.91 278.833 1585.04C291.039 1573.16 299.446 1557.93 302.987 1541.27C306.529 1524.62 305.047 1507.28 298.728 1491.47C292.41 1475.66 281.539 1462.07 267.494 1452.44C253.449 1442.81 236.862 1437.57 219.833 1437.37C197.09 1437.11 175.169 1445.87 158.866 1461.73C142.564 1477.59 133.207 1499.26 132.842 1522.01Z" fill="#FAFAFA"/>
<path d="M219.833 1437.37C197.07 1437.08 175.121 1445.83 158.794 1461.69C142.467 1477.56 133.095 1499.24 132.73 1522.01L304.468 1524.48C304.758 1501.71 296.013 1479.76 280.149 1463.44C264.284 1447.11 242.595 1437.74 219.833 1437.37Z" fill="#E0E0E0"/>
<path d="M166.39 1522.49C166.235 1532.85 169.156 1543.02 174.783 1551.72C180.411 1560.41 188.491 1567.25 198.002 1571.35C207.513 1575.45 218.027 1576.64 228.215 1574.77C238.402 1572.89 247.805 1568.04 255.233 1560.82C262.662 1553.6 267.782 1544.34 269.946 1534.21C272.111 1524.08 271.222 1513.54 267.392 1503.92C263.562 1494.29 256.964 1486.02 248.432 1480.15C239.899 1474.27 229.817 1471.06 219.459 1470.92C205.585 1470.73 192.203 1476.05 182.252 1485.72C172.302 1495.39 166.596 1508.62 166.39 1522.49Z" fill="#263238"/>
<path d="M392.73 1474.14C391.87 1474.47 328.291 1464.19 328.291 1464.19C324.849 1468.69 320.464 1472.38 315.445 1475.01C310.426 1477.64 304.892 1479.14 299.232 1479.41C271.744 1480.72 244.816 1481.95 221.516 1483.15C211.125 1483.63 201.344 1488.19 194.303 1495.85C187.263 1503.5 183.534 1513.63 183.93 1524.03C184.353 1533.93 188.483 1543.32 195.5 1550.32C202.517 1557.32 211.91 1561.43 221.815 1561.84L357.276 1567.15C379.715 1568.05 409.186 1554.51 423.099 1537.23L392.73 1474.14Z" fill="#455A64"/>
<path d="M59.9137 1419.98C59.9137 1419.98 54.0794 1300.79 166.128 1275.92V1260.66H558.597V1297.09C558.597 1297.09 501.002 1366.46 519.813 1424.06C538.625 1481.65 544.497 1487.64 544.497 1487.64H767.883C785.495 1462.85 795.313 1433.37 796.082 1402.96C797.279 1352.44 776.261 1265.97 760.59 1210.73C746.341 1160.47 737.328 1118.47 737.328 1118.47L804.31 1096.03C804.31 1096.03 928.326 1258.15 933.375 1267.28C938.424 1276.41 955.815 1297.65 951.626 1344.25C947.438 1390.85 836.137 1534.69 806.779 1550.92C777.42 1567.15 750.904 1568.16 724.724 1572.23C701.836 1575.75 532.754 1573.39 488.51 1572.72C473.131 1572.64 458.053 1568.45 444.828 1560.6C431.588 1552.6 421.64 1539.32 410.682 1517.52L387.382 1471.93L59.9137 1419.98Z" fill="#455A64"/>
<path d="M89.9454 1411.83L40.5034 1489.13C39.087 1491.29 38.4028 1493.85 38.5518 1496.43C38.7008 1499.01 39.6752 1501.47 41.331 1503.46C42.9868 1505.44 45.2363 1506.84 47.7474 1507.44C50.2584 1508.05 52.898 1507.83 55.2762 1506.82C61.4266 1504.11 67.0385 1500.31 71.8441 1495.6C94.4707 1474.06 134.787 1417.4 134.787 1417.4L89.9454 1411.83Z" fill="#455A64"/>
<path d="M444.454 1425.63C444.509 1425.25 444.596 1424.87 444.715 1424.51C444.965 1423.73 445.301 1422.65 445.725 1421.25C446.915 1417.08 447.778 1412.81 448.306 1408.5C450.028 1392.53 447.446 1376.39 440.826 1361.75C436.329 1351.67 430.173 1342.42 422.612 1334.37C413.909 1325.2 403.811 1317.47 392.693 1311.45C380.367 1304.79 367.176 1299.88 353.498 1296.86C338.754 1293.68 323.704 1292.12 308.619 1292.23C293.604 1292.34 278.612 1293.44 263.74 1295.52C249.266 1297.5 235.354 1299.89 222.264 1303C198.996 1307.92 176.57 1316.21 155.693 1327.61C141.679 1335.39 128.868 1345.17 117.658 1356.63C113.694 1360.7 110.889 1364.11 108.982 1366.43L106.85 1369.08C106.627 1369.39 106.377 1369.68 106.102 1369.94C109.427 1365.04 113.182 1360.45 117.322 1356.22C128.426 1344.52 141.222 1334.56 155.282 1326.67C176.182 1315.05 198.693 1306.59 222.077 1301.58C235.204 1298.55 249.117 1296.11 263.628 1294.1C278.621 1291.97 293.739 1290.84 308.881 1290.73C324.044 1290.62 339.171 1292.2 353.985 1295.44C367.799 1298.59 381.114 1303.62 393.553 1310.4C404.821 1316.52 415.046 1324.38 423.847 1333.7C431.479 1341.87 437.664 1351.28 442.135 1361.53C448.771 1376.34 451.266 1392.68 449.353 1408.8C448.757 1413.14 447.794 1417.42 446.473 1421.59L445.314 1424.81C445.043 1425.1 444.756 1425.37 444.454 1425.63Z" fill="#263238"/>
<path d="M421.79 1398.89C421.603 1398.89 422.426 1396.98 423.286 1393.58C424.391 1388.66 424.531 1383.58 423.697 1378.62C422.552 1371.32 420.094 1364.29 416.442 1357.86C414.361 1354.02 411.932 1350.38 409.186 1346.98C406.265 1343.33 402.968 1339.99 399.35 1337.03C392.336 1331.28 384.461 1326.68 376.013 1323.38C369.086 1320.71 361.906 1318.76 354.583 1317.54C349.63 1316.71 344.636 1316.14 339.623 1315.82C337.771 1315.81 335.922 1315.67 334.088 1315.41C334.572 1315.35 335.063 1315.35 335.547 1315.41C336.482 1315.41 337.866 1315.41 339.661 1315.41C344.669 1315.49 349.667 1315.9 354.621 1316.65C362.053 1317.73 369.349 1319.6 376.387 1322.22C385.018 1325.51 393.062 1330.17 400.21 1336.02C403.879 1339.09 407.202 1342.55 410.121 1346.34C412.947 1349.85 415.451 1353.6 417.601 1357.56C421.284 1364.16 423.706 1371.39 424.744 1378.88C425.471 1383.94 425.14 1389.1 423.772 1394.03C423.425 1395.32 422.949 1396.57 422.351 1397.77C422.196 1398.16 422.008 1398.53 421.79 1398.89Z" fill="#F5F5F5"/>
<g opacity="0.4">
<path d="M344.971 1294.43C366.106 1298.32 386.218 1306.51 404.062 1318.48C422.01 1330.41 435.841 1347.58 443.668 1367.66C451.485 1387.82 450.325 1414.52 442.06 1431.24L469.81 1433.52C479.16 1402.4 468.988 1364.18 446.548 1339.8C433.7 1325.59 418.032 1314.22 400.542 1306.41C383.052 1298.6 364.126 1294.52 344.971 1294.43Z" fill="black"/>
</g>
<path d="M558.41 1274.54C558.41 1274.98 470.184 1275.32 361.39 1275.32C252.595 1275.32 164.37 1274.98 164.37 1274.54C164.37 1274.09 252.595 1273.75 361.39 1273.75C470.184 1273.75 558.41 1274.12 558.41 1274.54Z" fill="#263238"/>
<path d="M558.596 1260.66C562.577 1255.59 565.04 1249.5 565.702 1243.08C566.301 1233.21 561.962 1220.87 551.229 1220.87H415.694C410.47 1220.87 405.297 1221.9 400.471 1223.9C395.645 1225.9 391.261 1228.83 387.569 1232.52C383.877 1236.22 380.949 1240.61 378.953 1245.43C376.958 1250.26 375.933 1255.44 375.938 1260.66H558.596Z" fill="#455A64"/>
<path d="M737.328 1118.39L713.729 1069.25C710.579 1062.51 710.055 1054.83 712.261 1047.72C714.468 1040.61 719.244 1034.58 725.659 1030.8L796.12 988.767C799.805 986.564 804.018 985.4 808.312 985.401H823.533L829.667 1084.73L806.143 1093.93L821.102 1118.09L737.328 1118.39Z" fill="#455A64"/>
<path d="M823.758 988.991C823.758 988.991 847.88 994.526 850.91 1031.7C853.939 1068.88 829.667 1080.32 829.667 1080.32L823.758 988.991Z" fill="white"/>
<path d="M823.758 988.991C823.923 989.639 824.011 990.305 824.02 990.974L824.468 996.322C824.88 1001.18 825.366 1007.77 826.002 1015.84C827.273 1032.3 828.956 1054.93 830.602 1080.4L829.218 1079.57C831.809 1078.15 834.188 1076.38 836.287 1074.3C841.065 1069.68 844.702 1064 846.908 1057.73C848.996 1051.88 850.12 1045.73 850.236 1039.52C850.626 1028.93 848.593 1018.39 844.29 1008.7C841.278 1002.23 836.591 996.675 830.714 992.619C828.514 991.164 826.185 989.912 823.758 988.879C824.45 988.924 825.131 989.076 825.777 989.328C827.641 989.993 829.433 990.845 831.125 991.871C837.345 995.784 842.335 1001.37 845.524 1007.99C850.127 1017.82 852.355 1028.59 852.032 1039.44C851.965 1045.82 850.84 1052.14 848.703 1058.14C846.359 1064.71 842.517 1070.64 837.483 1075.46C835.262 1077.67 832.744 1079.55 830.003 1081.07L828.694 1081.74V1080.25C827.049 1054.33 825.777 1031.25 824.955 1014.83C824.581 1006.87 824.244 1000.36 824.02 995.536L823.795 990.413C823.745 989.941 823.733 989.465 823.758 988.991Z" fill="#263238"/>
<path d="M736.954 1051.19C736.954 1051.19 672.739 1081.63 664.885 1086.45C659.462 1089.93 654.788 1095.99 659.051 1106.69C666.344 1124.86 696.45 1107.77 696.45 1107.77L756.289 1077.85C756.289 1077.85 779.253 1066.97 770.763 1053.43C761.114 1038.4 736.954 1051.19 736.954 1051.19Z" fill="#263238"/>
<path d="M728.838 1011.32C739.352 1011.32 747.875 996.299 747.875 977.772C747.875 959.244 739.352 944.224 728.838 944.224C718.325 944.224 709.802 959.244 709.802 977.772C709.802 996.299 718.325 1011.32 728.838 1011.32Z" fill="#263238"/>
<path d="M731.942 1000.85L742.414 1037.09C744.325 1036.13 745.85 1034.54 746.735 1032.6C747.62 1030.65 747.811 1028.46 747.276 1026.39C744.658 1013.97 743.162 1005.15 740.282 994.265C739.946 993.18 731.942 1000.85 731.942 1000.85Z" fill="#263238"/>
<g opacity="0.3">
<path d="M524.974 1439.54C523.927 1436.55 522.88 1433.52 521.87 1430.38C520.86 1427.24 519.851 1424.43 519.065 1421.51C517.841 1417.04 516.966 1412.48 516.447 1407.86C498.795 1479.71 525.722 1530.31 572.023 1533.86C639.603 1539.06 722.031 1542.84 755.28 1534.09C816.053 1518.15 838.343 1467.48 843.654 1459.29C848.965 1451.1 897.322 1362.57 867.702 1277.53C838.082 1192.48 786.471 1102.12 786.433 1102.12L737.253 1118.54C737.253 1118.54 746.266 1160.54 760.515 1210.81C776.186 1266.05 797.204 1352.51 796.007 1403.04C795.238 1433.44 785.42 1462.92 767.808 1487.71H544.497C544.497 1487.71 539.71 1482.92 524.974 1439.69" fill="black"/>
</g>
<path d="M50.9753 1401.28L52.5461 1384.23L460.199 1431.2C465.649 1431.85 470.91 1433.6 475.66 1436.35C480.41 1439.09 484.549 1442.78 487.823 1447.19C491.097 1451.59 493.437 1456.62 494.7 1461.96C495.962 1467.3 496.122 1472.84 495.167 1478.25L493.335 1488.57L71.4327 1427.24C65.3479 1426.35 59.8342 1423.17 56.028 1418.34C52.2219 1413.51 50.4134 1407.4 50.9753 1401.28Z" fill="#455A64"/>
<g opacity="0.3">
<path d="M50.9753 1401.28L52.5461 1384.23L460.199 1431.2C465.649 1431.85 470.91 1433.6 475.66 1436.35C480.41 1439.09 484.549 1442.78 487.823 1447.19C491.097 1451.59 493.437 1456.62 494.7 1461.96C495.962 1467.3 496.122 1472.84 495.167 1478.25L493.335 1488.57L71.4327 1427.24C65.3479 1426.35 59.8342 1423.17 56.028 1418.34C52.2219 1413.51 50.4134 1407.4 50.9753 1401.28Z" fill="black"/>
</g>
<g opacity="0.3">
<path d="M843.729 1515.35C843.729 1515.35 933.487 1416.65 952 1339.01C961.302 1338.96 970.594 1339.65 979.788 1341.07C979.788 1341.07 926.681 1485.36 843.729 1515.35Z" fill="black"/>
</g>
<path d="M950.691 1304.23C950.936 1305.05 951.099 1305.89 951.177 1306.74C951.402 1308.38 951.888 1310.78 952.224 1313.95C953.046 1322.88 952.807 1331.87 951.514 1340.73C949.438 1353.9 945.443 1366.69 939.658 1378.69C932.558 1393.28 924.629 1407.46 915.91 1421.14C900.269 1446.16 882.7 1469.92 863.364 1492.2C856.071 1500.84 850.049 1507.72 845.823 1512.43L840.999 1517.86C840.455 1518.52 839.855 1519.13 839.204 1519.69C839.653 1518.97 840.166 1518.29 840.737 1517.67L845.374 1512.06L862.541 1491.49C881.564 1469.08 898.95 1445.33 914.563 1420.43C923.251 1406.78 931.203 1392.67 938.387 1378.17C944.147 1366.33 948.201 1353.74 950.429 1340.77C951.83 1331.98 952.219 1323.06 951.589 1314.18C951.402 1311.04 950.99 1308.61 950.878 1306.96C950.738 1306.06 950.676 1305.14 950.691 1304.23Z" fill="#263238"/>
<path d="M795.521 1514.64C785.596 1506.37 776.353 1497.32 767.883 1487.56C773.009 1491.5 777.812 1495.84 782.245 1500.54C787.048 1504.87 791.488 1509.58 795.521 1514.64Z" fill="#263238"/>
<path d="M529.163 1511.61C530.594 1506.99 532.821 1502.67 535.746 1498.82C538.262 1494.7 541.447 1491.04 545.17 1487.97C545.544 1488.27 541.43 1493.21 537.055 1499.68C532.679 1506.15 529.575 1511.8 529.163 1511.61Z" fill="#263238"/>
<path d="M356.715 1568.61C361.618 1564.13 365.749 1558.87 368.945 1553.05C372.301 1546.69 374.348 1539.72 374.966 1532.55C375.878 1523.82 374.355 1515.01 370.566 1507.08C366.777 1499.16 360.87 1492.44 353.499 1487.67C347.551 1483.63 340.847 1480.83 333.789 1479.45C327.255 1478.25 320.568 1478.16 314.005 1479.18C314.005 1479.18 314.454 1479 315.351 1478.77C316.578 1478.43 317.828 1478.18 319.091 1478.03C323.989 1477.35 328.964 1477.46 333.827 1478.36C341.07 1479.64 347.971 1482.41 354.097 1486.48C361.772 1491.33 367.919 1498.26 371.83 1506.46C375.74 1514.66 377.255 1523.79 376.2 1532.82C375.511 1540.14 373.308 1547.25 369.73 1553.68C367.366 1558.02 364.337 1561.96 360.754 1565.35C359.52 1566.59 358.36 1567.33 357.687 1567.93C357.39 1568.19 357.064 1568.42 356.715 1568.61Z" fill="#263238"/>
<path d="M207.828 1537.34C206.817 1532.62 206.328 1527.81 206.369 1522.98C205.873 1518.17 205.873 1513.32 206.369 1508.51C207.382 1513.24 207.871 1518.07 207.828 1522.9C208.345 1527.7 208.345 1532.54 207.828 1537.34Z" fill="#263238"/>
<path d="M218.636 1537.38C217.266 1532.7 216.388 1527.88 216.018 1523.02C215.16 1518.22 214.797 1513.34 214.934 1508.47C216.331 1513.14 217.209 1517.96 217.552 1522.83C218.455 1527.62 218.819 1532.5 218.636 1537.38Z" fill="#263238"/>
<path d="M386.784 1260.66C386.784 1261.07 337.23 1261.45 276.082 1261.45C214.934 1261.45 165.343 1261.07 165.343 1260.66C165.343 1260.25 214.934 1259.87 276.082 1259.87C337.23 1259.87 386.784 1260.21 386.784 1260.66Z" fill="#263238"/>
<path d="M127.232 1606.3C126.748 1605.92 126.309 1605.48 125.924 1605C125.138 1604.1 123.867 1602.79 122.445 1600.96C118.253 1595.89 114.499 1590.47 111.226 1584.76C100.408 1565.86 94.7581 1544.43 94.8435 1522.65C94.9288 1500.87 100.746 1479.49 111.712 1460.67C114.981 1454.99 118.735 1449.59 122.932 1444.55C124.353 1442.72 125.662 1441.45 126.447 1440.55C126.85 1440.07 127.301 1439.63 127.793 1439.24C127.479 1439.77 127.116 1440.27 126.709 1440.74C125.961 1441.71 124.764 1443.06 123.418 1444.93C119.439 1450.07 115.863 1455.51 112.722 1461.2C102.144 1479.95 96.5426 1501.1 96.4509 1522.63C96.3593 1544.16 101.78 1565.36 112.198 1584.2C115.312 1589.92 118.85 1595.39 122.782 1600.58C124.091 1602.49 125.288 1603.8 125.998 1604.81C126.469 1605.26 126.883 1605.76 127.232 1606.3Z" fill="#455A64"/>
<path d="M545.208 1557.69C545.208 1557.69 548.648 1637.68 548.723 1641.53L565.702 1654.4L606.43 1644.27L602.69 1555.85L545.208 1557.69Z" fill="#FFBE9D"/>
<path d="M657.406 853.83L700.003 876.606L771.249 824.659L791.968 860.412C791.968 860.412 748.585 902.262 733.177 916.511C717.768 930.761 707.67 938.353 696.413 936.146C685.156 933.94 622.475 899.121 622.475 899.121C622.475 899.121 640.725 854.578 657.406 853.83Z" fill="#FFBE9D"/>
<path d="M700.228 892.464C700.228 892.464 700.49 892.725 700.639 893.174V893.548H699.704V893.212V892.09C699.446 889.955 699.308 887.807 699.293 885.657C698.94 882.581 699.207 879.465 700.078 876.494C701.127 879.415 701.522 882.53 701.238 885.62C701.238 888.125 701.238 890.407 701.051 892.09V893.212V893.548C699.106 893.548 700.49 893.548 700.078 893.548V893.137C699.966 892.725 700.116 892.464 700.228 892.464Z" fill="#EB996E"/>
<path d="M780.113 870.136C781.534 870.585 794.811 856.261 794.811 856.261C794.811 856.261 819.681 855.812 825.628 852.521C831.574 849.23 840.588 836.963 840.588 836.963L828.582 800.386C817.479 801.113 806.427 802.487 795.484 804.5C787.555 806.707 768.594 826.566 768.594 826.566L760.441 839.244C760.441 839.244 757.898 863.292 780.113 870.136Z" fill="#FFBE9D"/>
<path d="M822.15 854.578C825.198 854.36 828.232 853.973 831.238 853.419C837.222 852.409 843.392 851.885 843.205 845.939C843.222 844.954 843.027 843.976 842.634 843.073C842.24 842.17 841.657 841.362 840.924 840.703C840.924 840.703 845.337 838.871 845.3 835.542C845.29 834.574 845.051 833.622 844.602 832.764C844.154 831.906 843.509 831.166 842.719 830.605C842.719 830.605 848.815 827.8 849.002 822.864C849.026 821.039 848.543 819.244 847.605 817.678C846.667 816.113 845.312 814.839 843.692 814C843.692 814 862.391 808.652 863.887 808.053C869.198 805.884 879.333 801.06 875.107 797.095C873.574 795.637 872.975 794.029 862.279 795.338C852.555 796.497 837.259 800.087 837.259 800.087C837.259 800.087 824.169 800.723 817.288 801.434C808.759 802.215 800.313 803.729 792.043 805.959C783.217 810.036 775.513 821.629 775.513 821.629L794.923 856.261L822.15 854.578Z" fill="#FFBE9D"/>
<path d="M839.466 840.553C837.718 840.316 835.955 840.216 834.192 840.254H828.47C827.338 840.165 826.2 840.165 825.067 840.254C823.773 840.418 822.566 840.995 821.626 841.9C821.113 842.359 820.736 842.952 820.538 843.612C820.34 844.272 820.329 844.973 820.504 845.64C820.886 846.809 821.703 847.787 822.786 848.37C823.67 848.917 824.61 849.368 825.59 849.716L828.059 850.651C829.63 851.212 830.864 851.586 831.799 851.811C832.734 852.035 833.183 852.147 833.183 852.072C833.183 851.998 831.313 851.324 828.321 850.128C826.565 849.465 824.864 848.664 823.234 847.734C822.331 847.226 821.651 846.399 821.327 845.415C821.204 844.896 821.227 844.352 821.392 843.845C821.556 843.337 821.857 842.884 822.262 842.536C823.076 841.761 824.106 841.252 825.216 841.077C826.312 840.986 827.412 840.986 828.508 841.077H834.23C835.986 841.042 837.737 840.867 839.466 840.553Z" fill="#EB996E"/>
<path d="M819.046 815.01C820.991 814.181 822.709 812.899 824.057 811.27C825.631 809.868 826.827 808.093 827.535 806.109C827.348 806.109 825.815 808.278 823.459 810.709C821.102 813.14 818.896 814.823 819.046 815.01Z" fill="#EB996E"/>
<path d="M803.263 806.37C808.219 807.563 812.725 810.16 816.241 813.85C819.718 817.531 822.618 821.717 824.842 826.267C826.712 830.007 828.32 834.308 826.264 837.786C825.01 839.489 823.176 840.673 821.108 841.114C819.041 841.555 816.883 841.222 815.044 840.179C811.455 838.016 808.631 834.787 806.965 830.942C805.316 827.11 803.206 823.493 800.682 820.171" fill="#FFBE9D"/>
<path d="M800.944 820.133C800.944 820.133 801.618 820.994 802.702 822.714C804.072 825.144 805.321 827.64 806.442 830.194C807.288 831.998 808.289 833.725 809.434 835.355C810.743 837.27 812.453 838.878 814.445 840.067C816.713 841.358 819.384 841.745 821.925 841.152C823.327 840.837 824.618 840.153 825.665 839.17C826.675 838.152 827.342 836.845 827.573 835.43C827.836 832.65 827.277 829.854 825.965 827.389C824.84 825.128 823.592 822.93 822.225 820.807C819.984 817.172 817.152 813.936 813.847 811.232C811.611 809.42 809.081 808.003 806.367 807.044C805.627 806.775 804.863 806.575 804.086 806.445C803.562 806.445 803.3 806.445 803.3 806.445C803.3 806.445 804.385 806.744 806.255 807.455C808.883 808.518 811.33 809.982 813.511 811.793C816.719 814.507 819.461 817.729 821.626 821.33C822.922 823.436 824.108 825.609 825.179 827.838C826.412 830.127 826.945 832.728 826.712 835.318C826.521 836.582 825.947 837.756 825.067 838.684C824.155 839.545 823.033 840.151 821.813 840.441C819.46 841.033 816.97 840.698 814.857 839.506C812.955 838.376 811.312 836.86 810.032 835.056C808.89 833.469 807.877 831.793 807.003 830.044C805.775 827.468 804.388 824.97 802.852 822.564C802.291 821.742 801.767 821.143 801.43 820.732C801.094 820.32 800.944 820.096 800.944 820.133Z" fill="#EB996E"/>
<path d="M838.905 840.553C831.235 840.56 823.57 840.959 815.941 841.75C813.761 842.151 811.513 841.957 809.434 841.189C807.826 840.404 807.227 836.365 806.816 834.644L834.94 830.269" fill="#FFBE9D"/>
<path d="M834.94 830.269C834.213 830.263 833.487 830.326 832.771 830.456L826.787 831.278L806.741 834.233H806.33V834.682C806.629 835.953 806.891 837.375 807.34 838.758C807.519 839.336 807.77 839.889 808.088 840.404C808.242 840.665 808.43 840.904 808.649 841.114C808.892 841.333 809.17 841.51 809.471 841.638C810.531 842.053 811.662 842.256 812.8 842.236C815.006 842.236 817.026 841.937 818.971 841.788C822.711 841.451 826.451 841.152 829.293 840.965C832.135 840.778 834.604 840.703 836.287 840.628C837.133 840.691 837.983 840.691 838.83 840.628C837.99 840.488 837.138 840.425 836.287 840.441C834.604 840.441 832.21 840.441 829.256 840.441C826.301 840.441 822.785 840.778 818.896 841.077C816.951 841.077 814.894 841.488 812.837 841.451C811.8 841.476 810.768 841.285 809.808 840.89C808.91 840.591 808.499 839.544 808.125 838.534C807.751 837.524 807.452 835.841 807.153 834.532L806.816 835.018C814.745 833.784 821.776 832.625 826.787 831.765L832.734 830.717C833.48 830.628 834.218 830.478 834.94 830.269Z" fill="#EB996E"/>
<path d="M843.131 828.698L813.847 834.308C811.795 834.824 809.671 834.989 807.564 834.794C806.516 834.689 805.51 834.327 804.636 833.74C803.762 833.152 803.046 832.358 802.552 831.428C802.122 830.055 802.156 828.577 802.649 827.225C803.143 825.873 804.068 824.721 805.283 823.948C807.787 822.459 810.578 821.516 813.473 821.181C822.375 819.43 831.128 816.992 839.653 813.888" fill="#FFBE9D"/>
<path d="M839.578 813.776C839.283 813.816 838.994 813.891 838.718 814L836.287 814.785C834.192 815.421 831.163 816.393 827.386 817.403C823.608 818.413 819.046 819.572 813.959 820.582C811.213 820.942 808.538 821.724 806.031 822.901C804.685 823.605 803.559 824.666 802.777 825.968C801.91 827.32 801.564 828.942 801.804 830.53C801.987 831.319 802.334 832.061 802.824 832.706C803.314 833.35 803.935 833.884 804.647 834.27C805.977 834.995 807.47 835.368 808.985 835.355C811.718 835.155 814.432 834.742 817.101 834.121L830.677 831.428L839.802 829.558L842.271 828.997L843.131 828.735C842.833 828.694 842.531 828.694 842.233 828.735L839.727 829.147L830.565 830.755L816.951 833.298C814.331 833.899 811.667 834.286 808.985 834.457C807.614 834.478 806.261 834.143 805.058 833.485C804.451 833.158 803.92 832.705 803.5 832.157C803.081 831.609 802.784 830.978 802.627 830.306C802.424 828.924 802.729 827.515 803.487 826.342C804.196 825.176 805.203 824.221 806.405 823.574C808.841 822.425 811.439 821.655 814.109 821.293C819.195 820.246 823.758 819.049 827.535 817.964C831.313 816.88 834.342 815.795 836.399 815.047L838.755 814.112L839.578 813.776Z" fill="#EB996E"/>
<path d="M784.563 835.879C784.563 835.879 784.975 836.739 786.097 837.749C787.6 839.003 789.363 839.91 791.258 840.404C793.148 840.916 795.13 840.993 797.055 840.628C798.513 840.329 799.336 839.918 799.299 839.805C796.703 840.219 794.055 840.155 791.482 839.618C788.955 838.834 786.604 837.563 784.563 835.879Z" fill="#EB996E"/>
<path d="M626.102 1043.07C626.102 1043.07 697.161 1056.2 702.098 1057.54C707.034 1058.89 727.342 1068.46 728.277 1074.6C728.821 1082.67 728.821 1090.76 728.277 1098.83C728.277 1098.83 724.537 1101.79 722.368 1095.88C720.867 1090.13 720.224 1084.2 720.461 1078.26L709.241 1073.93L715.374 1084.85L716.384 1110.43C716.384 1110.43 708.53 1109.72 706.997 1103.58C706.032 1099.34 705.531 1095 705.501 1090.64L697.273 1083.69L703.444 1092.03L705.501 1110.43C705.501 1110.43 699.517 1112.37 697.61 1108.3C696.243 1102.98 695.564 1097.51 695.59 1092.03L672.403 1083.91L657.069 1092.48L640.426 1083.35C638.098 1082.06 636.081 1080.28 634.517 1078.13C632.953 1075.98 631.881 1073.51 631.376 1070.9L626.102 1043.07Z" fill="#FFBE9D"/>
<path d="M484.209 690.021L486.566 814C486.75 823.753 490.621 833.075 497.4 840.09C504.179 847.105 513.363 851.292 523.105 851.811C528.375 852.082 533.646 851.27 538.59 849.424C543.535 847.577 548.048 844.737 551.851 841.078C555.654 837.418 558.666 833.018 560.702 828.148C562.737 823.278 563.751 818.043 563.683 812.766C563.683 800.948 563.309 791.298 563.309 791.298C563.309 791.298 593.453 788.194 595.398 758.312C596.482 741.034 595.398 701.69 594.537 671.546C594.21 661.681 590.18 652.302 583.25 645.275C576.319 638.247 566.997 634.087 557.138 633.623L539.074 632.688C531.681 632.763 524.378 634.316 517.593 637.255C510.809 640.194 504.681 644.46 499.569 649.802C494.458 655.144 490.466 661.453 487.828 668.36C485.19 675.267 483.96 682.632 484.209 690.021Z" fill="#FFBE9D"/>
<path d="M563.309 790.999C549.501 790.234 536.2 785.536 524.975 777.461C524.975 777.461 533.464 799.9 563.459 798.554L563.309 790.999Z" fill="#EB996E"/>
<path d="M587.431 699.633C586.908 700.194 583.692 697.613 579.166 697.389C574.641 697.164 571.088 699.296 570.639 698.698C570.19 698.099 570.976 697.464 572.509 696.454C574.576 695.198 576.976 694.598 579.391 694.733C581.784 694.848 584.077 695.727 585.935 697.239C587.282 698.361 587.731 699.408 587.431 699.633Z" fill="#263238"/>
<path d="M543.188 709.469C543.149 710.586 542.672 711.644 541.861 712.413C541.049 713.183 539.968 713.603 538.85 713.583C538.304 713.593 537.763 713.495 537.255 713.295C536.748 713.096 536.285 712.798 535.892 712.42C535.5 712.041 535.186 711.589 534.968 711.089C534.75 710.589 534.633 710.051 534.624 709.506C534.663 708.388 535.139 707.331 535.951 706.561C536.762 705.792 537.844 705.372 538.962 705.392C539.508 705.377 540.052 705.471 540.562 705.669C541.072 705.867 541.537 706.164 541.93 706.544C542.324 706.923 542.638 707.377 542.854 707.88C543.07 708.382 543.183 708.922 543.188 709.469Z" fill="#263238"/>
<path d="M585.038 709.469C584.999 710.586 584.522 711.644 583.711 712.413C582.899 713.183 581.818 713.603 580.7 713.583C580.153 713.598 579.609 713.503 579.099 713.306C578.59 713.108 578.124 712.811 577.731 712.431C577.338 712.052 577.024 711.597 576.808 711.095C576.592 710.593 576.478 710.053 576.473 709.506C576.512 708.388 576.989 707.331 577.801 706.561C578.612 705.792 579.694 705.372 580.812 705.392C581.358 705.377 581.902 705.471 582.412 705.669C582.922 705.867 583.387 706.164 583.78 706.544C584.174 706.923 584.488 707.377 584.703 707.88C584.919 708.382 585.033 708.922 585.038 709.469Z" fill="#263238"/>
<path d="M543.038 697.987C542.477 698.511 539.298 695.93 534.773 695.706C530.248 695.481 526.695 697.613 526.209 697.015C525.722 696.416 526.583 695.781 528.116 694.808C530.169 693.517 532.576 692.902 534.998 693.05C537.391 693.165 539.684 694.044 541.542 695.556C542.889 696.716 543.3 697.725 543.038 697.987Z" fill="#263238"/>
<path d="M557.549 734.564C559.993 733.933 562.505 733.606 565.029 733.591C566.189 733.591 567.348 733.367 567.572 732.582C567.719 731.376 567.511 730.155 566.974 729.066L563.907 719.941C561.081 712.2 558.88 704.246 557.325 696.155C560.768 703.645 563.607 711.399 565.815 719.342C566.824 722.558 567.759 725.588 568.694 728.505C569.357 729.961 569.476 731.606 569.031 733.142C568.842 733.553 568.562 733.915 568.212 734.2C567.862 734.485 567.451 734.686 567.011 734.788C566.354 734.876 565.687 734.876 565.029 734.788C562.536 735.02 560.024 734.944 557.549 734.564Z" fill="#263238"/>
<path d="M543.824 737.032C544.609 737.032 544.347 742.044 548.424 745.784C552.5 749.523 557.848 749.262 557.848 749.972C557.848 750.683 556.614 750.87 554.37 750.832C551.445 750.712 548.654 749.575 546.479 747.616C544.398 745.661 543.141 742.986 542.963 740.136C542.889 738.191 543.487 736.995 543.824 737.032Z" fill="#263238"/>
<path d="M543.6 681.307C543.076 682.504 538.551 681.681 533.09 682.055C527.63 682.429 523.254 683.663 522.581 682.504C522.282 681.98 523.105 680.821 524.937 679.699C527.35 678.319 530.053 677.525 532.829 677.38C535.605 677.189 538.387 677.664 540.944 678.764C542.889 679.661 543.824 680.709 543.6 681.307Z" fill="#263238"/>
<path d="M586.048 683.027C585.188 684.037 582.083 682.766 578.269 682.541C574.454 682.317 571.2 682.878 570.527 681.718C570.228 681.195 570.789 680.185 572.247 679.25C574.197 678.162 576.428 677.68 578.653 677.866C580.878 678.053 582.997 678.899 584.739 680.297C586.048 681.419 586.347 682.541 586.048 683.027Z" fill="#263238"/>
<path d="M493.148 712.835C492.661 712.573 472.914 705.691 472.503 726.149C472.092 746.606 492.848 742.829 492.848 742.38C492.848 741.931 493.148 712.835 493.148 712.835Z" fill="#FFBE9D"/>
<path d="M486.678 734.339C486.678 734.339 486.341 734.601 485.705 734.863C484.85 735.188 483.905 735.188 483.05 734.863C481.781 733.972 480.768 732.765 480.112 731.36C479.456 729.956 479.179 728.404 479.31 726.859C479.303 725.106 479.673 723.371 480.395 721.773C480.603 721.134 480.964 720.554 481.446 720.085C481.928 719.616 482.517 719.271 483.162 719.08C483.569 718.983 483.997 719.03 484.373 719.214C484.748 719.399 485.048 719.708 485.219 720.09C485.481 720.688 485.219 721.1 485.481 721.137C485.743 721.175 485.93 720.801 485.78 719.941C485.663 719.432 485.388 718.974 484.995 718.632C484.427 718.203 483.72 718.003 483.012 718.071C482.181 718.238 481.404 718.609 480.751 719.151C480.098 719.693 479.59 720.388 479.273 721.175C478.351 722.925 477.887 724.881 477.926 726.859C477.788 728.682 478.19 730.505 479.081 732.102C479.972 733.698 481.314 734.996 482.938 735.835C483.489 735.993 484.068 736.031 484.636 735.947C485.203 735.863 485.746 735.659 486.229 735.349C486.64 734.9 486.752 734.377 486.678 734.339Z" fill="#EB996E"/>
<path d="M481.816 711.526C483.765 711.508 485.683 712.017 487.368 712.997C489.053 713.978 490.442 715.395 491.39 717.098C492.549 720.09 492.699 723.419 493.858 726.411C494.306 727.952 495.256 729.301 496.556 730.242C497.857 731.184 499.434 731.665 501.039 731.609C502.119 731.332 503.106 730.775 503.901 729.993C504.695 729.211 505.269 728.234 505.564 727.159C506.114 725.01 506.253 722.777 505.976 720.576C505.228 710.965 503.732 701.39 503.844 691.741C503.562 682.04 506.165 672.474 511.324 664.253C513.948 660.194 517.62 656.919 521.951 654.773C526.283 652.627 531.113 651.69 535.932 652.061C542.253 652.884 547.9 656.511 554.183 657.745C557.891 658.406 561.7 658.221 565.327 657.205C568.953 656.188 572.303 654.366 575.127 651.874C575.875 651.238 579.166 649.293 579.166 649.293C579.196 647.016 578.559 644.78 577.334 642.861C565.403 630.631 543.001 626.218 526.246 629.546C517.731 631.17 509.672 634.631 502.631 639.689C495.591 644.746 489.738 651.279 485.481 658.83C477.552 673.977 478.562 695.668 481.741 711.526" fill="#263238"/>
<path d="M569.929 646.002C558.709 646.413 536.98 650.602 528.041 657.558C526.994 658.381 525.835 659.728 526.545 660.887C527.256 662.046 528.303 661.785 529.313 661.747C539.691 662.277 549.989 663.843 560.055 666.422C566.461 668.685 573.238 669.713 580.026 669.451C583.418 669.265 586.703 668.203 589.561 666.367C592.42 664.532 594.753 661.986 596.333 658.98L599.212 660.064C595.936 655.417 591.526 651.684 586.4 649.223C581.274 646.762 575.604 645.653 569.929 646.002Z" fill="#263238"/>
<path d="M593.378 659.765C587.277 654.025 579.458 650.451 571.125 649.592C545.245 647.236 502.759 655.015 480.245 699.483C477.792 691.787 476.261 683.828 475.682 675.772C475.682 669.676 479.422 633.436 516.821 622.216C516.896 622.216 573.22 601.011 593.378 659.765Z" fill="#455A64"/>
<g opacity="0.3">
<path d="M593.378 659.765C586.89 652.836 577.952 648.716 568.47 648.283C545.282 647.161 501.45 657.558 480.245 699.483C477.792 691.787 476.261 683.828 475.682 675.772C475.682 669.676 479.422 633.436 516.821 622.216C516.896 622.216 573.22 601.011 593.378 659.765Z" fill="black"/>
</g>
<path d="M483.76 693.163C494.98 674.463 511.81 661.56 529.949 650.34C548.087 639.121 577.969 628.163 598.576 622.777C604.678 620.809 611.131 620.172 617.5 620.907C620.674 621.321 623.666 622.622 626.133 624.659C628.601 626.697 630.443 629.389 631.45 632.426C633.395 640.205 619.557 652.098 613.05 656.773C607.027 660.785 600.784 664.456 594.35 667.769C594.35 667.769 593.602 653.856 570.564 650.827C539.186 646.713 482.788 693.948 483.76 693.163Z" fill="#455A64"/>
<path d="M526.508 635.755C533.339 632.539 540.483 630.033 547.825 628.275C555.247 627.129 562.763 626.715 570.265 627.041C568.154 626.273 565.929 625.868 563.683 625.844C558.257 625.41 552.797 625.712 547.451 626.741C542.126 627.783 536.968 629.545 532.118 631.977C530.059 632.93 528.165 634.205 526.508 635.755Z" fill="white"/>
<path d="M606.954 1639.29L607.178 1642.81C607.178 1642.81 670.757 1664.01 672.216 1675.27L548.947 1679.98L548.199 1640.6C557.552 1644.45 567.601 1646.32 577.714 1646.1C587.826 1645.87 597.782 1643.56 606.954 1639.29Z" fill="#455A64"/>
<g opacity="0.6">
<path d="M548.948 1679.98L548.76 1670.52L666.868 1669.44C666.868 1669.44 672.477 1671.53 672.104 1675.27L548.948 1679.98Z" fill="white"/>
</g>
<path d="M607.627 1643.11C607.627 1643.67 604.673 1644.04 601.83 1646.02C598.988 1648.01 597.567 1650.47 596.968 1650.29C596.37 1650.1 596.968 1646.55 600.708 1644.38C604.448 1642.21 607.739 1642.58 607.627 1643.11Z" fill="#263238"/>
<path d="M620.866 1647.74C621.053 1648.3 618.51 1649.35 616.603 1651.89C614.695 1654.44 614.284 1657.02 613.686 1657.02C613.087 1657.02 612.489 1653.76 614.92 1650.66C617.351 1647.56 620.829 1647.18 620.866 1647.74Z" fill="#263238"/>
<path d="M629.132 1662.4C628.571 1662.4 627.561 1659.67 628.907 1656.46C630.254 1653.24 633.021 1651.89 633.283 1652.34C633.545 1652.79 631.937 1654.59 630.852 1657.24C629.767 1659.9 629.73 1662.4 629.132 1662.4Z" fill="#263238"/>
<path d="M616.827 1363.99L595.958 1294.43L568.171 1205.87L569.704 1160.28L523.179 1128.23C492.774 1128.75 404.175 1123.52 404.175 1123.52C404.175 1123.52 406.456 1169.74 411.019 1203.03C411.944 1209.63 414.389 1215.93 418.162 1221.43L458.965 1280.93L529.126 1411.83C529.126 1411.83 533.801 1458.58 535.745 1498.97C537.915 1544.22 545.207 1626.13 545.207 1626.13L617.388 1627.85L621.913 1446.53C623.746 1419.31 625.766 1389.8 616.827 1363.99Z" fill="#263238"/>
<path d="M661.52 1361.79C669.822 1368.52 677.265 1460.04 663.576 1453.38L679.845 1468.75L723.378 1461.27L729.399 1365.12L661.52 1361.79Z" fill="#FFBE9D"/>
<path d="M538.476 1088.29C538.476 1088.29 718.815 1137.35 737.515 1176.18C745.05 1188.89 748.57 1203.58 747.613 1218.32C746.528 1244.5 731.643 1432.73 731.643 1432.73L663.539 1428.25L656.994 1358.8L655.872 1253.67L660.622 1241.7C655.41 1242.9 649.984 1242.84 644.802 1241.51C637.06 1239.23 519.552 1203.66 519.552 1203.66L473.663 1131.33L538.476 1088.29Z" fill="#263238"/>
<path d="M724.425 1456V1459.74C724.425 1459.74 788.303 1488.27 788.303 1500.58L659.612 1495.19L663.128 1452.44C672.491 1457.4 682.812 1460.29 693.389 1460.9C703.966 1461.51 714.552 1459.84 724.425 1456Z" fill="#455A64"/>
<g opacity="0.6">
<path d="M659.724 1495.19L660.547 1484.91L783.628 1493.85C783.628 1493.85 789.238 1496.58 788.416 1500.58L659.724 1495.19Z" fill="white"/>
</g>
<path d="M724.724 1460.22C724.724 1460.86 721.508 1461.01 718.329 1462.88C715.15 1464.75 713.393 1467.37 712.832 1467.07C712.271 1466.77 713.355 1463.33 717.245 1461.01C721.134 1458.69 724.911 1459.62 724.724 1460.22Z" fill="#263238"/>
<path d="M738.001 1466.36C738.001 1466.99 735.383 1467.93 733.102 1470.51C730.82 1473.09 730.147 1475.86 729.362 1475.82C728.577 1475.78 728.502 1472.08 731.344 1469.05C734.186 1466.02 738.039 1465.76 738.001 1466.36Z" fill="#263238"/>
<path d="M744.995 1482.89C744.434 1482.89 743.686 1479.82 745.444 1476.45C747.201 1473.09 750.193 1471.82 750.455 1472.34C750.717 1472.86 748.81 1474.66 747.388 1477.43C745.967 1480.19 745.631 1482.89 744.995 1482.89Z" fill="#263238"/>
<path d="M689.419 1206.77C687.26 1207.77 685.266 1209.09 683.51 1210.69C679.053 1214.32 675.047 1218.46 671.58 1223.04C668.11 1227.65 665.221 1232.68 662.978 1238C661.9 1240.12 661.168 1242.41 660.809 1244.77C664.236 1237.56 668.265 1230.65 672.851 1224.12C677.869 1217.87 683.412 1212.07 689.419 1206.77Z" fill="#455A64"/>
<path d="M674.796 1192.48C673.115 1194.53 671.73 1196.81 670.682 1199.25C664.981 1210.72 661.733 1223.26 661.145 1236.05C660.91 1238.69 661.024 1241.34 661.482 1243.94C661.927 1241.36 662.19 1238.75 662.267 1236.13C662.852 1229.82 663.927 1223.57 665.484 1217.43C667.056 1211.33 669.106 1205.36 671.617 1199.59C672.818 1197.28 673.88 1194.91 674.796 1192.48Z" fill="#455A64"/>
<path d="M553.996 1165.78C554.483 1165.78 562.636 1188.22 572.172 1215.89C581.709 1243.57 589.04 1266.46 588.516 1266.64C587.992 1266.83 579.877 1244.39 570.34 1216.53C560.803 1188.67 553.473 1165.97 553.996 1165.78Z" fill="#455A64"/>
<path d="M581.485 834.831L610.918 823.013L687.699 864.713L656.358 936.445L588.778 902.898L581.485 834.831Z" fill="#455A64"/>
<path d="M610.918 823.013L564.244 805.361C564.244 805.361 554.034 826.94 531.706 820.32C509.379 813.701 484.77 793.804 484.77 793.804C484.77 793.804 442.322 810.634 429.382 818.301C416.442 825.968 409.448 1024.89 409.448 1024.89L405.932 1101.86L403.838 1116.37C402.945 1123.32 402.483 1130.31 402.454 1137.32C481.554 1155.08 559.756 1136.27 601.681 1113.01C601.681 1113.01 607.216 1108.67 604.822 1098.76C602.429 1088.85 597.342 1087.13 597.342 1087.13L598.389 1000.14L606.169 911.163L610.918 823.013Z" fill="#455A64"/>
<path d="M652.693 1048.01L547.676 1004.55L482.601 860.45L424.707 884.76C424.707 884.76 486.865 1041.01 510.987 1053.99C535.11 1066.97 634.592 1072.95 634.592 1072.95L652.693 1048.01Z" fill="#FFBE9D"/>
<path d="M429.269 818.301C429.269 818.301 407.391 829.259 407.428 871.146C407.428 907.536 418.162 965.542 418.162 965.542L521.234 929.676L489.37 855.625C481.89 837.973 465.285 805.51 429.269 818.301Z" fill="#455A64"/>
<path d="M430.055 961.428C430.61 961.137 431.185 960.887 431.775 960.68L436.824 958.735L455.786 951.854L521.048 928.778L520.487 929.975C517.233 920.177 513.68 909.705 509.79 899.046C503.657 882.254 497.262 866.509 490.717 852.484C487.825 845.808 484.306 839.421 480.207 833.41C476.743 828.152 471.924 823.927 466.257 821.181C457.885 817.385 448.672 815.826 439.517 816.655C437.051 816.938 434.643 817.594 432.374 818.6C431.634 819.082 430.859 819.507 430.055 819.872C430.055 819.872 430.055 819.685 430.579 819.423C431.071 818.979 431.61 818.59 432.187 818.263C434.434 817.057 436.878 816.259 439.405 815.907C448.736 814.756 458.206 816.138 466.818 819.909C472.76 822.697 477.839 827.039 481.516 832.475C485.741 838.526 489.362 844.977 492.325 851.736C499.019 865.761 505.452 881.655 511.623 898.373C515.363 909.069 519.103 919.541 522.244 929.377L522.544 930.274L521.683 930.574L456.197 953.013L437.049 959.371L431.887 961.017C431.298 961.236 430.682 961.374 430.055 961.428Z" fill="#263238"/>
<path d="M592.63 1090.19C591.03 1091.69 589.317 1093.07 587.506 1094.31C585.823 1095.58 583.766 1097.11 581.186 1098.68C578.605 1100.25 575.8 1102.24 572.472 1103.99C569.143 1105.75 565.515 1107.73 561.439 1109.68C557.362 1111.62 553.024 1113.42 548.349 1115.25C538.132 1118.97 527.624 1121.83 516.934 1123.82C506.218 1125.6 495.371 1126.47 484.509 1126.43C479.497 1126.43 474.71 1126.21 470.297 1125.65C466.183 1125.34 462.089 1124.81 458.03 1124.08C454.29 1123.55 450.961 1122.69 448.007 1122.06C445.052 1121.42 442.584 1120.71 440.527 1120.08C438.399 1119.55 436.321 1118.84 434.319 1117.94C436.481 1118.25 438.618 1118.71 440.714 1119.33C442.771 1119.85 445.239 1120.49 448.194 1120.97C451.148 1121.46 454.439 1122.28 458.179 1122.69C461.919 1123.11 465.996 1123.82 470.409 1124.04C474.822 1124.26 479.497 1124.53 484.471 1124.64C495.225 1124.59 505.956 1123.66 516.56 1121.87C527.15 1119.94 537.569 1117.17 547.713 1113.57C552.314 1111.74 556.764 1110.13 560.728 1108.22C564.693 1106.31 568.433 1104.48 571.948 1102.8C575.464 1101.11 578.156 1099.28 580.737 1097.75C582.961 1096.5 585.121 1095.14 587.207 1093.67C588.92 1092.37 590.733 1091.21 592.63 1090.19Z" fill="#263238"/>
<path d="M593.079 907.049H564.244V920.7H593.079V907.049Z" fill="white"/>
<path d="M609.422 864.676C609.983 864.676 608.899 885.769 607.066 911.65C605.233 937.53 603.326 958.548 602.765 958.511C602.204 958.474 603.289 937.418 605.121 911.537C606.954 885.657 608.786 864.639 609.422 864.676Z" fill="#263238"/>
<path d="M361.39 961.428H88.9729V1020.93H361.39V961.428Z" fill="#FF725E"/>
<path d="M379.753 1021.57H70.7969V1259.84H379.753V1021.57Z" fill="#FF725E"/>
<path d="M302.336 1258.19C302 1258.19 301.7 1205.08 301.7 1139.56C301.7 1074.04 302 1020.93 302.336 1020.93C302.673 1020.93 302.935 1074.04 302.935 1139.56C302.935 1205.08 302.673 1258.19 302.336 1258.19Z" fill="#263238"/>
<path d="M368.982 1205.65H329.862V1244.77H368.982V1205.65Z" fill="#F5F5F5"/>
<path opacity="0.3" d="M199.937 1021.57H164.856V1072.43H199.937V1021.57Z" fill="white"/>
<path opacity="0.3" d="M200.124 1209.01H165.043V1259.87H200.124V1209.01Z" fill="white"/>
<path opacity="0.3" d="M379.753 1020.93H302.336V1260.51H379.753V1020.93Z" fill="black"/>
<path d="M378.706 1021.57C378.706 1022.13 309.891 1022.54 225.032 1022.54C140.173 1022.54 71.3206 1022.13 71.3206 1021.57C71.3206 1021.01 140.135 1020.59 225.032 1020.59C309.928 1020.59 378.706 1021.04 378.706 1021.57Z" fill="#263238"/>
<path opacity="0.3" d="M361.39 961.428H285.133V1020.52H361.39V961.428Z" fill="black"/>
<path d="M284.534 1020.14C283.573 1010.59 283.248 1000.98 283.562 991.385C283.246 981.787 283.571 972.179 284.534 962.625C285.52 972.178 285.845 981.787 285.507 991.385C285.843 1000.98 285.518 1010.59 284.534 1020.14Z" fill="#263238"/>
<path d="M207.305 961.428H168.97V979.455H207.305V961.428Z" fill="white"/>
<path d="M222.638 962.588C222.589 962.303 222.589 962.012 222.638 961.727L222.937 959.147C223.199 956.94 223.685 953.649 224.583 949.423C226.995 937.474 231.571 926.067 238.084 915.763C240.318 912.366 242.819 909.152 245.564 906.152C248.35 902.711 251.686 899.753 255.437 897.4C257.563 896.124 260.036 895.549 262.506 895.755C263.808 895.977 265.034 896.521 266.073 897.337C267.111 898.154 267.929 899.217 268.452 900.43C270.083 905.266 270.201 910.485 268.789 915.39C266.029 925.847 260.331 935.295 252.371 942.616C243.877 950.257 234.542 956.907 224.546 962.438L223.162 963.261L222.601 963.597L222.077 963.223C212.837 956.663 204.087 949.438 195.898 941.606C188.219 934.265 181.889 925.632 177.198 916.1C176.005 913.845 175.112 911.444 174.543 908.957C173.933 906.461 174.157 903.834 175.178 901.477C175.684 900.269 176.476 899.202 177.486 898.368C178.496 897.534 179.693 896.958 180.975 896.69C183.457 896.435 185.946 897.1 187.969 898.56C189.807 899.857 191.489 901.363 192.981 903.048C194.477 904.618 195.86 906.227 197.207 907.798C199.769 910.846 202.166 914.03 204.387 917.334C211.177 927.268 216.388 938.194 219.833 949.722C220.739 952.847 221.475 956.018 222.04 959.222L222.414 961.727C222.43 962.014 222.43 962.301 222.414 962.588C222.414 962.588 222.414 962.326 222.152 961.765L221.591 959.296C221.105 957.127 220.319 953.948 219.048 949.947C215.396 938.645 210.117 927.936 203.378 918.157C201.15 914.916 198.754 911.795 196.197 908.807C194.851 907.236 193.467 905.666 191.971 904.17C190.547 902.577 188.94 901.159 187.184 899.944C185.509 898.728 183.446 898.169 181.387 898.373C180.384 898.578 179.446 899.026 178.657 899.678C177.868 900.33 177.251 901.166 176.861 902.113C174.954 906.152 176.861 911.051 178.918 915.352C183.56 924.778 189.813 933.322 197.394 940.597C205.503 948.347 214.165 955.496 223.311 961.989H222.227L223.611 961.166C233.48 955.701 242.701 949.14 251.099 941.606C258.828 934.589 264.383 925.504 267.106 915.427C268.514 910.884 268.514 906.02 267.106 901.477C266.693 900.505 266.041 899.652 265.211 898.998C264.38 898.345 263.399 897.911 262.356 897.737C260.249 897.561 258.141 898.059 256.335 899.158C252.722 901.414 249.491 904.229 246.761 907.498C244.032 910.432 241.531 913.57 239.281 916.886C232.738 926.981 228.017 938.145 225.331 949.872C224.359 954.023 223.76 957.352 223.349 959.483L222.9 961.989L222.638 962.588Z" fill="#263238"/>
<path d="M380.65 1126.92C380.65 1127.44 311.387 1127.89 226.004 1127.89C140.621 1127.89 71.3579 1127.44 71.3579 1126.92C71.3579 1126.4 140.584 1125.95 226.004 1125.95C311.424 1125.95 380.65 1126.36 380.65 1126.92Z" fill="#263238"/>
<path d="M223.237 1263.69C222.713 1263.69 222.264 1195.55 222.264 1111.51C222.264 1027.48 222.713 959.296 223.237 959.296C223.76 959.296 224.209 1027.44 224.209 1111.51C224.209 1195.59 223.798 1263.69 223.237 1263.69Z" fill="#263238"/>
</svg>
