<svg width="208" height="135" viewBox="0 0 208 135" fill="none" xmlns="http://www.w3.org/2000/svg">
<path d="M73.792 19.432C73.792 19.944 73.6427 20.392 73.344 20.776C72.6187 20.4773 71.7013 20.328 70.592 20.328C66.2827 20.328 61.9947 21.8 57.728 24.744C53.4613 27.688 49.664 31.6133 46.336 36.52C43.0507 41.384 40.5973 46.632 38.976 52.264C38.3787 54.2693 37.9733 56.0613 37.76 57.64C37.5893 59.2187 37.4613 61.0747 37.376 63.208C37.3333 63.8053 37.2053 64.2533 36.992 64.552C36.7787 64.8507 36.4373 65 35.968 65C34.2187 65 33.0667 65.0213 32.512 65.064C31.9573 65.1493 31.2107 65.4267 30.272 65.896C30.0587 65.5973 29.952 65.3627 29.952 65.192C31.7013 63.016 33.216 59.7093 34.496 55.272C35.776 50.792 36.416 46.376 36.416 42.024C36.416 38.6533 35.9893 35.5813 35.136 32.808C34.2827 29.992 33.0027 27.752 31.296 26.088C29.5893 24.424 27.4987 23.592 25.024 23.592C23.1467 23.592 21.5253 24.0827 20.16 25.064C18.8373 26.0453 17.6 27.4533 16.448 29.288C16.1067 28.9893 15.872 28.7333 15.744 28.52C15.5733 28.264 15.488 27.88 15.488 27.368C15.488 26.2587 15.8933 25.1067 16.704 23.912C17.5573 22.6747 18.752 21.6507 20.288 20.84C21.824 20.0293 23.5947 19.624 25.6 19.624C29.9093 19.624 33.28 21.5653 35.712 25.448C38.1867 29.288 39.6373 34.152 40.064 40.04C40.1067 40.5093 40.128 41.192 40.128 42.088C42.0053 38.2907 44.608 34.4293 47.936 30.504C51.264 26.536 54.848 23.2507 58.688 20.648C62.5707 18.0453 66.1973 16.744 69.568 16.744C70.9333 16.744 71.9573 16.9573 72.64 17.384C73.3227 17.8107 73.7067 18.408 73.792 19.176V19.432ZM97.3805 50.024C98.0205 50.1947 98.3618 50.5787 98.4045 51.176C98.4045 52.2 97.5938 53.9067 95.9725 56.296C94.3512 58.6427 92.3458 60.7547 89.9565 62.632C87.5672 64.5093 85.1778 65.448 82.7885 65.448C81.1672 65.448 79.8872 64.9787 78.9485 64.04C78.0525 63.0587 77.6045 61.7573 77.6045 60.136C77.6045 59.5813 77.6472 59.1333 77.7325 58.792C76.7938 60.328 75.5565 61.7787 74.0205 63.144C72.5272 64.4667 71.0552 65.128 69.6045 65.128C68.3672 65.128 67.1512 64.6373 65.9565 63.656C64.7618 62.6747 64.0365 61.672 63.7805 60.648C63.7378 58.728 63.9938 56.5307 64.5485 54.056C65.1458 51.5813 66.4685 46.7813 68.5165 39.656C68.7725 38.8453 69.0712 38.44 69.4125 38.44C69.7538 38.44 70.2018 38.6107 70.7565 38.952C71.3112 39.2933 71.5885 39.6347 71.5885 39.976C71.5885 40.1467 71.5245 40.3813 71.3965 40.68C71.3112 40.9787 71.2472 41.2133 71.2045 41.384C68.4738 50.6 67.0445 56.7013 66.9165 59.688C67.1298 60.2427 67.5778 60.8187 68.2605 61.416C68.9858 61.9707 69.6045 62.248 70.1165 62.248C70.6712 62.248 71.4392 61.928 72.4205 61.288C73.4018 60.6053 74.4472 59.5173 75.5565 58.024C76.6658 56.488 77.6898 54.504 78.6285 52.072C79.7378 49.128 80.9752 44.8187 82.3405 39.144C82.4258 38.6747 82.6605 38.44 83.0445 38.44C83.3858 38.44 83.8338 38.632 84.3885 39.016C84.9858 39.3573 85.2845 39.7627 85.2845 40.232C85.2845 40.616 85.0925 41.384 84.7085 42.536C84.3245 43.688 84.0898 44.4133 84.0045 44.712C82.9805 47.6987 82.1485 50.344 81.5085 52.648C80.9112 54.9093 80.6125 56.936 80.6125 58.728C80.6125 61.5013 81.5725 62.888 83.4925 62.888C84.7298 62.888 86.1592 62.376 87.7805 61.352C89.4018 60.2853 91.0445 58.7707 92.7085 56.808C94.4152 54.8453 95.9725 52.584 97.3805 50.024ZM125.52 49.384C125.947 49.384 126.245 49.576 126.416 49.96C126.629 50.3013 126.736 50.7067 126.736 51.176C126.736 52.712 125.925 54.6533 124.304 57C122.683 59.3467 120.613 61.3947 118.096 63.144C115.621 64.8933 113.168 65.768 110.736 65.768C109.2 65.768 108.005 65.384 107.152 64.616C106.341 63.848 105.936 62.6747 105.936 61.096C105.936 58.92 106.533 55.976 107.728 52.264C108.923 48.5093 110.011 45.3947 110.992 42.92C110.821 42.664 110.651 42.536 110.48 42.536C110.309 42.536 110.117 42.6 109.904 42.728C109.136 43.1973 107.877 44.2427 106.128 45.864C104.379 47.4853 102.672 49.192 101.008 50.984C99.344 52.776 98.2133 54.2267 97.616 55.336C96.9333 57.1707 96.5067 58.344 96.336 58.856C96.1653 59.3253 95.9947 60.1147 95.824 61.224L95.248 64.104C95.2053 64.232 95.1627 64.4027 95.12 64.616C95.0773 64.7867 95.0133 64.8933 94.928 64.936C94.8853 64.9787 94.8 65 94.672 65C94.288 65 93.776 64.9573 93.136 64.872C92.5387 64.7867 92.24 64.6587 92.24 64.488C92.24 63.976 92.3893 63.144 92.688 61.992C92.9867 60.84 93.2853 59.7947 93.584 58.856C93.8827 57.9173 94.1173 57.192 94.288 56.68L94.864 54.888C96.1013 50.6213 96.9333 47.528 97.36 45.608C97.8293 43.6453 98.2773 41.4693 98.704 39.08C98.7467 38.6533 99.0453 38.44 99.6 38.44C99.984 38.44 100.411 38.5467 100.88 38.76C101.392 38.9307 101.691 39.1867 101.776 39.528C101.605 40.296 101.285 41.5973 100.816 43.432C100.389 45.2667 99.856 47.2933 99.216 49.512C101.691 46.7387 104.251 44.2213 106.896 41.96C109.584 39.6987 111.376 38.568 112.272 38.568C112.699 38.568 113.211 38.7813 113.808 39.208C114.405 39.6347 114.768 40.04 114.896 40.424C113.531 44.0933 112.229 48.104 110.992 52.456C109.755 56.7653 109.136 59.6027 109.136 60.968C109.136 62.4613 109.989 63.208 111.696 63.208C114.213 63.208 116.752 61.8 119.312 58.984C121.915 56.168 123.984 52.968 125.52 49.384ZM154.02 49.384C154.447 49.384 154.745 49.576 154.916 49.96C155.129 50.3013 155.236 50.7067 155.236 51.176C155.236 52.712 154.425 54.6533 152.804 57C151.183 59.3467 149.113 61.3947 146.596 63.144C144.121 64.8933 141.668 65.768 139.236 65.768C137.7 65.768 136.505 65.384 135.652 64.616C134.841 63.848 134.436 62.6747 134.436 61.096C134.436 58.92 135.033 55.976 136.228 52.264C137.423 48.5093 138.511 45.3947 139.492 42.92C139.321 42.664 139.151 42.536 138.98 42.536C138.809 42.536 138.617 42.6 138.404 42.728C137.636 43.1973 136.377 44.2427 134.628 45.864C132.879 47.4853 131.172 49.192 129.508 50.984C127.844 52.776 126.713 54.2267 126.116 55.336C125.433 57.1707 125.007 58.344 124.836 58.856C124.665 59.3253 124.495 60.1147 124.324 61.224L123.748 64.104C123.705 64.232 123.663 64.4027 123.62 64.616C123.577 64.7867 123.513 64.8933 123.428 64.936C123.385 64.9787 123.3 65 123.172 65C122.788 65 122.276 64.9573 121.636 64.872C121.039 64.7867 120.74 64.6587 120.74 64.488C120.74 63.976 120.889 63.144 121.188 61.992C121.487 60.84 121.785 59.7947 122.084 58.856C122.383 57.9173 122.617 57.192 122.788 56.68L123.364 54.888C124.601 50.6213 125.433 47.528 125.86 45.608C126.329 43.6453 126.777 41.4693 127.204 39.08C127.247 38.6533 127.545 38.44 128.1 38.44C128.484 38.44 128.911 38.5467 129.38 38.76C129.892 38.9307 130.191 39.1867 130.276 39.528C130.105 40.296 129.785 41.5973 129.316 43.432C128.889 45.2667 128.356 47.2933 127.716 49.512C130.191 46.7387 132.751 44.2213 135.396 41.96C138.084 39.6987 139.876 38.568 140.772 38.568C141.199 38.568 141.711 38.7813 142.308 39.208C142.905 39.6347 143.268 40.04 143.396 40.424C142.031 44.0933 140.729 48.104 139.492 52.456C138.255 56.7653 137.636 59.6027 137.636 60.968C137.636 62.4613 138.489 63.208 140.196 63.208C142.713 63.208 145.252 61.8 147.812 58.984C150.415 56.168 152.484 52.968 154.02 49.384ZM187.64 50.216C188.195 50.216 188.472 50.7707 188.472 51.88C188.472 53.8427 187.597 55.912 185.848 58.088C184.141 60.264 182.051 62.0987 179.576 63.592C177.144 65.0427 174.904 65.768 172.856 65.768C171.192 65.768 169.912 65.256 169.016 64.232C168.12 63.208 167.587 61.8853 167.416 60.264C166.349 61.8 165.005 63.0587 163.384 64.04C161.763 65.0213 160.312 65.512 159.032 65.512C157.923 65.512 156.813 65.1493 155.704 64.424C154.637 63.656 153.763 62.7387 153.08 61.672C152.397 60.5627 152.035 59.5173 151.992 58.536L155.128 45.608C155.384 44.584 156.024 43.496 157.048 42.344C158.115 41.1493 159.395 40.168 160.888 39.4C162.381 38.632 163.896 38.248 165.432 38.248C167.395 38.248 169.123 38.9093 170.616 40.232C171 39.208 171.277 38.568 171.448 38.312C171.661 38.056 171.96 37.9067 172.344 37.864L175.48 37.544L175.672 37.672C174.819 38.3547 174.2 39.4213 173.816 40.872C172.493 45.8213 171.576 49.4693 171.064 51.816C170.595 54.1627 170.36 56.232 170.36 58.024C170.36 59.816 170.595 61.1387 171.064 61.992C171.533 62.8027 172.323 63.208 173.432 63.208C174.797 63.208 176.419 62.6533 178.296 61.544C180.216 60.4347 182.029 58.8987 183.736 56.936C185.443 54.9307 186.744 52.6907 187.64 50.216ZM159.288 62.504C160.013 62.504 160.888 62.248 161.912 61.736C162.979 61.224 163.96 60.4987 164.856 59.56C165.795 58.5787 166.435 57.4693 166.776 56.232L167.992 50.984C168.163 50.1307 168.461 48.7653 168.888 46.888C169.315 44.968 169.656 43.496 169.912 42.472C168.717 41.2773 167.267 40.68 165.56 40.68C164.237 40.68 163.043 41.0427 161.976 41.768C160.909 42.4507 160.035 43.304 159.352 44.328C158.669 45.3093 158.243 46.184 158.072 46.952L155.512 58.344C155.597 59.4107 156.024 60.3707 156.792 61.224C157.56 62.0773 158.392 62.504 159.288 62.504Z" fill="#3D3D3D"/>
<path d="M43.6562 80.7754C43.4089 79.584 42.9531 78.6595 42.2891 78.002C41.6315 77.3444 40.8405 77.0156 39.916 77.0156C39.0111 77.0156 38.3079 77.2305 37.8066 77.6602C37.3118 78.0898 37.0645 78.6628 37.0645 79.3789C37.0645 79.776 37.1003 80.1048 37.1719 80.3652C37.2435 80.6257 37.39 80.8796 37.6113 81.127C37.8327 81.3678 38.1549 81.5827 38.5781 81.7715C39.0013 81.9538 39.5547 82.1296 40.2383 82.2988C40.6094 82.39 40.9316 82.4746 41.2051 82.5527C41.485 82.6309 41.791 82.7383 42.123 82.875C42.4616 83.0117 42.7513 83.1582 42.9922 83.3145C43.2396 83.4707 43.4837 83.666 43.7246 83.9004C43.972 84.1283 44.1706 84.3822 44.3203 84.6621C44.4766 84.9421 44.6003 85.2741 44.6914 85.6582C44.7891 86.0358 44.8379 86.4492 44.8379 86.8984C44.8379 87.4974 44.7272 88.0508 44.5059 88.5586C44.2845 89.0599 43.9948 89.4831 43.6367 89.8281C43.2786 90.1732 42.8652 90.4661 42.3965 90.707C41.9277 90.9479 41.4525 91.1237 40.9707 91.2344C40.4889 91.3451 40.0104 91.4004 39.5352 91.4004C38.0898 91.4004 36.5501 91.026 34.916 90.2773C34.9486 89.5742 34.9648 89.1413 34.9648 88.9785C34.9648 87.9173 34.877 86.8594 34.7012 85.8047C34.7728 85.7591 34.8444 85.7363 34.916 85.7363C35.0072 85.7363 35.0885 85.7591 35.1602 85.8047C35.2969 86.6445 35.5215 87.3867 35.834 88.0312C36.153 88.6758 36.5176 89.1868 36.9277 89.5645C37.3379 89.9355 37.7611 90.2155 38.1973 90.4043C38.64 90.5866 39.0859 90.6777 39.5352 90.6777C40.5573 90.6777 41.3418 90.4141 41.8887 89.8867C42.4421 89.3529 42.7188 88.6497 42.7188 87.7773C42.7188 86.8984 42.5137 86.2376 42.1035 85.7949C41.6999 85.3457 40.9251 84.9811 39.7793 84.7012C38.347 84.3431 37.2272 83.8158 36.4199 83.1191C35.6191 82.416 35.2188 81.4883 35.2188 80.3359C35.2188 79.7305 35.3164 79.1901 35.5117 78.7148C35.7135 78.2331 35.9707 77.849 36.2832 77.5625C36.6022 77.2695 36.9733 77.0286 37.3965 76.8398C37.8197 76.6445 38.2363 76.5111 38.6465 76.4395C39.0632 76.3613 39.4863 76.3223 39.916 76.3223C41.2051 76.3223 42.5462 76.6217 43.9395 77.2207C43.9004 77.6048 43.8809 78.0052 43.8809 78.4219C43.8809 79.3984 43.959 80.1829 44.1152 80.7754C44.0306 80.8079 43.959 80.8242 43.9004 80.8242C43.8353 80.8242 43.7539 80.8079 43.6562 80.7754ZM51.957 90.5996C51.9961 90.6777 52.0156 90.7591 52.0156 90.8438C52.0156 90.9089 51.9961 90.9805 51.957 91.0586C51.0977 91.0195 50.2643 91 49.457 91C48.6628 91 47.8359 91.0195 46.9766 91.0586C46.9505 90.9544 46.9375 90.8828 46.9375 90.8438C46.9375 90.8112 46.9505 90.7298 46.9766 90.5996C47.1914 90.5736 47.3672 90.5475 47.5039 90.5215C47.6406 90.4889 47.8099 90.4401 48.0117 90.375C48.2135 90.3099 48.3665 90.2188 48.4707 90.1016C48.5749 89.9779 48.6302 89.8314 48.6367 89.6621C48.6628 89.0176 48.6758 88.2363 48.6758 87.3184C48.6758 87.0124 48.6725 86.4915 48.666 85.7559C48.6595 85.0202 48.6562 84.3757 48.6562 83.8223C48.2852 83.5944 47.6602 83.4609 46.7812 83.4219C46.7552 83.3177 46.7422 83.2363 46.7422 83.1777C46.7422 83.1387 46.7552 83.0671 46.7812 82.9629C48.0443 82.8327 49.1445 82.5658 50.082 82.1621C50.2448 82.2272 50.3587 82.3118 50.4238 82.416V83.959C51.0553 83.4056 51.6608 82.9629 52.2402 82.6309C52.8197 82.2923 53.4056 82.123 53.998 82.123C54.7402 82.123 55.2643 82.3314 55.5703 82.748C55.8828 83.1647 56.0456 83.8158 56.0586 84.7012L56.1562 89.6621C56.1628 89.8314 56.2116 89.9779 56.3027 90.1016C56.4004 90.2188 56.5371 90.3099 56.7129 90.375C56.8952 90.4401 57.0449 90.4889 57.1621 90.5215C57.2793 90.5475 57.4323 90.5736 57.6211 90.5996C57.6471 90.7298 57.6602 90.8177 57.6602 90.8633C57.6602 90.9154 57.6471 90.9805 57.6211 91.0586C56.7812 91.0195 56.0065 91 55.2969 91C54.6068 91 53.8418 91.0195 53.002 91.0586C52.9759 90.9544 52.9629 90.8763 52.9629 90.8242C52.9629 90.7786 52.9759 90.7038 53.002 90.5996C53.1712 90.5736 53.3112 90.5475 53.4219 90.5215C53.5391 90.4889 53.6693 90.4401 53.8125 90.375C53.9622 90.3099 54.0729 90.2188 54.1445 90.1016C54.2227 89.9779 54.2617 89.8314 54.2617 89.6621L54.2812 85.0234C54.2812 83.8451 53.9264 83.2559 53.2168 83.2559C52.5527 83.2559 51.6217 83.6986 50.4238 84.584C50.4238 86.4785 50.4499 88.1712 50.502 89.6621C50.5085 89.8314 50.5573 89.9779 50.6484 90.1016C50.7461 90.2188 50.8828 90.3099 51.0586 90.375C51.2344 90.4401 51.3809 90.4889 51.498 90.5215C51.6152 90.5475 51.7682 90.5736 51.957 90.5996ZM59.8281 84.584C59.8281 83.8678 60.1536 83.2786 60.8047 82.8164C61.4622 82.3542 62.237 82.123 63.1289 82.123C64.2227 82.123 64.9909 82.3411 65.4336 82.7773C65.8828 83.2135 66.1074 83.9492 66.1074 84.9844V89.0371C66.1074 89.4017 66.2409 89.584 66.5078 89.584C66.7227 89.584 66.9961 89.3236 67.3281 88.8027C67.5625 88.8223 67.722 88.9264 67.8066 89.1152C67.7611 89.1803 67.6829 89.2975 67.5723 89.4668C67.4616 89.6361 67.3802 89.7565 67.3281 89.8281C67.276 89.8997 67.1947 90.0104 67.084 90.1602C66.9733 90.3034 66.8822 90.4108 66.8105 90.4824C66.7454 90.554 66.6543 90.6387 66.5371 90.7363C66.4264 90.834 66.3223 90.9089 66.2246 90.9609C66.1335 91.0065 66.026 91.0456 65.9023 91.0781C65.7786 91.1172 65.6549 91.1367 65.5312 91.1367C65.2057 91.1367 64.9355 91.0195 64.7207 90.7852C64.5124 90.5508 64.3887 90.1895 64.3496 89.7012C64.3431 89.7077 64.2422 89.8021 64.0469 89.9844C63.8516 90.1667 63.7148 90.2904 63.6367 90.3555C63.5651 90.4141 63.4251 90.5215 63.2168 90.6777C63.015 90.8275 62.8424 90.9349 62.6992 91C62.556 91.0651 62.377 91.127 62.1621 91.1855C61.9473 91.2507 61.7357 91.2832 61.5273 91.2832C61.1953 91.2832 60.8991 91.2376 60.6387 91.1465C60.3848 91.0553 60.1862 90.9447 60.043 90.8145C59.8997 90.6842 59.7826 90.5345 59.6914 90.3652C59.6003 90.1895 59.5384 90.0299 59.5059 89.8867C59.4798 89.7435 59.4668 89.6003 59.4668 89.457C59.4668 89.0208 59.5384 88.653 59.6816 88.3535C59.8314 88.054 60.1048 87.7741 60.502 87.5137C60.9056 87.2533 61.4004 87.0221 61.9863 86.8203C62.5723 86.6185 63.36 86.3906 64.3496 86.1367V84.7793C64.3496 84.1217 64.2031 83.6302 63.9102 83.3047C63.6237 82.9792 63.2363 82.8164 62.748 82.8164C62.3118 82.8164 61.944 82.9043 61.6445 83.0801C61.3516 83.2493 61.1725 83.4479 61.1074 83.6758C61.7454 83.7734 62.0645 84.1217 62.0645 84.7207C62.0645 84.9941 61.9668 85.235 61.7715 85.4434C61.5762 85.6517 61.3027 85.7559 60.9512 85.7559C60.6582 85.7559 60.3978 85.6549 60.1699 85.4531C59.9421 85.2448 59.8281 84.9551 59.8281 84.584ZM64.3496 88.8027V86.7617C63.7507 86.8984 63.2559 87.0482 62.8652 87.2109C62.4746 87.3672 62.1751 87.5397 61.9668 87.7285C61.765 87.9173 61.625 88.1126 61.5469 88.3145C61.4688 88.5098 61.4297 88.7376 61.4297 88.998C61.4297 89.3236 61.5241 89.5807 61.7129 89.7695C61.9082 89.9518 62.1458 90.043 62.4258 90.043C63.0768 90.043 63.7181 89.6296 64.3496 88.8027ZM76.9277 88.4609C77.084 88.4935 77.2109 88.5651 77.3086 88.6758C76.9831 89.5482 76.4785 90.2025 75.7949 90.6387C75.1113 91.0684 74.3691 91.2832 73.5684 91.2832C73.1712 91.2832 72.7839 91.2311 72.4062 91.127C72.0286 91.0293 71.6608 90.8665 71.3027 90.6387C70.9512 90.4108 70.6419 90.1309 70.375 89.7988C70.1146 89.4603 69.903 89.0404 69.7402 88.5391C69.584 88.0312 69.5059 87.4714 69.5059 86.8594C69.5059 85.4466 69.9388 84.304 70.8047 83.4316C71.6706 82.5592 72.7513 82.123 74.0469 82.123C74.9583 82.123 75.7005 82.3216 76.2734 82.7188C76.8529 83.1094 77.1426 83.6107 77.1426 84.2227C77.1426 84.5677 77.0286 84.8542 76.8008 85.082C76.5729 85.3099 76.293 85.4238 75.9609 85.4238C75.6094 85.4238 75.3262 85.3229 75.1113 85.1211C74.8965 84.9128 74.7891 84.6719 74.7891 84.3984C74.7891 83.9036 75.0397 83.5911 75.541 83.4609C75.4954 83.3112 75.349 83.1582 75.1016 83.002C74.8542 82.8392 74.5026 82.7578 74.0469 82.7578C73.8125 82.7578 73.5911 82.7871 73.3828 82.8457C73.1745 82.8978 72.9499 83.0117 72.709 83.1875C72.4746 83.3633 72.2728 83.5944 72.1035 83.8809C71.9408 84.1673 71.804 84.5677 71.6934 85.082C71.5827 85.5898 71.5273 86.1823 71.5273 86.8594C71.5273 87.3151 71.5729 87.7285 71.6641 88.0996C71.7617 88.4707 71.9115 88.806 72.1133 89.1055C72.3151 89.4049 72.5918 89.6393 72.9434 89.8086C73.2949 89.9779 73.7083 90.0625 74.1836 90.0625C74.4831 90.0625 74.7663 90.0234 75.0332 89.9453C75.3001 89.8607 75.515 89.7728 75.6777 89.6816C75.847 89.5905 76.026 89.4538 76.2148 89.2715C76.4102 89.0827 76.5404 88.9492 76.6055 88.8711C76.6706 88.7865 76.778 88.6497 76.9277 88.4609ZM84.7109 90.5996C85.2839 90.541 85.5703 90.388 85.5703 90.1406C85.5703 89.9974 85.4987 89.8379 85.3555 89.6621L82.6895 86.2441H82.2109C82.2109 87.8001 82.2305 88.9395 82.2695 89.6621C82.2695 89.8314 82.3118 89.9779 82.3965 90.1016C82.4876 90.2188 82.6178 90.3099 82.7871 90.375C82.9629 90.4401 83.1061 90.4889 83.2168 90.5215C83.334 90.5475 83.487 90.5736 83.6758 90.5996C83.7148 90.6777 83.7344 90.7591 83.7344 90.8438C83.7344 90.9284 83.7148 91 83.6758 91.0586C82.8164 91.0195 82.0026 91 81.2344 91C80.4401 91 79.6133 91.0195 78.7539 91.0586C78.7279 90.9544 78.7148 90.8828 78.7148 90.8438C78.7148 90.8112 78.7279 90.7298 78.7539 90.5996C78.9688 90.5736 79.1413 90.5475 79.2715 90.5215C79.4082 90.4889 79.5775 90.4401 79.7793 90.375C79.9876 90.3099 80.1439 90.2188 80.248 90.1016C80.3522 89.9779 80.4076 89.8314 80.4141 89.6621C80.4401 89.0176 80.4499 86.9863 80.4434 83.5684C80.4368 80.1439 80.4336 78.2266 80.4336 77.8164C80.0625 77.6016 79.4375 77.4681 78.5586 77.416C78.526 77.3314 78.5098 77.2533 78.5098 77.1816C78.5098 77.1165 78.526 77.0417 78.5586 76.957C79.7956 76.8398 80.8926 76.5729 81.8496 76.1562C82.0254 76.2279 82.1393 76.3158 82.1914 76.4199L82.2109 85.6191H82.7188L84.6914 83.7441C84.8151 83.6009 84.877 83.4544 84.877 83.3047C84.877 83.0312 84.5677 82.862 83.9492 82.7969C83.9232 82.6927 83.9102 82.6211 83.9102 82.582C83.9102 82.5234 83.9232 82.4421 83.9492 82.3379C84.7956 82.377 85.4694 82.3965 85.9707 82.3965C86.5176 82.3965 87.2109 82.377 88.0508 82.3379C88.0768 82.416 88.0898 82.4844 88.0898 82.543C88.0898 82.582 88.0768 82.6667 88.0508 82.7969C87.4714 82.862 86.9928 82.9596 86.6152 83.0898C86.2376 83.2135 85.8958 83.4316 85.5898 83.7441L84.0371 85.3164L87.4746 89.6621C87.8652 90.1699 88.4512 90.4824 89.2324 90.5996C89.2585 90.7298 89.2715 90.8177 89.2715 90.8633C89.2715 90.9154 89.2585 90.9805 89.2324 91.0586C88.3926 91.0195 87.6341 91 86.957 91C86.2995 91 85.5508 91.0195 84.7109 91.0586C84.6849 90.9544 84.6719 90.8763 84.6719 90.8242C84.6719 90.7786 84.6849 90.7038 84.7109 90.5996ZM104.389 82.543C104.363 82.4388 104.35 82.3639 104.35 82.3184C104.35 82.2402 104.363 82.1621 104.389 82.084C105.268 82.123 105.84 82.1426 106.107 82.1426C106.726 82.1426 107.52 82.123 108.49 82.084C108.516 82.1621 108.529 82.2272 108.529 82.2793C108.529 82.3118 108.516 82.3997 108.49 82.543C108.054 82.5951 107.725 82.6927 107.504 82.8359C107.289 82.9792 107.097 83.1875 106.928 83.4609C106.654 83.8841 106.283 84.5417 105.814 85.4336C105.346 86.319 104.844 87.1491 104.311 87.9238C104.395 88.0215 104.555 88.2331 104.789 88.5586C105.03 88.8776 105.225 89.125 105.375 89.3008C105.531 89.4766 105.74 89.6491 106 89.8184C106.267 89.9811 106.537 90.0625 106.811 90.0625C107.162 90.0625 107.445 89.9551 107.66 89.7402C107.882 89.5189 108.077 89.1999 108.246 88.7832C108.461 88.7832 108.614 88.8223 108.705 88.9004C108.627 89.2324 108.533 89.5221 108.422 89.7695C108.318 90.0169 108.171 90.2676 107.982 90.5215C107.794 90.7689 107.536 90.9609 107.211 91.0977C106.892 91.2344 106.518 91.3027 106.088 91.3027C105.912 91.3027 105.769 91.2962 105.658 91.2832C105.554 91.2767 105.391 91.2376 105.17 91.166C104.955 91.1009 104.757 91.0065 104.574 90.8828C104.392 90.7526 104.174 90.5573 103.92 90.2969C103.673 90.0299 103.428 89.7109 103.188 89.3398C102.738 89.7565 102.305 90.1048 101.889 90.3848C101.472 90.6582 101.085 90.86 100.727 90.9902C100.368 91.1139 100.062 91.1953 99.8086 91.2344C99.5547 91.2799 99.2878 91.3027 99.0078 91.3027C98.4609 91.3027 97.9661 91.2246 97.5234 91.0684C97.0872 90.9121 96.7292 90.7135 96.4492 90.4727C96.1693 90.2253 95.9349 89.9421 95.7461 89.623C95.5573 89.2975 95.4238 88.9753 95.3457 88.6562C95.2676 88.3372 95.2285 88.0182 95.2285 87.6992C95.2285 87.4583 95.2513 87.2077 95.2969 86.9473C95.349 86.6868 95.4466 86.3906 95.5898 86.0586C95.7331 85.7201 95.9186 85.3978 96.1465 85.0918C96.3743 84.7858 96.6868 84.4733 97.084 84.1543C97.4811 83.8288 97.9368 83.5456 98.4512 83.3047C98.1387 82.9987 97.8945 82.748 97.7188 82.5527C97.5495 82.3574 97.3737 82.1263 97.1914 81.8594C97.0156 81.5859 96.8887 81.306 96.8105 81.0195C96.7389 80.7266 96.7031 80.401 96.7031 80.043C96.7031 79.2227 97.0189 78.5326 97.6504 77.9727C98.2819 77.4062 99.0534 77.123 99.9648 77.123C100.844 77.123 101.537 77.3444 102.045 77.7871C102.553 78.2298 102.807 78.8939 102.807 79.7793C102.807 80.4954 102.605 81.1009 102.201 81.5957C101.798 82.0905 101.205 82.5592 100.424 83.002C101.14 83.7246 101.732 84.3822 102.201 84.9746C102.67 85.5671 103.24 86.3483 103.91 87.3184C104.854 85.8665 105.378 84.5807 105.482 83.4609C105.495 83.3828 105.499 83.2819 105.492 83.1582C105.492 82.9889 105.408 82.8555 105.238 82.7578C105.069 82.6602 104.786 82.5885 104.389 82.543ZM102.768 88.6562C102.195 87.7253 101.641 86.9212 101.107 86.2441C100.574 85.5605 99.8737 84.7663 99.0078 83.8613C98.4805 84.0892 98.0345 84.5026 97.6699 85.1016C97.3053 85.7005 97.123 86.4069 97.123 87.2207C97.123 88.0671 97.3835 88.7148 97.9043 89.1641C98.4251 89.6133 99.0924 89.8379 99.9062 89.8379C101.078 89.8379 102.032 89.444 102.768 88.6562ZM99.9062 82.5234C100.368 82.2826 100.779 81.9342 101.137 81.4785C101.501 81.0163 101.684 80.4629 101.684 79.8184C101.684 79.2129 101.527 78.7604 101.215 78.4609C100.902 78.1549 100.518 78.002 100.062 78.002C99.5352 78.002 99.1283 78.194 98.8418 78.5781C98.5553 78.9622 98.4121 79.444 98.4121 80.0234C98.4121 80.8698 98.9102 81.7031 99.9062 82.5234Z" fill="#3D3D3D"/>
<path d="M102.201 98.3223C102.715 98.3223 103.227 98.3581 103.734 98.4297C104.249 98.4948 104.74 98.5762 105.209 98.6738C105.684 98.765 106.133 98.8561 106.557 98.9473C106.98 99.0384 107.361 99.1035 107.699 99.1426C107.621 99.377 107.582 99.7904 107.582 100.383C107.582 101.535 107.755 102.535 108.1 103.381C108.061 103.498 107.94 103.57 107.738 103.596L107.318 102.697C107.11 102.248 106.859 101.805 106.566 101.369C106.273 100.926 105.922 100.533 105.512 100.188C105.102 99.8359 104.623 99.5527 104.076 99.3379C103.536 99.123 102.911 99.0156 102.201 99.0156C101.589 99.0156 101.046 99.1165 100.57 99.3184C100.095 99.5202 99.6784 99.7936 99.3203 100.139C98.9622 100.477 98.6595 100.874 98.4121 101.33C98.1647 101.779 97.9629 102.258 97.8066 102.766C97.6569 103.273 97.5462 103.794 97.4746 104.328C97.4095 104.862 97.377 105.38 97.377 105.881C97.377 106.714 97.4844 107.512 97.6992 108.273C97.9206 109.035 98.2624 109.709 98.7246 110.295C99.1868 110.874 99.7728 111.337 100.482 111.682C101.199 112.027 102.051 112.199 103.041 112.199C104.936 112.199 106.368 111.607 107.338 110.422C107.442 110.422 107.527 110.451 107.592 110.51C107.663 110.568 107.699 110.64 107.699 110.725C107.387 111.187 107.006 111.587 106.557 111.926C106.114 112.264 105.642 112.544 105.141 112.766C104.639 112.98 104.132 113.14 103.617 113.244C103.109 113.348 102.637 113.4 102.201 113.4C101.726 113.4 101.212 113.348 100.658 113.244C100.111 113.146 99.5612 112.98 99.0078 112.746C98.4609 112.512 97.9336 112.206 97.4258 111.828C96.9245 111.444 96.4785 110.975 96.0879 110.422C95.6973 109.862 95.3848 109.208 95.1504 108.459C94.916 107.71 94.7988 106.851 94.7988 105.881C94.7988 104.904 94.916 104.042 95.1504 103.293C95.3848 102.538 95.6973 101.88 96.0879 101.32C96.485 100.76 96.9375 100.292 97.4453 99.9141C97.9596 99.5299 98.4902 99.2207 99.0371 98.9863C99.584 98.7454 100.131 98.5762 100.678 98.4785C101.225 98.3743 101.732 98.3223 102.201 98.3223ZM110.316 106.584C110.316 105.868 110.642 105.279 111.293 104.816C111.951 104.354 112.725 104.123 113.617 104.123C114.711 104.123 115.479 104.341 115.922 104.777C116.371 105.214 116.596 105.949 116.596 106.984V111.037C116.596 111.402 116.729 111.584 116.996 111.584C117.211 111.584 117.484 111.324 117.816 110.803C118.051 110.822 118.21 110.926 118.295 111.115C118.249 111.18 118.171 111.298 118.061 111.467C117.95 111.636 117.868 111.757 117.816 111.828C117.764 111.9 117.683 112.01 117.572 112.16C117.462 112.303 117.37 112.411 117.299 112.482C117.234 112.554 117.143 112.639 117.025 112.736C116.915 112.834 116.811 112.909 116.713 112.961C116.622 113.007 116.514 113.046 116.391 113.078C116.267 113.117 116.143 113.137 116.02 113.137C115.694 113.137 115.424 113.02 115.209 112.785C115.001 112.551 114.877 112.189 114.838 111.701C114.831 111.708 114.73 111.802 114.535 111.984C114.34 112.167 114.203 112.29 114.125 112.355C114.053 112.414 113.913 112.521 113.705 112.678C113.503 112.827 113.331 112.935 113.188 113C113.044 113.065 112.865 113.127 112.65 113.186C112.436 113.251 112.224 113.283 112.016 113.283C111.684 113.283 111.387 113.238 111.127 113.146C110.873 113.055 110.674 112.945 110.531 112.814C110.388 112.684 110.271 112.535 110.18 112.365C110.089 112.189 110.027 112.03 109.994 111.887C109.968 111.743 109.955 111.6 109.955 111.457C109.955 111.021 110.027 110.653 110.17 110.354C110.32 110.054 110.593 109.774 110.99 109.514C111.394 109.253 111.889 109.022 112.475 108.82C113.061 108.618 113.848 108.391 114.838 108.137V106.779C114.838 106.122 114.691 105.63 114.398 105.305C114.112 104.979 113.725 104.816 113.236 104.816C112.8 104.816 112.432 104.904 112.133 105.08C111.84 105.249 111.661 105.448 111.596 105.676C112.234 105.773 112.553 106.122 112.553 106.721C112.553 106.994 112.455 107.235 112.26 107.443C112.064 107.652 111.791 107.756 111.439 107.756C111.146 107.756 110.886 107.655 110.658 107.453C110.43 107.245 110.316 106.955 110.316 106.584ZM114.838 110.803V108.762C114.239 108.898 113.744 109.048 113.354 109.211C112.963 109.367 112.663 109.54 112.455 109.729C112.253 109.917 112.113 110.113 112.035 110.314C111.957 110.51 111.918 110.738 111.918 110.998C111.918 111.324 112.012 111.581 112.201 111.77C112.396 111.952 112.634 112.043 112.914 112.043C113.565 112.043 114.206 111.63 114.838 110.803ZM122.309 102.463C122.374 102.437 122.449 102.424 122.533 102.424C122.618 102.424 122.706 102.437 122.797 102.463V104.602H125.756C125.795 104.699 125.814 104.82 125.814 104.963C125.814 105.087 125.795 105.201 125.756 105.305H122.797V110.52C122.797 111.548 123.269 112.062 124.213 112.062C124.571 112.062 124.877 111.994 125.131 111.857C125.391 111.721 125.678 111.516 125.99 111.242C126.153 111.262 126.26 111.34 126.312 111.477C126.026 111.991 125.603 112.421 125.043 112.766C124.483 113.111 123.868 113.283 123.197 113.283C121.622 113.283 120.834 112.329 120.834 110.422V105.305H119.633C119.607 105.188 119.594 105.113 119.594 105.08C119.594 105.074 119.607 104.999 119.633 104.855C119.945 104.699 120.183 104.572 120.346 104.475C120.515 104.37 120.727 104.224 120.98 104.035C121.241 103.846 121.475 103.625 121.684 103.371C121.898 103.111 122.107 102.808 122.309 102.463ZM135.023 107.824H129.701C129.675 108.215 129.662 108.56 129.662 108.859C129.682 109.829 129.965 110.607 130.512 111.193C131.059 111.773 131.791 112.062 132.709 112.062C132.956 112.062 133.188 112.036 133.402 111.984C133.617 111.926 133.793 111.861 133.93 111.789C134.073 111.717 134.219 111.613 134.369 111.477C134.519 111.34 134.626 111.232 134.691 111.154C134.763 111.07 134.857 110.946 134.975 110.783C135.092 110.614 135.17 110.507 135.209 110.461C135.365 110.493 135.492 110.565 135.59 110.676C135.264 111.548 134.76 112.202 134.076 112.639C133.393 113.068 132.65 113.283 131.85 113.283C131.452 113.283 131.065 113.231 130.688 113.127C130.316 113.029 129.955 112.867 129.604 112.639C129.252 112.411 128.946 112.131 128.686 111.799C128.425 111.46 128.217 111.04 128.061 110.539C127.904 110.031 127.826 109.471 127.826 108.859C127.826 107.486 128.246 106.353 129.086 105.461C129.926 104.569 130.958 104.123 132.182 104.123C132.722 104.123 133.191 104.201 133.588 104.357C133.992 104.507 134.304 104.712 134.525 104.973C134.753 105.233 134.919 105.52 135.023 105.832C135.134 106.138 135.189 106.467 135.189 106.818C135.189 107.144 135.134 107.479 135.023 107.824ZM131.947 104.758C131.498 104.758 131.072 104.956 130.668 105.354C130.271 105.751 129.984 106.353 129.809 107.16H133.324C133.389 106.913 133.422 106.698 133.422 106.516C133.422 106.008 133.305 105.588 133.07 105.256C132.836 104.924 132.462 104.758 131.947 104.758ZM137.133 104.963C138.396 104.833 139.496 104.566 140.434 104.162C140.596 104.227 140.71 104.312 140.775 104.416V106.096C141.016 105.64 141.374 105.197 141.85 104.768C142.331 104.338 142.833 104.123 143.354 104.123C143.744 104.123 144.06 104.24 144.301 104.475C144.548 104.702 144.672 105.018 144.672 105.422C144.672 105.806 144.558 106.105 144.33 106.32C144.102 106.535 143.816 106.643 143.471 106.643C143.152 106.643 142.888 106.542 142.68 106.34C142.478 106.132 142.367 105.858 142.348 105.52C142.074 105.637 141.762 105.897 141.41 106.301C141.065 106.704 140.854 107.105 140.775 107.502C140.775 108.954 140.801 110.34 140.854 111.662C140.86 111.831 140.922 111.978 141.039 112.102C141.156 112.219 141.329 112.31 141.557 112.375C141.785 112.44 141.973 112.489 142.123 112.521C142.273 112.548 142.468 112.574 142.709 112.6C142.748 112.678 142.768 112.759 142.768 112.844C142.768 112.909 142.748 112.98 142.709 113.059C141.732 113.02 140.766 113 139.809 113C139.014 113 138.188 113.02 137.328 113.059C137.302 112.954 137.289 112.883 137.289 112.844C137.289 112.811 137.302 112.73 137.328 112.6C137.543 112.574 137.719 112.548 137.855 112.521C137.992 112.489 138.161 112.44 138.363 112.375C138.565 112.31 138.718 112.219 138.822 112.102C138.926 111.978 138.982 111.831 138.988 111.662C139.014 111.018 139.027 110.236 139.027 109.318C139.027 109.012 139.024 108.492 139.018 107.756C139.011 107.02 139.008 106.376 139.008 105.822C138.637 105.594 138.012 105.461 137.133 105.422C137.107 105.318 137.094 105.236 137.094 105.178C137.094 105.139 137.107 105.067 137.133 104.963ZM145.922 104.963C147.185 104.833 148.285 104.566 149.223 104.162C149.385 104.227 149.499 104.312 149.564 104.416C149.564 107.795 149.59 110.21 149.643 111.662C149.649 111.831 149.698 111.978 149.789 112.102C149.887 112.219 150.023 112.31 150.199 112.375C150.375 112.44 150.521 112.489 150.639 112.521C150.756 112.548 150.909 112.574 151.098 112.6C151.137 112.678 151.156 112.759 151.156 112.844C151.156 112.928 151.137 113 151.098 113.059C150.238 113.02 149.405 113 148.598 113C147.803 113 146.977 113.02 146.117 113.059C146.091 112.954 146.078 112.883 146.078 112.844C146.078 112.811 146.091 112.73 146.117 112.6C146.332 112.574 146.508 112.548 146.645 112.521C146.781 112.489 146.951 112.44 147.152 112.375C147.354 112.31 147.507 112.219 147.611 112.102C147.715 111.978 147.771 111.831 147.777 111.662C147.803 111.018 147.816 110.236 147.816 109.318C147.816 109.012 147.813 108.492 147.807 107.756C147.8 107.02 147.797 106.376 147.797 105.822C147.426 105.594 146.801 105.461 145.922 105.422C145.896 105.318 145.883 105.236 145.883 105.178C145.883 105.139 145.896 105.067 145.922 104.963ZM147.455 100.881C147.455 100.549 147.572 100.266 147.807 100.031C148.048 99.7969 148.331 99.6797 148.656 99.6797C148.988 99.6797 149.271 99.7969 149.506 100.031C149.74 100.266 149.857 100.549 149.857 100.881C149.857 101.206 149.74 101.49 149.506 101.73C149.271 101.965 148.988 102.082 148.656 102.082C148.331 102.082 148.048 101.965 147.807 101.73C147.572 101.49 147.455 101.206 147.455 100.881ZM157.68 112.6C157.719 112.678 157.738 112.759 157.738 112.844C157.738 112.909 157.719 112.98 157.68 113.059C156.82 113.02 155.987 113 155.18 113C154.385 113 153.559 113.02 152.699 113.059C152.673 112.954 152.66 112.883 152.66 112.844C152.66 112.811 152.673 112.73 152.699 112.6C152.914 112.574 153.09 112.548 153.227 112.521C153.363 112.489 153.533 112.44 153.734 112.375C153.936 112.31 154.089 112.219 154.193 112.102C154.298 111.978 154.353 111.831 154.359 111.662C154.385 111.018 154.398 110.236 154.398 109.318C154.398 109.012 154.395 108.492 154.389 107.756C154.382 107.02 154.379 106.376 154.379 105.822C154.008 105.594 153.383 105.461 152.504 105.422C152.478 105.318 152.465 105.236 152.465 105.178C152.465 105.139 152.478 105.067 152.504 104.963C153.767 104.833 154.867 104.566 155.805 104.162C155.967 104.227 156.081 104.312 156.146 104.416V105.959C156.778 105.406 157.383 104.963 157.963 104.631C158.542 104.292 159.128 104.123 159.721 104.123C160.463 104.123 160.987 104.331 161.293 104.748C161.605 105.165 161.768 105.816 161.781 106.701L161.879 111.662C161.885 111.831 161.934 111.978 162.025 112.102C162.123 112.219 162.26 112.31 162.436 112.375C162.618 112.44 162.768 112.489 162.885 112.521C163.002 112.548 163.155 112.574 163.344 112.6C163.37 112.73 163.383 112.818 163.383 112.863C163.383 112.915 163.37 112.98 163.344 113.059C162.504 113.02 161.729 113 161.02 113C160.329 113 159.564 113.02 158.725 113.059C158.699 112.954 158.686 112.876 158.686 112.824C158.686 112.779 158.699 112.704 158.725 112.6C158.894 112.574 159.034 112.548 159.145 112.521C159.262 112.489 159.392 112.44 159.535 112.375C159.685 112.31 159.796 112.219 159.867 112.102C159.945 111.978 159.984 111.831 159.984 111.662L160.004 107.023C160.004 105.845 159.649 105.256 158.939 105.256C158.275 105.256 157.344 105.699 156.146 106.584C156.146 108.479 156.173 110.171 156.225 111.662C156.231 111.831 156.28 111.978 156.371 112.102C156.469 112.219 156.605 112.31 156.781 112.375C156.957 112.44 157.104 112.489 157.221 112.521C157.338 112.548 157.491 112.574 157.68 112.6ZM172.133 107.18C172.133 108.208 171.801 109.032 171.137 109.65C170.473 110.269 169.665 110.578 168.715 110.578C168.266 110.578 167.846 110.546 167.455 110.48C167.064 110.728 166.869 111.034 166.869 111.398C166.869 111.691 167.051 111.906 167.416 112.043C167.787 112.173 168.419 112.238 169.311 112.238C169.454 112.238 169.724 112.232 170.121 112.219C170.518 112.206 170.834 112.199 171.068 112.199C172.885 112.199 173.793 112.945 173.793 114.436C173.793 114.859 173.666 115.305 173.412 115.773C173.165 116.242 172.823 116.678 172.387 117.082C171.957 117.492 171.413 117.831 170.756 118.098C170.105 118.365 169.418 118.498 168.695 118.498C167.556 118.498 166.693 118.286 166.107 117.863C165.521 117.447 165.229 116.926 165.229 116.301C165.229 115.865 165.388 115.428 165.707 114.992C166.033 114.556 166.514 114.165 167.152 113.82C165.896 113.638 165.268 113.15 165.268 112.355C165.268 111.978 165.408 111.623 165.688 111.291C165.974 110.952 166.361 110.601 166.85 110.236C166.186 109.865 165.727 109.439 165.473 108.957C165.219 108.475 165.092 107.928 165.092 107.316C165.092 106.939 165.18 106.561 165.355 106.184C165.538 105.799 165.782 105.458 166.088 105.158C166.394 104.852 166.768 104.605 167.211 104.416C167.66 104.221 168.132 104.123 168.627 104.123C169.083 104.123 169.457 104.159 169.75 104.23C170.043 104.296 170.408 104.413 170.844 104.582C171.28 104.751 171.69 104.891 172.074 105.002C172.107 104.748 172.208 104.533 172.377 104.357C172.546 104.175 172.764 104.084 173.031 104.084C173.272 104.084 173.487 104.185 173.676 104.387C173.871 104.589 173.969 104.82 173.969 105.08C173.969 105.347 173.884 105.578 173.715 105.773C173.552 105.962 173.344 106.057 173.09 106.057C172.94 106.057 172.79 106.031 172.641 105.979C172.491 105.926 172.367 105.874 172.27 105.822C172.178 105.764 172.042 105.673 171.859 105.549C171.677 105.419 171.534 105.321 171.43 105.256L171.391 105.305C171.632 105.52 171.814 105.796 171.938 106.135C172.068 106.467 172.133 106.815 172.133 107.18ZM167.035 115.598C167.035 115.858 167.074 116.105 167.152 116.34C167.23 116.574 167.354 116.796 167.523 117.004C167.693 117.212 167.93 117.375 168.236 117.492C168.549 117.616 168.913 117.678 169.33 117.678C169.864 117.678 170.336 117.593 170.746 117.424C171.163 117.261 171.479 117.056 171.693 116.809C171.908 116.561 172.068 116.32 172.172 116.086C172.276 115.858 172.328 115.65 172.328 115.461C172.328 115.201 172.305 114.979 172.26 114.797C172.214 114.621 172.126 114.449 171.996 114.279C171.872 114.117 171.677 113.993 171.41 113.908C171.143 113.824 170.805 113.781 170.395 113.781C170.173 113.781 169.76 113.794 169.154 113.82C168.549 113.846 168.161 113.859 167.992 113.859C167.693 114.068 167.458 114.325 167.289 114.631C167.12 114.937 167.035 115.259 167.035 115.598ZM167.074 107.336C167.074 109.074 167.592 109.943 168.627 109.943C169.122 109.943 169.499 109.729 169.76 109.299C170.02 108.869 170.15 108.156 170.15 107.16C170.15 106.704 170.098 106.311 169.994 105.979C169.89 105.64 169.753 105.389 169.584 105.227C169.421 105.057 169.255 104.937 169.086 104.865C168.923 104.794 168.757 104.758 168.588 104.758C168.152 104.758 167.79 104.963 167.504 105.373C167.217 105.783 167.074 106.438 167.074 107.336Z" fill="#3D3D3D"/>
</svg>
