<svg width="600" height="564" viewBox="0 0 600 564" fill="none" xmlns="http://www.w3.org/2000/svg">
<path d="M328.993 446.546H191.222V552.808H328.993V446.546Z" fill="#EBEBEB"/>
<path d="M294.481 552.067C294.295 552.067 294.137 528.376 294.137 499.155C294.137 469.934 294.295 446.242 294.481 446.242C294.666 446.242 294.825 469.934 294.825 499.155C294.825 528.376 294.666 552.067 294.481 552.067Z" fill="#E0E0E0"/>
<path d="M317.312 528.627H306.756V540.572H317.312V528.627Z" fill="#FAFAFA"/>
<path d="M248.91 446.824H233.261V469.497H248.91V446.824Z" fill="#E0E0E0"/>
<path d="M248.91 529.817H233.261V552.49H248.91V529.817Z" fill="#E0E0E0"/>
<path d="M578.992 419.905H405.266V553.892H578.992V419.905Z" fill="#EBEBEB"/>
<path d="M535.458 552.94C535.272 552.94 535.114 523.084 535.114 486.244C535.114 449.403 535.272 419.547 535.458 419.547C535.643 419.547 535.802 449.403 535.802 486.244C535.802 523.084 535.656 552.94 535.458 552.94Z" fill="#E0E0E0"/>
<path d="M564.255 523.388H550.935V538.442H564.255V523.388Z" fill="#FAFAFA"/>
<path d="M477.995 420.249H458.258V448.835H477.995V420.249Z" fill="#E0E0E0"/>
<path d="M477.995 524.896H458.258V553.482H477.995V524.896Z" fill="#E0E0E0"/>
<path d="M78.055 423.847C85.0924 420.222 93.3732 419.746 101.178 421.042C105.371 421.73 109.736 422.987 112.594 426.135C115.451 429.283 115.98 434.826 112.713 437.538C110.755 439.152 108.043 439.39 105.503 439.363C99.392 439.284 92.6192 438.212 87.738 441.89C84.9469 443.993 83.0949 447.472 79.8011 448.504C76.5073 449.536 72.8696 447.591 71.1499 444.654C69.559 441.592 69.2085 438.034 70.171 434.72C70.5605 432.423 71.4745 430.248 72.8419 428.362C74.2093 426.476 75.9932 424.931 78.055 423.847Z" fill="#EBEBEB"/>
<path d="M61.9431 392.747C66.2422 398.885 74.6024 396.861 78.4783 393.104C82.3541 389.348 83.9944 383.924 85.4759 378.752C88.8888 366.913 92.3149 354.491 89.7883 342.441C89.18 338.786 87.5731 335.371 85.1452 332.572C83.9161 331.198 82.3491 330.169 80.5997 329.586C78.8502 329.004 76.9789 328.889 75.1712 329.252C70.9514 330.363 68.3323 334.543 66.4406 338.419C60.8635 350.006 57.944 362.692 57.8953 375.551C57.8953 381.543 58.5699 387.813 61.9431 392.747Z" fill="#EBEBEB"/>
<path d="M50.1436 401.557C54.8131 396.015 55.6994 387.945 53.6226 381.001C51.5458 374.056 46.8498 368.156 41.4395 363.328C35.0761 357.668 27.6717 353.301 19.6395 350.47C16.5264 349.212 13.1779 348.644 9.8242 348.803C8.15119 348.899 6.52691 349.402 5.09284 350.269C3.65876 351.136 2.4584 352.34 1.5963 353.777C-0.7054 358.156 1.5037 363.46 3.88476 367.799C8.07783 375.433 12.8635 382.727 18.1976 389.612C22.4968 395.142 27.4573 400.605 33.9523 403.105C40.4474 405.605 47.2995 405.314 50.7653 400.777" fill="#EBEBEB"/>
<path d="M61.652 485.371C61.8817 484.461 62.0147 483.53 62.0488 482.593C62.2473 480.556 62.4854 478.003 62.7896 474.973C63.1688 471.225 63.7383 467.499 64.496 463.809C65.49 459.297 66.8481 454.873 68.5571 450.581C70.2332 446.317 72.4997 442.309 75.2902 438.675C77.5715 435.72 80.4755 433.304 83.7959 431.598C86.0541 430.485 88.4737 429.735 90.9656 429.376C91.9036 429.339 92.8349 429.202 93.7435 428.966C92.8071 428.863 91.8622 428.863 90.9259 428.966C88.3382 429.161 85.8066 429.82 83.452 430.91C79.9457 432.564 76.871 435.01 74.4701 438.054C71.5495 441.735 69.1954 445.833 67.4856 450.21C65.7787 454.554 64.4509 459.038 63.5172 463.61C62.7975 467.348 62.2984 471.124 62.0224 474.92C61.7843 478.161 61.6917 480.781 61.652 482.593C61.5545 483.516 61.5545 484.447 61.652 485.371Z" fill="#E0E0E0"/>
<path d="M62.1811 479.524C62.2596 479.088 62.2863 478.644 62.2605 478.201C62.2605 477.222 62.2605 475.992 62.2605 474.497C62.2605 471.283 62.2605 466.626 62.4192 460.885C62.7102 449.403 63.742 437.075 65.6072 419.627C67.4195 403.237 69.8402 384.175 72.4065 371.781C72.9488 368.963 73.5044 366.423 74.0335 364.201C74.5627 361.978 74.9463 360.047 75.3563 358.499C75.7664 356.952 75.9913 355.854 76.2294 354.901C76.3588 354.471 76.4344 354.027 76.4543 353.579C76.255 353.964 76.104 354.373 76.0045 354.796C75.7135 355.735 75.3563 356.899 74.9198 358.341C74.4833 359.783 73.9542 361.793 73.3986 364.002C72.843 366.212 72.208 368.751 71.6128 371.569C68.435 386.228 66.0461 401.047 64.4564 415.963C62.5515 433.424 61.6917 449.324 61.6123 460.832C61.6123 466.587 61.6123 471.256 61.8107 474.471C61.9033 475.965 61.9827 477.196 62.0356 478.161C62.0292 478.62 62.078 479.077 62.1811 479.524Z" fill="#E0E0E0"/>
<path d="M62.2607 448.861C62.3615 447.571 62.3615 446.275 62.2607 444.985C62.1152 442.498 61.7712 438.913 61.0701 434.508C60.2049 429.358 59.0478 424.262 57.6044 419.243C55.9361 413.066 53.8002 407.026 51.2152 401.173C46.7893 390.39 40.4377 380.501 32.4709 371.992C31.0886 370.531 29.6127 369.161 28.0527 367.891C27.3781 367.309 26.7299 366.741 26.1743 366.291L24.534 365.114C23.5045 364.328 22.4116 363.629 21.2667 363.023C21.0815 363.275 25.8833 366.106 31.9418 372.548C39.6482 381.137 45.8309 390.979 50.2231 401.65C52.7636 407.464 54.907 413.443 56.6387 419.547C58.0934 424.52 59.2986 429.561 60.25 434.654C61.0437 439.006 61.5728 442.591 61.7845 445.025C61.841 446.314 62.0003 447.597 62.2607 448.861Z" fill="#E0E0E0"/>
<path d="M30.5659 498.281L33.6348 540.386H87.7247L90.7937 498.281H30.5659Z" fill="#EBEBEB"/>
<path d="M97.2358 481.693H25.3408V498.281H97.2358V481.693Z" fill="#EBEBEB"/>
<path d="M25.3408 538.773V543.363H28.7272H96.0585V538.773H25.3408Z" fill="#E0E0E0"/>
<path d="M32.0343 550.956L28.7273 542.86H93.4791L89.6164 550.956H32.0343Z" fill="#E0E0E0"/>
<path d="M89.7884 512.039C89.7209 512.181 89.6365 512.314 89.5371 512.435C89.3254 512.713 89.0476 513.07 88.7302 513.507L85.5819 517.475L85.4364 517.661L85.3041 517.475L77.5656 506.774H78.0021L70.3827 517.555L70.1446 517.899L69.8801 517.581L60.8452 506.827H61.3611L60.8717 507.462L52.7893 517.581L52.5115 517.925L52.2734 517.568L44.6408 506.787H45.0905L35.6985 517.475L35.5398 517.674L35.4075 517.449L32.4709 512.581C32.1534 512.052 31.9153 511.615 31.7169 511.258C31.6171 511.11 31.5371 510.95 31.4788 510.782C31.6025 510.909 31.7093 511.051 31.7962 511.205L32.6296 512.462L35.7118 517.317H35.4207L44.6804 506.496L44.9053 506.218L45.117 506.509L52.8158 517.251H52.3131L60.369 507.105C60.541 506.893 60.713 506.681 60.8585 506.483L61.123 506.152L61.3876 506.47L70.396 517.251H69.8933L77.5921 506.522L77.8169 506.205L78.0286 506.522C81.0843 510.875 83.677 514.565 85.6083 517.343H85.3305L88.6111 513.375C88.9683 512.965 89.2593 512.634 89.4842 512.356C89.5777 512.243 89.6794 512.137 89.7884 512.039Z" fill="#F5F5F5"/>
<path d="M91.5476 498.004C91.5476 498.189 77.9888 498.347 61.2816 498.347C44.5745 498.347 31.0156 498.189 31.0156 498.004C31.0156 497.818 44.5612 497.673 61.2816 497.673C78.002 497.673 91.5476 497.818 91.5476 498.004Z" fill="#F5F5F5"/>
<path d="M470.881 20.6673L459.796 20.7273L460.094 75.8879L471.179 75.8279L470.881 20.6673Z" fill="#E0E0E0"/>
<path d="M392.466 20.8142L363.762 20.9695L363.926 51.4202L392.631 51.2649L392.466 20.8142Z" fill="#EBEBEB"/>
<path d="M421.038 20.6596L392.333 20.8149L392.498 51.2657L421.203 51.1104L421.038 20.6596Z" fill="#F5F5F5"/>
<path d="M363.796 29.3965C382.88 29.5553 401.973 29.4671 421.074 29.132C421.155 29.132 421.232 29.0999 421.289 29.0428C421.346 28.9858 421.378 28.9084 421.378 28.8277C421.378 28.747 421.346 28.6696 421.289 28.6126C421.232 28.5555 421.155 28.5235 421.074 28.5235C401.999 28.4176 382.871 28.5235 363.796 28.8806C363.738 28.8939 363.685 28.9267 363.648 28.9736C363.611 29.0204 363.59 29.0786 363.59 29.1386C363.59 29.1985 363.611 29.2567 363.648 29.3036C363.685 29.3504 363.738 29.3832 363.796 29.3965Z" fill="#E0E0E0"/>
<path d="M398.026 50.7588L345.868 51.041L346.002 75.8567L398.16 75.5745L398.026 50.7588Z" fill="#EBEBEB"/>
<path d="M449.931 50.4781L397.773 50.7603L397.907 75.5759L450.065 75.2937L449.931 50.4781Z" fill="#F5F5F5"/>
<path d="M345.898 57.9694C380.543 58.353 415.306 57.9694 449.964 57.4535C450.045 57.4535 450.122 57.4214 450.179 57.3643C450.236 57.3073 450.268 57.2299 450.268 57.1492C450.268 57.0685 450.236 56.9911 450.179 56.9341C450.122 56.877 450.045 56.845 449.964 56.845C415.32 56.6598 380.543 56.673 345.898 57.4402C345.828 57.4402 345.761 57.4681 345.711 57.5177C345.662 57.5673 345.634 57.6346 345.634 57.7048C345.634 57.775 345.662 57.8423 345.711 57.8919C345.761 57.9415 345.828 57.9694 345.898 57.9694Z" fill="#E0E0E0"/>
<path d="M528.46 75.8801H326.387V84.7694H528.46V75.8801Z" fill="#E0E0E0"/>
<path d="M367.672 80.1528H359.47V110.485H367.672V80.1528Z" fill="#E0E0E0"/>
<path d="M490.125 80.1528H481.923V110.485H490.125V80.1528Z" fill="#E0E0E0"/>
<path d="M481.696 0.0921232L470.611 0.1521L471.021 76.0144L482.106 75.9544L481.696 0.0921232Z" fill="#EBEBEB"/>
<path d="M499.008 14.2186L481.785 14.3118L482.118 75.7953L499.341 75.7021L499.008 14.2186Z" fill="#F5F5F5"/>
<path d="M498.895 26.0894C493.17 26.4938 487.424 26.4938 481.699 26.0894C487.424 25.7026 493.17 25.7026 498.895 26.0894Z" fill="#E0E0E0"/>
<path d="M498.895 23.576C496.034 23.8655 493.157 23.9627 490.284 23.867C487.41 23.9622 484.533 23.865 481.672 23.576C487.397 23.1716 493.144 23.1716 498.869 23.576H498.895Z" fill="#E0E0E0"/>
<path d="M498.895 66.4749C493.17 66.8793 487.424 66.8793 481.699 66.4749C487.424 66.0881 493.17 66.0881 498.895 66.4749Z" fill="#E0E0E0"/>
<path d="M498.895 63.8956C493.17 64.2824 487.424 64.2824 481.699 63.8956C487.424 63.4912 493.17 63.4912 498.895 63.8956Z" fill="#E0E0E0"/>
<path d="M490.562 58.2603C490.403 58.2603 490.271 52.0563 490.271 44.4105C490.271 36.7646 490.403 30.5474 490.562 30.5474C490.72 30.5474 490.866 36.7514 490.866 44.4105C490.866 52.0696 490.733 58.2603 490.562 58.2603Z" fill="#E0E0E0"/>
<path d="M517.838 29.3435H499.094V75.7478H517.838V29.3435Z" fill="#EBEBEB"/>
<path d="M475.984 16.261C477.745 16.261 479.172 14.8337 479.172 13.073C479.172 11.3123 477.745 9.88501 475.984 9.88501C474.223 9.88501 472.796 11.3123 472.796 13.073C472.796 14.8337 474.223 16.261 475.984 16.261Z" fill="#E0E0E0"/>
<path d="M476.976 21.8433H475.005V66.9777H476.976V21.8433Z" fill="#E0E0E0"/>
<path d="M584.958 553.165C584.958 553.363 457.809 553.509 301.015 553.509C144.222 553.509 17.0469 553.363 17.0469 553.165C17.0469 552.967 144.169 552.821 301.015 552.821C457.862 552.821 584.958 552.98 584.958 553.165Z" fill="#263238"/>
<path d="M167.676 67.6921C173.914 75.3263 177.292 84.8984 177.226 94.7569C177.16 100.339 176.128 106.49 179.383 111.028C181.843 114.467 186.341 116.2 188.338 119.93C190.746 124.414 188.695 130.089 190.177 134.957C192.267 141.862 200.362 144.759 205.164 150.143C207.211 152.524 208.643 155.37 209.335 158.433C210.027 161.495 209.957 164.681 209.133 167.71C208.258 170.727 206.676 173.491 204.518 175.774C202.36 178.056 199.688 179.79 196.725 180.832C193.561 182.08 190.031 182.023 186.909 180.674C183.669 179.06 181.618 175.74 180.031 172.499C176.843 166.123 148.839 131.663 147.251 124.705" fill="#263238"/>
<path d="M147.304 59.5699C135.849 57.718 124.817 65.3242 120.015 75.8802C115.213 86.4363 115.054 98.3681 114.724 110.009C114.393 121.65 113.546 133.714 107.633 143.688C103.876 150.024 98.0561 155.593 97.1434 162.882C96.3232 169.416 99.7096 176.004 98.5852 182.499C97.6064 188.161 93.294 193.082 93.4659 198.809C93.6776 205.714 100.781 210.913 107.673 211.098C114.565 211.284 121.02 207.672 126.43 203.386C135.245 196.388 142.299 187.422 147.027 177.208" fill="#263238"/>
<path d="M128.454 86.8729C128.094 83.9913 128.317 81.0667 129.109 78.2729C129.901 75.479 131.246 72.8727 133.065 70.6086C134.884 68.3446 137.139 66.469 139.696 65.0932C142.253 63.7173 145.061 62.8692 147.953 62.5992C159.501 61.4881 169.779 70.0996 171.512 81.5816C173.033 91.6483 174.329 101.807 174.29 105.498C174.144 116.623 167.676 120.949 165.03 122.258C164.078 122.6 163.094 122.844 162.093 122.986V123.065L164.554 135.843C165.678 144.217 161.009 151.717 152.648 152.895C144.288 154.072 137.714 147.683 136.431 139.309L128.454 86.8729Z" fill="#FFBE9D"/>
<path d="M169.237 86.4497C169.051 86.7143 167.583 85.9338 165.705 86.2116C163.826 86.4894 162.57 87.627 162.331 87.4286C162.093 87.2302 162.331 86.8995 162.914 86.3703C163.637 85.6657 164.561 85.2034 165.559 85.0475C166.538 84.8965 167.539 85.0635 168.416 85.5237C169.078 85.947 169.329 86.3439 169.237 86.4497Z" fill="#263238"/>
<path d="M152.49 90.5239C152.305 90.7885 150.836 89.9948 148.945 90.2726C147.053 90.5504 145.823 91.7012 145.585 91.5028C145.347 91.3044 145.585 90.9605 146.167 90.4446C146.89 89.7399 147.815 89.2776 148.812 89.1217C149.792 88.9822 150.792 89.1534 151.67 89.6112C152.318 90.0212 152.582 90.4049 152.49 90.5239Z" fill="#263238"/>
<path d="M159.355 100.617C160.301 100.162 161.301 99.8283 162.332 99.6247C162.808 99.5057 163.244 99.3469 163.284 99.003C163.241 98.5197 163.057 98.0597 162.755 97.6802L160.784 94.1615C158.046 89.2406 155.995 85.1664 156.194 85.0473C156.392 84.9283 158.839 88.857 161.485 93.7779C162.16 94.9949 162.808 96.159 163.39 97.2569C163.774 97.7948 163.961 98.449 163.919 99.1088C163.875 99.2893 163.791 99.4573 163.671 99.5996C163.552 99.7418 163.401 99.8546 163.231 99.929C162.973 100.042 162.702 100.122 162.424 100.167C161.425 100.45 160.393 100.601 159.355 100.617Z" fill="#263238"/>
<path d="M161.988 122.999C161.988 122.999 154.805 124.652 144.91 120.512C144.91 120.512 149.183 129.706 162.662 126.438L161.988 122.999Z" fill="#EB996E"/>
<path d="M151.524 85.5898C151.418 86.1322 149.5 86.1586 147.331 86.7539C145.161 87.3492 143.455 88.1958 143.098 87.7857C142.939 87.5873 143.177 87.0582 143.825 86.4629C144.698 85.7164 145.729 85.1784 146.841 84.8896C147.953 84.6008 149.115 84.5689 150.241 84.7961C151.114 84.9946 151.524 85.3385 151.524 85.5898Z" fill="#263238"/>
<path d="M167.689 82.2828C167.425 82.759 166.062 82.5077 164.501 82.7061C162.94 82.9045 161.657 83.4204 161.287 83.0103C161.128 82.8119 161.287 82.3622 161.789 81.8727C162.483 81.2577 163.354 80.878 164.276 80.788C165.187 80.6782 166.11 80.849 166.922 81.2775C167.557 81.6346 167.808 82.0447 167.689 82.2828Z" fill="#263238"/>
<path d="M148.402 92.9578C148.431 93.1625 148.501 93.3594 148.607 93.537C148.712 93.7147 148.852 93.8695 149.019 93.9926C149.185 94.1157 149.374 94.2045 149.574 94.2539C149.775 94.3034 149.984 94.3124 150.188 94.2806C150.387 94.2577 150.579 94.1956 150.753 94.0978C150.928 94 151.081 93.8685 151.204 93.7109C151.327 93.5533 151.418 93.3729 151.47 93.18C151.523 92.9871 151.537 92.7857 151.511 92.5874C151.449 92.1755 151.226 91.805 150.891 91.557C150.557 91.3091 150.137 91.2039 149.725 91.2646C149.526 91.2857 149.333 91.3467 149.157 91.444C148.982 91.5413 148.828 91.6728 148.705 91.8308C148.581 91.9888 148.491 92.1699 148.439 92.3636C148.387 92.5572 148.375 92.7593 148.402 92.9578Z" fill="#263238"/>
<path d="M165.083 89.3465C165.145 89.7584 165.368 90.1289 165.703 90.3768C166.037 90.6248 166.457 90.7299 166.869 90.6693C167.067 90.6464 167.26 90.5843 167.434 90.4864C167.608 90.3886 167.762 90.2571 167.885 90.0996C168.008 89.942 168.098 89.7615 168.151 89.5687C168.204 89.3758 168.217 89.1743 168.192 88.9761C168.13 88.5642 167.907 88.1937 167.572 87.9457C167.237 87.6978 166.818 87.5926 166.406 87.6533C166.206 87.6744 166.013 87.7354 165.838 87.8327C165.663 87.93 165.509 88.0615 165.385 88.2195C165.262 88.3774 165.172 88.5586 165.12 88.7522C165.068 88.9458 165.055 89.1479 165.083 89.3465Z" fill="#263238"/>
<path d="M162.318 104.268C161.799 104.106 161.24 104.132 160.737 104.339C160.234 104.547 159.82 104.924 159.567 105.406C159.325 105.847 159.226 106.354 159.286 106.854C159.345 107.354 159.559 107.824 159.898 108.197C160.258 108.551 160.733 108.765 161.237 108.802C161.741 108.838 162.241 108.694 162.649 108.395C163.159 107.931 163.468 107.285 163.509 106.596C163.599 105.965 163.448 105.322 163.086 104.797C162.9 104.54 162.634 104.352 162.331 104.261C162.027 104.17 161.702 104.182 161.406 104.294" fill="#EB996E"/>
<path d="M170.044 72.5204C169.005 68.3292 166.414 64.6887 162.795 62.3347C159.832 60.1945 156.312 58.9586 152.662 58.7763C148.989 58.6182 145.402 59.9214 142.688 62.4008C140.761 64.3102 139.66 66.8982 139.619 69.6102L139.83 67.7582C139.275 69.2651 139.275 70.9209 139.83 72.4278C140.135 73.2347 140.505 74.0548 140.823 74.8617C141.77 77.1935 143.526 79.1053 145.77 80.2456C146.786 80.7906 147.924 81.0683 149.077 81.0525C149.654 81.0409 150.222 80.9035 150.74 80.6499C151.259 80.3963 151.716 80.0326 152.08 79.5842C152.901 78.1503 153.156 76.4609 152.794 74.8485C153.662 76.4418 154.901 77.803 156.405 78.817C157.174 79.3079 158.087 79.5194 158.993 79.4158C159.899 79.3122 160.742 78.8999 161.379 78.2481C162.464 76.9253 162.041 74.8353 161.379 73.195C162.402 74.7422 163.836 75.9742 165.52 76.7534C165.962 77.0075 166.453 77.1669 166.961 77.2216C167.469 77.2762 167.982 77.2249 168.469 77.0708C168.859 76.8778 169.199 76.5989 169.465 76.2552C169.731 75.9115 169.915 75.5119 170.004 75.0866C170.2 74.2438 170.214 73.3688 170.044 72.5204Z" fill="#263238"/>
<path d="M160.48 76.0391C160.36 76.0391 160.387 74.465 159.871 72.0707C159.276 68.8891 157.676 65.9821 155.307 63.7766C154.005 62.5926 152.434 61.7435 150.73 61.303C149.335 60.9605 147.882 60.9244 146.471 61.1971C145.171 61.5011 143.928 62.0149 142.793 62.7184C142.793 62.7184 143.018 62.3877 143.6 61.9644C144.436 61.3801 145.374 60.9582 146.365 60.7209C147.849 60.3736 149.392 60.3736 150.876 60.7209C152.704 61.1773 154.387 62.0872 155.77 63.3666C158.251 65.663 159.871 68.7392 160.36 72.0839C160.518 73.0727 160.597 74.0723 160.599 75.0735C160.615 75.3998 160.575 75.7265 160.48 76.0391Z" fill="#455A64"/>
<path d="M282.311 230.266L231.449 210.093C231.449 210.093 205.402 175.925 205.945 175.263L187.65 195.291L214.239 231.258L275.869 245.703L286.451 242.767C284.123 231.536 282.311 230.266 282.311 230.266Z" fill="#FFBE9D"/>
<path d="M171.459 132.788L164.527 130.142L134.605 133.939V139.23L133.746 139.336C127.296 140.707 121.109 143.11 115.425 146.452C110.1 149.703 105.869 154.472 103.276 160.146C100.683 165.819 99.8464 172.139 100.874 178.293C102.091 185.859 104.445 195.053 108.996 200.37C117.687 210.543 125.623 197.976 125.623 197.976C125.623 197.976 131.073 210.41 130.756 216.297C130.491 221.231 128.322 231.496 127.621 234.697C127.592 234.825 127.59 234.958 127.614 235.087C127.638 235.216 127.688 235.338 127.761 235.447C127.834 235.556 127.928 235.649 128.039 235.72C128.149 235.791 128.272 235.839 128.401 235.861L191.526 247.542L191.83 232.105L189.82 168.61L186.976 143.952C186.976 143.952 187.068 132.179 171.459 132.788Z" fill="#FF725E"/>
<path d="M186.01 139.852L210.085 174.628L190.706 198.227L186.01 139.852Z" fill="#FF725E"/>
<path d="M191.209 213.03C191.122 212.283 191.091 211.532 191.116 210.781C191.116 209.22 191.116 207.17 191.037 204.669C190.92 197.959 190.438 191.26 189.595 184.602C188.603 176.798 187.081 169.826 185.931 164.76L184.528 158.807C184.325 158.087 184.175 157.354 184.079 156.612C184.379 157.299 184.619 158.012 184.793 158.741C185.203 160.064 185.759 162.141 186.394 164.654C188.102 171.181 189.4 177.808 190.283 184.496C191.133 191.182 191.548 197.916 191.526 204.656C191.526 207.302 191.46 209.339 191.381 210.781C191.387 211.534 191.33 212.286 191.209 213.03Z" fill="#263238"/>
<path d="M131.946 160.157C131.946 160.263 130.121 160.249 127.197 160.395C123.383 160.602 119.589 161.093 115.848 161.863C112.107 162.648 108.429 163.705 104.842 165.025C102.09 166.043 100.437 166.797 100.384 166.692C100.723 166.426 101.097 166.208 101.495 166.043C102.223 165.646 103.307 165.144 104.67 164.575C111.808 161.627 119.436 160.048 127.158 159.919C128.639 159.919 129.803 159.919 130.663 159.998C131.097 159.984 131.529 160.038 131.946 160.157Z" fill="#FAFAFA"/>
<path d="M187.703 176.07C186.736 176.422 185.726 176.644 184.7 176.732C179.809 177.446 174.853 177.614 169.925 177.234C168.895 177.217 167.873 177.065 166.882 176.785C167.903 176.694 168.93 176.694 169.951 176.785C171.829 176.785 174.435 176.785 177.306 176.785C180.176 176.785 182.769 176.494 184.647 176.322C185.656 176.145 186.679 176.061 187.703 176.07Z" fill="#FAFAFA"/>
<path d="M198.749 160.342C197.291 162.027 195.544 163.438 193.59 164.509C191.745 165.756 189.687 166.652 187.518 167.154C187.439 166.969 190.164 165.832 193.233 163.874C196.302 161.916 198.616 160.183 198.749 160.342Z" fill="#FAFAFA"/>
<path d="M189.026 144.217C184.852 147.971 179.535 150.208 173.933 150.566C173.933 150.355 177.57 149.799 181.75 148.013C185.931 146.228 188.894 144.045 189.026 144.217Z" fill="#FAFAFA"/>
<path d="M190.336 203.003C189.946 203.264 189.529 203.482 189.092 203.651C188.259 204.048 187.055 204.537 185.521 205.106C181.534 206.539 177.419 207.584 173.232 208.228C169.045 208.874 164.805 209.109 160.572 208.929C158.945 208.863 157.636 208.744 156.736 208.625C156.265 208.594 155.799 208.509 155.347 208.373C155.347 208.254 157.358 208.373 160.638 208.453C169.049 208.531 177.416 207.245 185.415 204.643C188.431 203.651 190.296 202.897 190.336 203.003Z" fill="#FAFAFA"/>
<path d="M190.825 220.927C190.825 220.927 190.64 221.059 190.256 221.258L188.563 221.998C187.108 222.686 184.952 223.586 182.253 224.644C179.555 225.702 176.287 226.721 172.61 227.726C164.615 229.879 156.409 231.152 148.138 231.523C144.328 231.668 140.902 231.655 138.018 231.523C135.135 231.39 132.82 231.179 131.219 230.954L129.38 230.703C129.164 230.687 128.95 230.642 128.745 230.57C128.96 230.536 129.179 230.536 129.394 230.57L131.245 230.689C132.846 230.822 135.214 230.954 138.032 231.033C140.849 231.113 144.328 231.033 148.111 230.901C151.895 230.769 156.048 230.293 160.374 229.578C164.699 228.864 168.774 228.004 172.451 227.078C176.129 226.152 179.383 225.107 182.081 224.141C184.78 223.176 186.976 222.369 188.457 221.76L190.177 221.086C190.387 221.01 190.604 220.957 190.825 220.927Z" fill="#FAFAFA"/>
<path d="M74.8009 502.144L67.6445 534.46L54.5883 558.39C54.3663 558.799 54.2305 559.248 54.1892 559.712C54.1479 560.175 54.2021 560.642 54.3484 561.083C54.4947 561.524 54.73 561.931 55.0398 562.278C55.3495 562.625 55.7271 562.904 56.1492 563.099C56.6393 563.324 57.1761 563.428 57.7146 563.403C58.2532 563.378 58.7779 563.224 59.2446 562.954C65.3031 559.462 87.5396 546.458 87.9232 544.064C88.3862 541.299 97.7385 510.478 97.7385 510.478L74.8009 502.144Z" fill="#FF725E"/>
<g opacity="0.6">
<path d="M56.1492 563.099L88.4655 541.934L88.1216 543.257C87.8388 544.438 87.1447 545.479 86.1638 546.194C83.5182 548.085 76.1501 553.165 59.3504 562.98C58.8681 563.263 58.3233 563.422 57.7647 563.442C57.2062 563.463 56.6511 563.345 56.1492 563.099Z" fill="white"/>
</g>
<g opacity="0.6">
<path d="M84.4045 529.91C83.9377 530.105 83.5594 530.465 83.3421 530.921C83.1247 531.378 83.0838 531.899 83.2272 532.384C83.4038 532.856 83.7544 533.242 84.2071 533.464C84.6598 533.685 85.1801 533.725 85.6611 533.574C86.1608 533.368 86.5654 532.982 86.7954 532.492C87.0254 532.003 87.0643 531.445 86.9046 530.929C86.6703 530.46 86.2657 530.099 85.7738 529.92C85.2819 529.74 84.7398 529.756 84.259 529.963" fill="white"/>
</g>
<path d="M66.9434 550.85C66.4097 549.661 65.6608 548.58 64.7343 547.662C63.6672 546.919 62.4687 546.385 61.2024 546.088C61.2024 545.995 61.6654 545.85 62.4458 545.929C63.4614 546.06 64.4172 546.483 65.1973 547.146C65.9833 547.784 66.5632 548.64 66.864 549.607C67.0889 550.361 67.0228 550.85 66.9434 550.85Z" fill="#263238"/>
<path d="M63.5966 554.594C63.4114 554.699 62.6309 553.403 61.0832 552.517C60.096 552.058 59.0796 551.665 58.0408 551.34C58.6118 551.152 59.2192 551.104 59.8127 551.198C60.4062 551.293 60.9687 551.527 61.4536 551.882C63.213 552.9 63.7818 554.554 63.5966 554.594Z" fill="#263238"/>
<path d="M72.5521 546.379C71.4272 545.131 70.2065 543.972 68.9011 542.913C67.4629 542.036 65.9593 541.271 64.4036 540.625C66.1926 540.589 67.9365 541.189 69.3244 542.318C70.8546 543.238 72.0009 544.681 72.5521 546.379Z" fill="#263238"/>
<path d="M75.5549 536.736C75.4226 536.908 73.822 535.73 71.5864 535.082C69.3509 534.434 67.3269 534.54 67.3137 534.315C68.786 533.934 70.334 533.957 71.794 534.383C73.254 534.81 74.5717 535.622 75.6078 536.736H75.5549Z" fill="#263238"/>
<path d="M77.8964 527.304C76.606 526.506 75.2131 525.888 73.756 525.465C72.2549 525.261 70.733 525.261 69.2319 525.465C69.2319 525.386 69.642 525.068 70.4886 524.817C71.6014 524.515 72.7695 524.477 73.8996 524.707C75.0296 524.936 76.0903 525.427 76.9969 526.14C77.6715 526.775 77.9493 527.251 77.8964 527.304Z" fill="#263238"/>
<path d="M74.2454 523.68C74.2464 523.26 74.3366 522.845 74.51 522.463C74.8848 521.37 75.479 520.367 76.2561 519.513C76.7645 518.836 77.4797 518.344 78.2932 518.11C78.5702 518.065 78.8544 518.104 79.1091 518.222C79.3638 518.34 79.5773 518.531 79.7219 518.772C79.965 519.265 80.0168 519.83 79.8674 520.359C79.5282 521.42 78.8307 522.33 77.8944 522.934C76.9581 523.537 75.8411 523.796 74.7348 523.666C73.6439 523.511 72.6233 523.036 71.8018 522.302C70.9802 521.567 70.3944 520.606 70.1182 519.539C70.0547 519.268 70.049 518.987 70.1014 518.713C70.1538 518.44 70.2632 518.18 70.4225 517.952C70.6052 517.738 70.8512 517.589 71.1247 517.525C71.3982 517.46 71.6851 517.485 71.9437 517.595C72.6914 517.968 73.3295 518.528 73.7956 519.222C74.4967 520.139 75.0297 521.174 75.3698 522.277C75.5309 522.672 75.6076 523.095 75.5947 523.521C75.0614 522.095 74.3167 520.757 73.3856 519.552C72.952 518.987 72.3896 518.533 71.7453 518.23C71.6036 518.168 71.4458 518.154 71.2955 518.19C71.1453 518.226 71.0107 518.309 70.9119 518.428C70.8195 518.584 70.76 518.757 70.7373 518.937C70.7145 519.116 70.7289 519.299 70.7796 519.473C71.0556 520.371 71.5794 521.172 72.2908 521.785C73.0022 522.399 73.8723 522.798 74.801 522.939C75.7366 523.047 76.6815 522.836 77.4814 522.339C78.2814 521.841 78.8893 521.088 79.206 520.201C79.3341 519.841 79.3341 519.449 79.206 519.089C79.131 518.954 79.0153 518.845 78.8753 518.779C78.7353 518.712 78.578 518.691 78.4255 518.719C77.7361 518.908 77.1218 519.306 76.6662 519.857C75.6514 520.987 74.8332 522.279 74.2454 523.68Z" fill="#263238"/>
<g opacity="0.3">
<path d="M73.9278 505.649L72.3801 513.057L95.7807 516.946L97.7385 510.478L74.7612 502.144L73.9278 505.649Z" fill="black"/>
</g>
<path d="M179.303 514.102L177.372 539.924C177.372 539.924 202.982 550.506 203.088 555.374L152.821 553.43L154.143 513.057L179.303 514.102Z" fill="#FF725E"/>
<g opacity="0.6">
<path d="M161.961 537.146C161.473 537.276 161.05 537.582 160.772 538.003C160.494 538.425 160.381 538.934 160.453 539.434C160.564 539.926 160.859 540.357 161.277 540.64C161.694 540.922 162.204 541.035 162.702 540.955C163.221 540.818 163.67 540.493 163.963 540.043C164.257 539.594 164.373 539.052 164.289 538.521C164.122 538.019 163.767 537.601 163.299 537.354C162.83 537.108 162.285 537.052 161.776 537.199" fill="white"/>
</g>
<g opacity="0.6">
<path d="M152.847 553.43L153.138 549.355L201.222 552.702C201.222 552.702 203.431 553.76 203.114 555.348L152.847 553.43Z" fill="white"/>
</g>
<path d="M178.218 539.699C178.218 539.95 176.975 540.016 175.745 540.757C174.515 541.498 173.827 542.503 173.602 542.397C173.377 542.291 173.8 540.889 175.308 540.016C176.816 539.143 178.285 539.474 178.218 539.699Z" fill="#263238"/>
<path d="M183.404 542.12C183.404 542.371 182.372 542.741 181.499 543.747C180.626 544.752 180.348 545.837 180.097 545.824C179.846 545.81 179.753 544.408 180.864 543.178C181.975 541.948 183.404 541.855 183.404 542.12Z" fill="#263238"/>
<path d="M186.155 548.509C185.931 548.509 185.64 547.305 186.314 545.995C186.989 544.686 188.166 544.183 188.259 544.395C188.351 544.607 187.624 545.294 187.081 546.379C186.539 547.464 186.394 548.496 186.155 548.509Z" fill="#263238"/>
<path d="M177.98 533.772C177.875 533.984 176.763 533.6 175.335 533.64C173.906 533.68 172.848 534.077 172.689 533.865C172.53 533.653 173.642 532.82 175.335 532.794C177.028 532.767 178.139 533.587 177.98 533.772Z" fill="#263238"/>
<g opacity="0.3">
<path d="M178.946 519.222L178.602 523.825L153.932 522.635L154.104 517.317L178.946 519.222Z" fill="black"/>
</g>
<path d="M178.311 528.548C177.48 528.748 176.609 528.712 175.798 528.442C174.881 528.251 173.992 527.945 173.152 527.529C172.662 527.288 172.19 527.014 171.737 526.709C171.461 526.539 171.211 526.33 170.996 526.087C170.85 525.898 170.771 525.665 170.771 525.426C170.771 525.187 170.85 524.954 170.996 524.764C171.125 524.597 171.291 524.463 171.482 524.373C171.673 524.283 171.883 524.241 172.094 524.248C172.412 524.261 172.728 524.315 173.033 524.407C173.562 524.562 174.076 524.765 174.568 525.016C175.403 525.424 176.167 525.964 176.83 526.616C177.954 527.741 178.311 528.68 178.232 528.72C178.152 528.759 177.584 528.005 176.433 527.066C175.757 526.538 175.02 526.094 174.237 525.743C173.77 525.55 173.293 525.382 172.808 525.241C172.279 525.082 171.829 525.069 171.684 525.241C171.538 525.413 171.684 525.373 171.684 525.532C171.842 525.706 172.025 525.858 172.226 525.981C172.651 526.277 173.092 526.546 173.549 526.788C174.312 527.209 175.114 527.554 175.943 527.82C176.749 528.006 177.54 528.249 178.311 528.548Z" fill="#263238"/>
<path d="M177.981 528.891C177.541 528.15 177.342 527.29 177.412 526.431C177.417 525.5 177.569 524.576 177.862 523.693C178.051 523.175 178.286 522.675 178.563 522.198C178.711 521.871 178.941 521.587 179.231 521.374C179.52 521.161 179.859 521.026 180.216 520.981C180.442 520.996 180.659 521.074 180.842 521.208C181.024 521.341 181.165 521.524 181.248 521.735C181.363 522.032 181.434 522.344 181.46 522.661C181.546 523.222 181.546 523.793 181.46 524.354C181.283 525.289 180.878 526.166 180.282 526.907C179.25 528.23 178.219 528.428 178.192 528.349C178.166 528.27 178.986 527.78 179.793 526.55C180.256 525.849 180.558 525.054 180.679 524.222C180.746 523.739 180.746 523.249 180.679 522.767C180.613 522.238 180.428 521.788 180.229 521.841C180.031 521.894 179.541 522.211 179.317 522.634C179.058 523.058 178.833 523.5 178.642 523.957C178.336 524.756 178.14 525.593 178.06 526.444C177.888 527.926 178.113 528.891 177.981 528.891Z" fill="#263238"/>
<path d="M127.343 235.623C127.343 235.623 119.406 235.981 114.115 263.125C108.824 290.269 68.4912 510.213 68.4912 510.213L97.7386 510.478L152.847 301.367L149.183 516.986L178.893 519.261C178.893 519.261 201.183 280.771 201.381 266.895C201.646 249.592 191.711 232.092 191.711 232.092L127.343 235.623Z" fill="#263238"/>
<path d="M167.544 233.308C167.729 233.308 164.686 248.851 160.757 267.94C156.829 287.028 153.495 302.478 153.31 302.439C153.125 302.399 156.154 286.896 160.083 267.807C164.012 248.719 167.398 233.269 167.544 233.308Z" fill="#455A64"/>
<path d="M172.094 237.184C172.094 237.105 172.888 236.867 173.8 237.674C174.06 237.909 174.265 238.197 174.402 238.519C174.539 238.841 174.604 239.189 174.594 239.539C174.561 239.981 174.403 240.405 174.138 240.761C173.874 241.117 173.513 241.391 173.099 241.55C172.695 241.733 172.248 241.799 171.808 241.741C171.369 241.682 170.954 241.502 170.612 241.219C170.357 240.979 170.155 240.688 170.02 240.364C169.886 240.04 169.821 239.691 169.832 239.341C169.832 238.124 170.652 237.7 170.665 237.78C170.442 238.265 170.325 238.793 170.321 239.327C170.339 239.596 170.41 239.858 170.531 240.099C170.651 240.34 170.818 240.554 171.022 240.73C171.283 240.909 171.585 241.021 171.901 241.054C172.216 241.086 172.535 241.039 172.827 240.917C173.119 240.794 173.376 240.6 173.574 240.353C173.772 240.105 173.904 239.812 173.959 239.499C173.979 239.231 173.944 238.962 173.858 238.708C173.771 238.453 173.635 238.219 173.456 238.018C172.808 237.264 172.081 237.29 172.094 237.184Z" fill="#455A64"/>
<path d="M170.837 247.926C170.837 247.846 171.657 247.926 172.16 249.024C172.288 249.337 172.346 249.675 172.33 250.013C172.314 250.351 172.224 250.681 172.068 250.981C171.84 251.338 171.52 251.626 171.141 251.814C170.762 252.002 170.339 252.084 169.918 252.05C169.496 252.016 169.092 251.867 168.748 251.621C168.404 251.374 168.134 251.039 167.967 250.651C167.861 250.332 167.826 249.994 167.865 249.66C167.904 249.326 168.016 249.005 168.192 248.719C168.813 247.727 169.66 247.754 169.634 247.833C169.607 247.912 168.999 248.098 168.615 248.944C168.421 249.419 168.421 249.951 168.615 250.426C168.753 250.688 168.955 250.912 169.203 251.075C169.45 251.238 169.735 251.336 170.031 251.36C170.327 251.384 170.624 251.333 170.894 251.211C171.165 251.089 171.4 250.901 171.578 250.664C171.827 250.212 171.889 249.68 171.75 249.182C171.366 248.283 170.771 248.018 170.837 247.926Z" fill="#455A64"/>
<path d="M142.807 237.449C142.752 237.903 142.637 238.348 142.463 238.772C142.05 239.983 141.532 241.156 140.915 242.277C138.897 246.019 135.982 249.202 132.431 251.541C128.881 253.879 124.805 255.301 120.57 255.677C119.298 255.788 118.019 255.788 116.747 255.677C116.299 255.663 115.855 255.592 115.425 255.466C115.425 255.333 117.422 255.558 120.584 255.161C124.704 254.661 128.652 253.212 132.118 250.929C135.584 248.645 138.473 245.588 140.558 241.999C142.106 239.327 142.688 237.409 142.807 237.449Z" fill="#455A64"/>
<path d="M199.714 256.749C199.714 256.749 199.37 256.59 198.828 256.22C198.07 255.675 197.362 255.064 196.711 254.394C194.536 252.192 192.839 249.564 191.725 246.676C190.612 243.787 190.108 240.7 190.243 237.608C190.273 236.677 190.393 235.751 190.6 234.843C190.746 234.195 190.838 233.851 190.891 233.864C190.944 233.877 190.732 235.306 190.732 237.621C190.735 243.697 192.992 249.557 197.069 254.064C198.616 255.77 199.78 256.643 199.714 256.749Z" fill="#455A64"/>
<path d="M302.325 257.516C302.762 256.458 302.642 256.881 295.632 252.225C295.632 252.225 305.685 258.839 304.64 255.691C303.736 254.498 302.63 253.473 301.373 252.661C304.018 254.222 305.553 254.394 306.016 253.759C306.809 252.661 301.055 248.468 298.317 246.576C300.82 248.367 303.446 249.981 306.174 251.405C307.801 251.907 307.021 250.002 305.923 248.614C304.825 247.225 296.306 239.023 294.018 236.576C293.8 236.39 293.625 236.158 293.505 235.898C293.385 235.638 293.323 235.355 293.323 235.068C293.323 234.781 293.385 234.498 293.505 234.238C293.625 233.977 293.8 233.746 294.018 233.56C298.118 230.914 299.917 226.695 299.865 225.306C299.819 224.993 299.676 224.703 299.455 224.476C299.234 224.25 298.947 224.1 298.636 224.047C298.324 223.994 298.004 224.042 297.721 224.182C297.438 224.323 297.206 224.549 297.06 224.829C296.025 226.116 294.819 227.255 293.475 228.216C292.434 229.028 291.262 229.659 290.01 230.081C288.555 230.557 281.398 230.16 279.864 229.38L274.982 245.928C274.982 245.928 292.695 254.209 296.055 255.823C300.182 257.781 302.021 258.323 302.325 257.516Z" fill="#FFBE9D"/>
<path d="M292.444 249.778C292.298 249.976 294.6 251.656 297.576 253.548C300.552 255.439 303.053 256.802 303.172 256.603C303.291 256.405 300.989 254.712 298.026 252.833C295.063 250.955 292.576 249.526 292.444 249.778Z" fill="#EB996E"/>
<path d="M294.11 246.537C293.978 246.735 296.333 248.666 299.402 250.862C302.47 253.058 305.01 254.685 305.143 254.5C305.275 254.315 302.933 252.37 299.851 250.174C296.769 247.978 294.256 246.351 294.11 246.537Z" fill="#EB996E"/>
<path d="M295.87 243.256C295.737 243.441 297.933 245.32 300.777 247.436C303.621 249.553 306.069 251.114 306.174 250.928C306.28 250.743 304.124 248.865 301.28 246.748C298.436 244.632 296.015 243.071 295.87 243.256Z" fill="#EB996E"/>
<path d="M115.716 183.319L128.706 184.034C129.626 187.66 130.856 191.201 132.383 194.616C142.846 176.467 150.902 152.141 152.966 142.365C152.675 141.404 152.318 140.319 151.895 139.111C151.578 137.284 151.632 135.413 152.053 133.608C152.41 131.439 153.019 128.502 153.191 127.153C153.76 123.025 154.421 122.364 155.837 122.84C157.794 123.475 155.03 134.441 156.63 134.679C157.503 134.798 158.548 131.042 158.866 127.96C159.183 124.877 160.559 115.406 161.578 114.731C163.072 113.805 164.369 115.274 163.998 118.343C163.628 121.412 163.138 130.711 164.766 130.83C166.393 130.949 167.715 115.234 167.715 115.234C167.715 115.234 167.464 111.821 169.342 111.901C172.742 112.046 170.096 128.621 169.805 130.195C169.594 131.28 171.366 131.518 171.525 130.301C171.684 129.084 172.504 114.573 175.957 114.692C178.602 114.784 173.906 128.343 175.401 131.491C176.896 134.64 177.928 120.816 180.467 121.001C181.407 121.081 182.108 121.266 180.375 129.084C178.684 135.3 176.657 141.421 174.303 147.418C170.335 169.112 152.622 238.507 124.949 225.808C109.472 218.705 102.236 183.478 102.236 183.478L115.716 183.319Z" fill="#FFBE9D"/>
<path d="M174.329 147.537C174.352 147.373 174.397 147.213 174.462 147.061C174.581 146.717 174.726 146.267 174.925 145.738C175.361 144.481 175.956 142.735 176.737 140.447C177.517 138.158 178.457 135.38 179.383 132.1C179.859 130.473 180.256 128.7 180.613 126.809C180.798 125.856 180.97 124.877 181.089 123.872C181.122 123.374 181.122 122.875 181.089 122.377C181.089 121.861 180.97 121.438 180.56 121.425C180.15 121.412 179.859 121.663 179.568 122.099C179.304 122.567 179.087 123.058 178.92 123.568C178.549 124.613 178.258 125.724 177.967 126.848C177.676 127.973 177.412 129.15 177.068 130.341C176.918 130.993 176.649 131.612 176.274 132.166C176.18 132.275 176.055 132.353 175.917 132.391C175.829 132.41 175.739 132.409 175.652 132.389C175.565 132.368 175.484 132.328 175.414 132.272C175.262 132.132 175.137 131.967 175.044 131.782C174.904 131.458 174.81 131.115 174.766 130.764C174.706 128.096 174.972 125.43 175.56 122.827C175.784 121.504 176.023 120.181 176.195 118.859C176.274 118.184 176.353 117.536 176.367 116.821C176.38 116.107 176.274 115.353 175.996 115.234C175.718 115.115 175.044 115.485 174.673 116.041C174.308 116.628 174.019 117.259 173.814 117.919C173.362 119.301 173.022 120.717 172.795 122.152C172.544 123.607 172.345 125.089 172.173 126.597C172.107 127.351 172.028 128.105 171.962 128.872L171.856 130.023C171.87 130.269 171.83 130.515 171.738 130.743C171.647 130.972 171.506 131.178 171.327 131.346C171.1 131.511 170.827 131.601 170.546 131.601C170.266 131.601 169.992 131.511 169.766 131.346C169.637 131.261 169.529 131.15 169.446 131.02C169.364 130.89 169.311 130.744 169.289 130.592C169.269 130.452 169.269 130.309 169.289 130.169V129.891L169.647 127.576C169.872 126.015 170.057 124.454 170.202 122.867C170.348 121.279 170.467 119.679 170.493 118.078C170.571 116.493 170.41 114.906 170.017 113.369C169.926 112.979 169.689 112.638 169.356 112.416C169.196 112.365 169.024 112.366 168.865 112.418C168.706 112.47 168.567 112.572 168.469 112.707C168.041 113.491 167.865 114.387 167.967 115.274C167.676 118.382 167.345 121.438 166.895 124.441C166.67 125.936 166.419 127.43 166.049 128.899C165.943 129.256 165.837 129.626 165.705 129.997C165.579 130.446 165.315 130.844 164.951 131.134C164.789 131.213 164.606 131.236 164.431 131.197C164.255 131.159 164.098 131.062 163.985 130.923C163.823 130.753 163.701 130.55 163.628 130.327C163.485 129.96 163.383 129.579 163.324 129.19C163.014 126.311 162.987 123.409 163.244 120.525C163.44 119.181 163.515 117.822 163.469 116.464C163.426 115.885 163.161 115.344 162.728 114.956C162.627 114.893 162.513 114.851 162.395 114.833C162.277 114.815 162.156 114.821 162.04 114.85C161.917 114.892 161.797 114.945 161.683 115.009C161.564 115.115 161.577 115.009 161.498 115.234C161.02 116.424 160.669 117.661 160.453 118.925C160.189 120.248 159.964 121.451 159.765 122.695C159.567 123.938 159.382 125.155 159.223 126.372C159.064 127.589 158.985 128.78 158.747 129.97C158.541 131.133 158.231 132.276 157.821 133.383C157.712 133.665 157.584 133.939 157.437 134.203C157.252 134.455 157.146 134.772 156.643 134.931C156.515 134.954 156.382 134.939 156.262 134.888C156.142 134.836 156.04 134.75 155.969 134.64C155.876 134.487 155.805 134.322 155.757 134.15C155.698 133.863 155.662 133.571 155.651 133.277C155.651 131.015 155.956 128.952 156.075 126.954C156.161 125.999 156.161 125.039 156.075 124.084C156.075 123.66 155.876 123.158 155.638 123.065C155.471 122.983 155.288 122.941 155.102 122.941C154.917 122.941 154.733 122.983 154.567 123.065C154.011 123.661 153.667 124.424 153.588 125.235C153.389 126.041 153.31 126.862 153.164 127.642C152.609 130.764 152.027 133.462 151.749 135.658C151.619 136.624 151.619 137.603 151.749 138.568C151.934 139.362 152.212 140.076 152.357 140.632C152.503 141.188 152.648 141.585 152.741 141.955C152.79 142.097 152.826 142.243 152.847 142.391C152.768 142.263 152.705 142.125 152.662 141.981L152.212 140.659C152.027 140.09 151.749 139.455 151.524 138.582C151.383 137.59 151.383 136.584 151.524 135.592C151.775 133.357 152.305 130.685 152.847 127.549C152.992 126.769 153.072 125.949 153.244 125.102C153.338 124.655 153.458 124.213 153.601 123.779C153.733 123.298 154.022 122.875 154.421 122.576C154.661 122.448 154.929 122.382 155.201 122.382C155.474 122.382 155.742 122.448 155.982 122.576C156.241 122.739 156.453 122.965 156.599 123.234C156.745 123.503 156.819 123.804 156.815 124.11C156.908 125.104 156.908 126.105 156.815 127.1C156.723 129.11 156.405 131.214 156.458 133.357C156.468 133.61 156.499 133.862 156.551 134.111C156.551 134.362 156.736 134.468 156.71 134.415C156.683 134.362 156.961 134.203 157.067 133.992C157.197 133.757 157.312 133.514 157.411 133.264C157.802 132.192 158.09 131.084 158.27 129.957C158.495 128.806 158.575 127.616 158.733 126.385C158.892 125.155 159.051 123.938 159.249 122.681C159.448 121.425 159.673 120.168 159.924 118.885C160.139 117.545 160.512 116.235 161.035 114.983C161.141 114.773 161.301 114.595 161.498 114.467C161.674 114.37 161.86 114.295 162.054 114.242C162.276 114.179 162.508 114.163 162.737 114.198C162.965 114.232 163.183 114.315 163.376 114.44C163.683 114.684 163.937 114.988 164.121 115.334C164.306 115.68 164.417 116.06 164.448 116.451C164.547 117.171 164.547 117.901 164.448 118.62C164.382 119.295 164.316 119.943 164.276 120.684C164.018 123.502 164.045 126.338 164.355 129.15C164.412 129.484 164.501 129.812 164.62 130.129C164.66 130.257 164.727 130.374 164.818 130.473C164.818 130.473 164.818 130.473 164.885 130.473C164.885 130.777 164.885 130.473 164.885 130.592C164.885 130.711 164.885 130.592 164.885 130.486C165.05 130.265 165.179 130.02 165.268 129.759C165.392 129.432 165.497 129.088 165.586 128.727C165.943 127.325 166.181 125.843 166.406 124.361C166.855 121.385 167.186 118.329 167.464 115.234V115.3C167.346 114.21 167.583 113.111 168.139 112.165C168.351 111.895 168.642 111.697 168.971 111.6C169.301 111.503 169.652 111.511 169.977 111.623C170.255 111.777 170.498 111.985 170.694 112.235C170.889 112.485 171.032 112.771 171.115 113.078C171.539 114.704 171.713 116.386 171.631 118.065C171.631 119.705 171.485 121.319 171.34 122.92C171.194 124.52 170.996 126.094 170.771 127.655C170.652 128.449 170.533 129.216 170.414 129.997C170.308 130.486 170.334 130.499 170.414 130.645C170.506 130.707 170.614 130.74 170.725 130.74C170.836 130.74 170.944 130.707 171.036 130.645C171.194 130.526 171.221 130.301 171.26 129.864L171.353 128.714L171.591 126.425C171.75 124.917 171.962 123.409 172.213 121.941C172.458 120.466 172.811 119.011 173.271 117.589C173.511 116.87 173.835 116.181 174.237 115.538C174.455 115.192 174.744 114.894 175.083 114.665C175.272 114.529 175.49 114.44 175.721 114.405C175.951 114.37 176.186 114.392 176.406 114.467C176.609 114.592 176.78 114.762 176.906 114.964C177.032 115.166 177.11 115.394 177.134 115.631C177.188 116.003 177.21 116.379 177.2 116.755C177.2 117.483 177.107 118.184 177.028 118.885C176.843 120.208 176.591 121.61 176.353 122.946C175.785 125.459 175.51 128.029 175.533 130.605C175.57 130.882 175.642 131.153 175.745 131.412C175.793 131.506 175.85 131.595 175.917 131.677C175.917 131.677 175.917 131.677 175.917 131.584C176.214 131.106 176.433 130.583 176.565 130.036C176.909 128.885 177.187 127.721 177.491 126.584C177.764 125.452 178.095 124.335 178.483 123.237C178.666 122.693 178.906 122.17 179.197 121.676C179.355 121.407 179.561 121.169 179.806 120.975C179.939 120.86 180.098 120.778 180.269 120.737C180.44 120.71 180.614 120.71 180.785 120.737C180.965 120.755 181.138 120.821 181.284 120.928C181.431 121.035 181.546 121.179 181.618 121.345C181.729 121.623 181.787 121.919 181.79 122.219C181.8 122.754 181.769 123.289 181.697 123.819C181.578 124.851 181.38 125.83 181.195 126.795C180.811 128.687 180.388 130.486 179.872 132.087C178.88 135.367 177.888 138.145 177.081 140.407C176.274 142.669 175.586 144.376 175.123 145.593C174.898 146.148 174.713 146.585 174.581 146.915C174.522 147.132 174.437 147.34 174.329 147.537Z" fill="#EB996E"/>
<path d="M102.117 184.814C104.63 193.69 109.551 207.381 114.829 221.853C114.996 222.319 115.297 222.725 115.694 223.02C116.092 223.315 116.568 223.486 117.062 223.51C117.557 223.534 118.047 223.411 118.472 223.156C118.896 222.901 119.235 222.526 119.446 222.078L132.383 194.709C132.383 194.709 129.261 172.221 129.526 173.028C129.79 173.835 102.831 175.938 102.831 175.938L102.117 184.814Z" fill="#FF725E"/>
<path d="M131.272 180.409C131.272 180.515 129.658 180.991 127.105 181.97C123.768 183.237 120.554 184.804 117.501 186.653C114.453 188.51 111.575 190.635 108.903 193.002C106.853 194.815 105.675 196.058 105.596 195.979C105.517 195.899 105.821 195.608 106.324 195.013C107.032 194.186 107.783 193.396 108.572 192.645C111.18 190.134 114.054 187.917 117.144 186.031C120.235 184.169 123.517 182.643 126.933 181.481C127.966 181.125 129.017 180.825 130.081 180.581C130.466 180.461 130.868 180.403 131.272 180.409Z" fill="#FAFAFA"/>
<path d="M136.404 187.235C135.564 186.387 134.835 185.436 134.235 184.404C132.69 181.995 131.362 179.454 130.267 176.811C129.17 174.16 128.316 171.415 127.713 168.61C127.405 167.462 127.25 166.279 127.25 165.091C127.645 166.2 127.959 167.336 128.19 168.49C128.898 171.23 129.782 173.92 130.835 176.546C131.936 179.159 133.199 181.699 134.619 184.153C135.279 185.141 135.876 186.17 136.404 187.235Z" fill="#263238"/>
<path d="M145.029 66.0385C142.785 69.7373 141.394 73.89 140.957 78.1943C140.52 82.4986 141.048 86.8461 142.503 90.9206C143.825 94.5583 145.942 98.1432 145.558 102.006C145.175 105.868 142.159 109.691 143.217 113.501C143.852 115.763 145.783 117.469 146.537 119.665C147.397 122.311 146.537 125.102 146.074 127.814C145.016 134.745 147.238 141.717 147.781 148.701C148.323 155.686 146.458 163.874 140.214 166.916C138.323 167.842 135.849 168.107 134.275 166.691C132.264 164.906 132.82 161.678 133.375 159.032C138.852 132.576 121.933 106.755 125.795 79.9809C126.417 75.695 128.811 68.4195 131.894 65.43C134.976 62.4404 143.534 62.7843 146.445 65.9591" fill="#263238"/>
<path d="M118.97 142.788C118.97 142.788 119.777 141.836 120.967 139.957C122.638 137.305 123.808 134.368 124.42 131.293C124.819 129.175 124.957 127.016 124.83 124.864C124.598 122.362 124.506 119.849 124.552 117.337C124.631 115.962 124.884 114.601 125.306 113.289C125.789 111.938 126.401 110.636 127.131 109.4C128.613 106.9 130.478 104.572 132.198 102.085C133.964 99.7348 135.192 97.0254 135.796 94.1483C136.089 91.4383 135.933 88.6985 135.333 86.0395C134.832 83.5681 134.637 81.0448 134.751 78.5259C134.908 76.3256 135.353 74.1554 136.074 72.0705C137.084 69.0453 138.675 66.246 140.756 63.8294C141.309 63.1724 141.911 62.5578 142.556 61.9907C142.76 61.7729 142.991 61.5817 143.243 61.4219C143.243 61.4219 142.357 62.2817 140.955 64.0675C137.615 68.2129 135.662 73.303 135.373 78.6185C135.284 81.0962 135.502 83.5754 136.021 85.9998C136.652 88.7302 136.822 91.547 136.523 94.3335C135.896 97.2908 134.632 100.076 132.82 102.495C131.087 105.022 129.222 107.337 127.766 109.771C127.051 110.96 126.457 112.219 125.994 113.528C125.575 114.786 125.322 116.093 125.24 117.417C125.181 119.901 125.252 122.387 125.452 124.864C125.557 127.059 125.388 129.259 124.949 131.412C124.286 134.529 123.028 137.489 121.245 140.129C120.762 140.843 120.232 141.524 119.658 142.166C119.452 142.398 119.221 142.607 118.97 142.788Z" fill="#455A64"/>
<path d="M106.429 144.759C106.536 144.451 106.673 144.154 106.84 143.873C107.17 143.251 107.594 142.431 108.162 141.399C109.273 139.243 110.927 136.108 112.554 132.14C114.544 127.505 115.648 122.538 115.808 117.496C115.809 116.043 115.698 114.593 115.477 113.157C115.253 111.676 114.909 110.181 114.684 108.62C114.409 107.005 114.445 105.353 114.79 103.752C115.237 102.108 116.157 100.632 117.435 99.5057C119.922 97.2437 122.925 95.7621 124.486 93.1033C125.838 90.4668 126.635 87.5809 126.827 84.624C127.107 81.9134 127.72 79.2477 128.653 76.6871C130.749 71.1901 134.485 66.4706 139.354 63.168C140.13 62.6455 140.939 62.1727 141.775 61.7526C142.057 61.5835 142.359 61.4502 142.675 61.3557C142.675 61.3557 141.484 61.9907 139.513 63.3928C136.735 65.3752 134.33 67.834 132.41 70.6551C131.078 72.589 129.993 74.6821 129.182 76.8856C128.29 79.4521 127.713 82.1171 127.462 84.8225C127.065 87.64 126.748 90.7883 125.055 93.5795C123.361 96.3706 120.266 97.958 117.898 100.194C116.692 101.241 115.822 102.621 115.398 104.162C115.077 105.677 115.045 107.239 115.306 108.765C115.517 110.287 115.848 111.795 116.073 113.289C116.302 114.76 116.408 116.246 116.39 117.734C116.211 122.868 115.047 127.92 112.964 132.616C111.611 135.789 110.074 138.881 108.361 141.875L106.959 143.952C106.811 144.239 106.634 144.51 106.429 144.759Z" fill="#455A64"/>
<path d="M544.096 518.547C544.157 518.354 544.237 518.168 544.334 517.991C544.519 517.594 544.771 517.065 545.075 516.391C545.995 514.325 546.734 512.182 547.284 509.988C548.739 504.3 549.255 495.609 547.099 485.291C545.928 479.665 544.394 474.119 542.509 468.69C540.577 462.803 538.315 456.56 536.477 449.8C534.401 442.75 533.397 435.428 533.5 428.08C533.778 420.394 536.053 412.735 538.553 405.089C541.053 397.443 543.633 389.996 544.4 382.456C545.253 375.225 543.799 367.91 540.247 361.555C536.94 355.457 532.773 350.232 529.664 344.835C526.754 339.82 524.609 334.398 523.301 328.749C521.424 320.571 521.285 312.09 522.891 303.854C523.477 300.841 524.363 297.894 525.537 295.057C525.501 295.256 525.448 295.45 525.378 295.639L524.849 297.319C524.399 298.801 523.804 301.023 523.235 303.933C521.757 312.132 521.977 320.547 523.883 328.657C525.21 334.237 527.364 339.587 530.273 344.531C533.381 349.822 537.561 355.113 540.948 361.238C544.587 367.721 546.083 375.19 545.22 382.575C544.44 390.221 541.847 397.747 539.347 405.38C536.847 413.013 534.598 420.592 534.32 428.146C534.202 435.421 535.183 442.672 537.231 449.655C539.043 456.375 541.265 462.618 543.183 468.531C545.051 473.99 546.554 479.567 547.681 485.225C549.784 495.623 549.189 504.406 547.681 510.107C547.091 512.306 546.298 514.445 545.313 516.497L544.493 518.071C544.379 518.244 544.246 518.404 544.096 518.547Z" fill="#263238"/>
<path d="M533.897 350.166C533.897 350.166 527.574 329.914 538.924 318.061C539.012 317.966 539.125 317.897 539.25 317.862C539.374 317.827 539.507 317.827 539.631 317.863C539.756 317.898 539.869 317.968 539.956 318.064C540.044 318.159 540.103 318.278 540.127 318.405C540.736 321.752 541.49 331.938 533.897 350.166Z" fill="#FF725E"/>
<path d="M537.694 324.807C537.673 326.062 537.532 327.311 537.27 328.538C536.847 331.117 536.357 334.133 535.828 337.467C535.299 340.8 534.81 343.829 534.4 346.396C534.284 347.647 534.063 348.886 533.738 350.1C533.614 348.849 533.641 347.587 533.818 346.343C534.029 344.028 534.439 340.853 535.008 337.361C535.577 333.869 536.199 330.747 536.688 328.458C536.881 327.207 537.219 325.981 537.694 324.807Z" fill="#263238"/>
<path d="M541.331 397.933C541.331 397.933 545.207 377.072 560.79 371.913C560.913 371.87 561.045 371.862 561.172 371.89C561.299 371.918 561.416 371.981 561.509 372.072C561.602 372.162 561.669 372.277 561.701 372.403C561.732 372.529 561.729 372.662 561.689 372.786C560.658 376 556.57 385.353 541.331 397.933Z" fill="#FF725E"/>
<path d="M556.544 377.27C555.939 378.372 555.231 379.413 554.427 380.379L548.964 387.588L543.54 394.824C542.857 395.874 542.083 396.861 541.225 397.774C541.708 396.61 542.33 395.508 543.077 394.493C544.4 392.549 546.199 389.93 548.369 387.112C550.538 384.294 552.509 381.821 554.004 380.022C554.747 379.014 555.598 378.091 556.544 377.27Z" fill="#263238"/>
<path d="M537.125 450.224C537.125 450.224 534.77 429.138 548.183 419.68C548.287 419.599 548.411 419.549 548.542 419.537C548.672 419.524 548.804 419.549 548.921 419.609C549.037 419.669 549.135 419.761 549.201 419.874C549.267 419.988 549.3 420.117 549.294 420.249C549.255 423.648 548.051 433.781 537.125 450.224Z" fill="#FF725E"/>
<path d="M545.723 426.056C545.477 427.287 545.1 428.489 544.599 429.64L541.477 438.133C540.313 441.308 539.268 444.178 538.381 446.625C538.042 447.83 537.6 449.003 537.059 450.131C537.181 448.876 537.456 447.641 537.879 446.453C538.527 444.231 539.532 441.162 540.762 437.855C541.993 434.548 543.196 431.572 544.109 429.442C544.531 428.261 545.071 427.127 545.723 426.056Z" fill="#263238"/>
<path d="M548.858 502.845C548.858 502.845 547.271 481.68 561.001 472.711C561.109 472.638 561.235 472.595 561.365 472.589C561.495 472.582 561.625 472.613 561.739 472.676C561.853 472.739 561.947 472.833 562.011 472.947C562.074 473.06 562.105 473.19 562.099 473.32C561.941 476.72 560.38 486.813 548.858 502.845Z" fill="#FF725E"/>
<path d="M558.277 479.008C557.98 480.23 557.559 481.418 557.02 482.553C556.041 484.961 554.877 487.844 553.594 490.927C552.311 494.009 551.186 496.879 550.207 499.3C549.816 500.494 549.315 501.65 548.713 502.753C548.888 501.501 549.212 500.276 549.678 499.102C550.406 496.906 551.517 493.89 552.866 490.622C554.216 487.355 555.512 484.418 556.504 482.328C556.975 481.162 557.569 480.049 558.277 479.008Z" fill="#263238"/>
<path d="M524.796 332.374C524.796 332.374 506.039 322.532 505.628 306.143C505.627 306.014 505.661 305.888 505.726 305.777C505.791 305.666 505.884 305.574 505.996 305.512C506.109 305.45 506.236 305.419 506.364 305.423C506.493 305.427 506.618 305.465 506.726 305.534C509.517 307.465 517.269 314.132 524.796 332.374Z" fill="#FF725E"/>
<path d="M509.531 311.778C510.411 312.677 511.196 313.666 511.872 314.728C513.407 316.831 515.192 319.318 517.163 322.056L522.455 329.358C523.261 330.319 523.978 331.35 524.598 332.44C523.63 331.635 522.764 330.716 522.018 329.702C520.523 327.929 518.566 325.39 516.502 322.519C514.438 319.649 512.626 316.99 511.383 315.045C510.654 314.023 510.033 312.928 509.531 311.778Z" fill="#263238"/>
<path d="M544.995 375.855C544.995 375.855 525.629 367.19 524.267 350.827C524.256 350.699 524.281 350.569 524.338 350.454C524.396 350.339 524.485 350.241 524.594 350.173C524.703 350.105 524.83 350.068 524.959 350.066C525.088 350.065 525.214 350.1 525.325 350.166C528.222 351.925 536.357 358.089 544.995 375.855Z" fill="#FF725E"/>
<path d="M528.526 356.224C529.459 357.064 530.302 358 531.04 359.015L536.781 366.013L542.535 372.984C543.397 373.897 544.176 374.884 544.863 375.934C543.848 375.185 542.925 374.319 542.112 373.355C540.524 371.662 538.408 369.254 536.172 366.516C533.937 363.778 531.979 361.225 530.603 359.359C529.797 358.394 529.101 357.343 528.526 356.224Z" fill="#263238"/>
<path d="M533.818 424.389C533.818 424.389 520.589 407.854 526.767 392.641C526.816 392.522 526.897 392.418 527.001 392.342C527.105 392.265 527.228 392.219 527.356 392.208C527.485 392.197 527.614 392.222 527.729 392.28C527.845 392.338 527.942 392.426 528.01 392.535C529.849 395.406 534.254 404.613 533.818 424.389Z" fill="#FF725E"/>
<path d="M528.103 399.361C528.556 400.536 528.884 401.756 529.082 402.999C529.638 405.539 530.286 408.528 531 411.836C531.714 415.143 532.389 418.119 532.945 420.659C533.298 421.864 533.542 423.1 533.672 424.349C533.091 423.225 532.647 422.034 532.349 420.804C531.701 418.569 530.907 415.513 530.167 411.994C529.426 408.476 528.844 405.38 528.473 403.105C528.213 401.874 528.089 400.619 528.103 399.361Z" fill="#263238"/>
<path d="M547.046 481.415C547.046 481.415 527.825 472.434 526.741 456.057C526.728 455.927 526.752 455.795 526.81 455.678C526.868 455.56 526.959 455.461 527.07 455.392C527.182 455.323 527.31 455.287 527.442 455.288C527.573 455.288 527.701 455.326 527.812 455.396C530.656 457.208 538.686 463.518 547.046 481.415Z" fill="#FF725E"/>
<path d="M530.868 461.507C531.777 462.374 532.601 463.327 533.328 464.351L538.95 471.428L544.585 478.505C545.433 479.431 546.194 480.432 546.86 481.495C545.876 480.722 544.987 479.834 544.215 478.849C542.641 477.13 540.577 474.682 538.381 471.904C536.185 469.127 534.281 466.547 532.931 464.655C532.123 463.69 531.431 462.633 530.868 461.507Z" fill="#263238"/>
<path d="M585.288 398.025C585.288 398.025 585.288 398.184 585.288 398.488C585.288 398.793 585.288 399.295 585.288 399.811C585.288 401.134 585.156 402.814 585.063 404.957C584.825 409.481 584.468 415.791 584.058 423.331C582.735 431.003 578.767 439.509 573.476 447.776C569.626 453.861 565.539 459.391 562.099 464.537C558.96 469.052 556.14 473.782 553.66 478.691C552.018 482.008 550.689 485.471 549.691 489.035C549.361 490.292 549.096 491.284 548.951 491.958C548.888 492.31 548.795 492.655 548.673 492.99C548.678 492.634 548.722 492.279 548.805 491.932C548.898 491.244 549.096 490.239 549.4 488.956C550.291 485.329 551.554 481.805 553.17 478.439C555.629 473.492 558.445 468.73 561.597 464.193C565.063 459.007 569.071 453.465 572.907 447.419C578.132 439.191 582.021 430.818 583.489 423.265C584.018 415.738 584.455 409.441 584.812 404.917C584.984 402.774 585.13 401.068 585.235 399.785C585.235 399.256 585.328 398.806 585.368 398.462C585.323 398.32 585.296 398.174 585.288 398.025Z" fill="#263238"/>
<path d="M573.846 446.255C573.846 446.255 581.981 426.677 571.756 413.833C571.677 413.73 571.57 413.651 571.449 413.605C571.327 413.559 571.195 413.548 571.067 413.573C570.94 413.597 570.821 413.657 570.726 413.745C570.63 413.833 570.561 413.946 570.526 414.071C569.613 417.352 567.933 427.418 573.846 446.255Z" fill="#FF725E"/>
<path d="M572.365 420.672C572.715 421.879 572.933 423.121 573.013 424.376C573.304 426.677 573.621 429.865 573.872 433.397C574.124 436.929 574.243 440.13 574.243 442.459C574.322 443.715 574.247 444.977 574.018 446.215C573.79 444.981 573.679 443.727 573.687 442.472C573.515 439.826 573.304 436.823 573.079 433.45C572.854 430.077 572.642 427.021 572.457 424.429C572.303 423.182 572.272 421.924 572.365 420.672Z" fill="#263238"/>
<g opacity="0.3">
<path d="M573.846 446.255C573.846 446.255 581.981 426.677 571.756 413.833C571.677 413.73 571.57 413.651 571.449 413.605C571.327 413.559 571.195 413.548 571.067 413.573C570.94 413.597 570.821 413.657 570.726 413.745C570.63 413.833 570.561 413.946 570.526 414.071C569.613 417.352 567.933 427.418 573.846 446.255Z" fill="black"/>
</g>
<path d="M548.646 493.466C548.646 493.466 555.168 473.28 543.924 461.322C543.837 461.227 543.725 461.157 543.601 461.121C543.477 461.086 543.345 461.085 543.221 461.119C543.096 461.153 542.984 461.221 542.895 461.315C542.807 461.409 542.746 461.526 542.72 461.653C542.085 464.986 541.225 475.172 548.646 493.466Z" fill="#FF725E"/>
<path d="M545.088 468.042C545.546 469.218 545.866 470.443 546.04 471.693C546.517 473.955 547.085 477.116 547.628 480.608C548.17 484.101 548.54 487.289 548.739 489.604C548.911 490.853 548.933 492.119 548.805 493.374C548.491 492.159 548.279 490.92 548.17 489.67C547.786 487.09 547.337 484.074 546.847 480.728C546.358 477.381 545.882 474.365 545.524 471.785C545.256 470.555 545.11 469.301 545.088 468.042Z" fill="#263238"/>
<g opacity="0.3">
<path d="M548.646 493.466C548.646 493.466 555.168 473.28 543.924 461.322C543.837 461.227 543.725 461.157 543.601 461.121C543.477 461.086 543.345 461.085 543.221 461.119C543.096 461.153 542.984 461.221 542.895 461.315C542.807 461.409 542.746 461.526 542.72 461.653C542.085 464.986 541.225 475.172 548.646 493.466Z" fill="black"/>
</g>
<path d="M584.217 422.325C584.217 422.325 601.585 410.155 599.839 393.832C599.826 393.704 599.777 393.581 599.699 393.479C599.62 393.377 599.515 393.298 599.395 393.251C599.274 393.205 599.143 393.192 599.016 393.215C598.89 393.239 598.771 393.296 598.675 393.382C596.149 395.657 589.376 403.224 584.217 422.325Z" fill="#FF725E"/>
<g opacity="0.3">
<path d="M584.217 422.325C584.217 422.325 601.585 410.155 599.839 393.832C599.826 393.704 599.777 393.581 599.699 393.479C599.62 393.377 599.515 393.298 599.395 393.251C599.274 393.205 599.143 393.192 599.016 393.215C598.89 393.239 598.771 393.296 598.675 393.382C596.149 395.657 589.376 403.224 584.217 422.325Z" fill="black"/>
</g>
<path d="M596.691 399.93C596.346 401.142 595.863 402.309 595.249 403.409C594.257 405.499 592.815 408.356 591.135 411.478C589.455 414.6 587.841 417.365 586.598 419.323C585.986 420.422 585.245 421.443 584.389 422.365C584.854 421.201 585.429 420.085 586.109 419.032C587.352 416.743 588.82 414.071 590.434 411.095L594.747 403.158C595.288 402.021 595.939 400.94 596.691 399.93Z" fill="#263238"/>
<path d="M555.657 473.452C555.657 473.452 576.611 470.185 582.219 454.761C582.265 454.64 582.276 454.51 582.252 454.384C582.229 454.257 582.171 454.14 582.085 454.044C581.999 453.948 581.888 453.878 581.765 453.841C581.641 453.805 581.51 453.802 581.386 453.835C578.119 454.814 568.647 458.584 555.657 473.452Z" fill="#FF725E"/>
<g opacity="0.3">
<path d="M555.657 473.452C555.657 473.452 576.611 470.185 582.219 454.761C582.265 454.64 582.276 454.51 582.252 454.384C582.229 454.257 582.171 454.14 582.085 454.044C581.999 453.948 581.888 453.878 581.765 453.841C581.641 453.805 581.51 453.802 581.386 453.835C578.119 454.814 568.647 458.584 555.657 473.452Z" fill="black"/>
</g>
<path d="M576.717 458.848C575.867 459.775 574.918 460.605 573.886 461.322C572.073 462.777 569.52 464.708 566.65 466.772C563.779 468.835 561.094 470.595 559.11 471.812C558.075 472.533 556.956 473.124 555.776 473.571C556.715 472.734 557.729 471.986 558.806 471.336L566.187 466.124L573.555 460.832C574.535 460.061 575.595 459.395 576.717 458.848Z" fill="#263238"/>
<path d="M535.656 512.025L529.545 553.165H567.642L562.708 512.025H535.656Z" fill="#455A64"/>
<path d="M564.242 524.764C564.242 524.989 557.364 525.161 548.885 525.161C540.405 525.161 533.513 524.989 533.513 524.764C538.627 524.372 543.757 524.24 548.885 524.367C554.007 524.24 559.133 524.372 564.242 524.764Z" fill="#263238"/>
<path d="M564.983 528.045C564.983 528.27 557.88 528.442 549.109 528.442C540.339 528.442 533.236 528.27 533.236 528.045C533.236 527.82 540.339 527.648 549.109 527.648C557.88 527.648 564.983 527.82 564.983 528.045Z" fill="#263238"/>
<path d="M416.841 112.919C416.841 112.919 416.484 112.919 415.796 112.919C414.792 112.859 413.784 112.859 412.78 112.919C408.895 113.147 405.078 114.042 401.496 115.565C395.82 117.944 390.879 121.793 387.184 126.716C384.905 129.79 383.21 133.256 382.183 136.941C379.868 145.721 381.119 155.06 385.662 162.922C386.901 165.098 388.412 167.107 390.16 168.901C391.923 170.801 393.977 172.408 396.245 173.663C398.572 174.972 401.208 175.635 403.877 175.581C406.63 175.548 409.27 174.481 411.272 172.591C412.24 171.577 412.999 170.382 413.505 169.075C414.011 167.768 414.255 166.373 414.222 164.972C414.202 162.06 413.277 159.226 411.576 156.863C408.15 152.035 402.594 148.794 396.681 147.048C390.55 145.326 384.075 145.235 377.897 146.783C374.744 147.603 371.705 148.812 368.849 150.381C365.967 152.008 363.348 154.064 361.084 156.479C360.542 157.101 359.92 157.67 359.431 158.358L357.936 160.369C357.027 161.785 356.214 163.261 355.502 164.787C354.087 167.884 353.121 171.166 352.632 174.536C351.671 181.267 352.587 188.133 355.277 194.378C357.849 200.48 362.327 205.585 368.042 208.929C370.813 210.512 373.907 211.448 377.09 211.667C380.212 211.842 383.317 211.097 386.019 209.524C388.702 208.042 390.822 205.717 392.051 202.91C393.212 200.144 393.292 197.042 392.276 194.219C391.231 191.496 389.521 189.076 387.303 187.182C385.151 185.322 382.67 183.882 379.987 182.936C374.757 181.286 369.16 181.19 363.876 182.658C358.931 183.998 354.389 186.527 350.647 190.026C347.239 193.291 344.643 197.31 343.068 201.759C340.312 209.48 340.439 217.936 343.425 225.57C345.754 231.269 349.501 236.278 354.312 240.121C357.342 242.551 360.717 244.517 364.325 245.955C365.569 246.418 366.534 246.762 367.196 246.947L368.175 247.264C368.175 247.264 367.831 247.198 367.169 247.013C366.192 246.751 365.229 246.438 364.286 246.074C360.629 244.7 357.211 242.763 354.153 240.333C349.261 236.493 345.439 231.459 343.054 225.716C340.016 218.009 339.861 209.465 342.618 201.654C344.196 197.137 346.821 193.057 350.277 189.748C354.072 186.179 358.681 183.591 363.704 182.208C369.099 180.703 374.815 180.795 380.159 182.473C382.92 183.436 385.474 184.912 387.686 186.825C389.992 188.781 391.766 191.288 392.845 194.113C393.933 197.063 393.886 200.311 392.713 203.228C391.408 206.145 389.195 208.563 386.403 210.12C383.601 211.753 380.383 212.534 377.143 212.368C373.882 212.141 370.715 211.173 367.884 209.538C362.038 206.147 357.448 200.953 354.801 194.735C352.053 188.376 351.11 181.383 352.076 174.523C352.581 171.085 353.57 167.736 355.013 164.575C355.739 163.017 356.57 161.51 357.5 160.064L359.034 158.014C359.523 157.313 360.158 156.691 360.714 156.083C363.031 153.622 365.707 151.526 368.651 149.865C371.573 148.266 374.684 147.04 377.911 146.214C384.206 144.637 390.805 144.732 397.052 146.492C403.084 148.291 408.732 151.585 412.291 156.585C414.079 159.047 415.051 162.008 415.068 165.051C415.133 168.046 414.005 170.944 411.933 173.107C409.817 175.094 407.031 176.213 404.129 176.242C401.351 176.305 398.609 175.615 396.192 174.245C393.87 172.964 391.77 171.315 389.975 169.364C388.204 167.53 386.671 165.481 385.411 163.265C380.786 155.258 379.53 145.742 381.919 136.809C382.977 133.081 384.713 129.579 387.038 126.478C390.802 121.518 395.826 117.658 401.589 115.3C405.2 113.806 409.047 112.964 412.952 112.813C413.965 112.746 414.981 112.746 415.994 112.813L416.841 112.919Z" fill="#263238"/>
<path d="M461.01 245.28H275.538V388.329H461.01V245.28Z" fill="#FF725E"/>
<path d="M275.538 245.28L309.799 277.239H492.122L461.01 245.28H275.538Z" fill="#FF725E"/>
<path d="M275.538 245.28L461.063 244.949H461.208L461.314 245.042L492.109 276.67L492.427 277.001L492.995 277.583H492.175L309.852 277.438H309.772L275.538 245.28L309.931 277.027H309.786L492.109 276.895L491.871 277.477L491.54 277.147L460.758 245.518L460.996 245.624L275.538 245.28Z" fill="#263238"/>
<path d="M331.255 311.249C330.25 311.285 329.3 311.715 328.609 312.445C327.917 313.174 327.54 314.147 327.558 315.152C327.576 316.157 327.989 317.115 328.706 317.819C329.423 318.524 330.388 318.919 331.394 318.919C332.399 318.919 333.364 318.524 334.082 317.819C334.799 317.115 335.211 316.157 335.229 315.152C335.248 314.147 334.87 313.174 334.179 312.445C333.488 311.715 332.537 311.285 331.533 311.249" fill="#263238"/>
<path d="M375.08 311.249C374.079 311.287 373.133 311.716 372.446 312.444C371.758 313.172 371.384 314.141 371.403 315.142C371.422 316.143 371.833 317.097 372.548 317.798C373.263 318.499 374.224 318.892 375.225 318.892C376.227 318.892 377.188 318.499 377.903 317.798C378.617 317.097 379.028 316.143 379.048 315.142C379.067 314.141 378.692 313.172 378.005 312.444C377.317 311.716 376.371 311.287 375.371 311.249" fill="#263238"/>
<path d="M375.331 345.483C374.566 342.561 373.324 339.785 371.654 337.269C369.796 334.577 367.411 332.291 364.643 330.549C361.303 328.333 357.408 327.099 353.402 326.989C349.395 326.879 345.439 327.897 341.983 329.927C339.128 331.521 336.623 333.671 334.615 336.25C332.806 338.674 331.415 341.383 330.501 344.266C330.511 344.051 330.546 343.838 330.607 343.631C330.733 343.035 330.897 342.448 331.096 341.872C331.821 339.747 332.879 337.751 334.231 335.959C336.225 333.259 338.762 331.006 341.679 329.345C345.224 327.229 349.298 326.165 353.425 326.277C357.552 326.39 361.562 327.674 364.987 329.98C367.803 331.79 370.209 334.169 372.05 336.964C373.307 338.83 374.258 340.884 374.868 343.049C375.031 343.637 375.159 344.233 375.252 344.835C375.297 345.048 375.324 345.265 375.331 345.483Z" fill="#263238"/>
<path opacity="0.5" d="M275.961 246.854L308.767 288.443H461.01V277.239H309.799L275.961 246.854Z" fill="black"/>
<path d="M424.434 388.012C424.249 388.012 424.09 363.13 424.09 332.453C424.09 301.777 424.249 276.895 424.434 276.895C424.619 276.895 424.791 301.764 424.791 332.453C424.791 363.143 424.632 388.012 424.434 388.012Z" fill="#263238"/>
<path d="M453.562 355.576H437.212V374.056H453.562V355.576Z" fill="#F5F5F5"/>
<path d="M275.538 245.28L237.467 277.239H275.538V245.28Z" fill="#FF725E"/>
<g opacity="0.4">
<path d="M275.538 245.28L237.467 277.239H275.538V245.28Z" fill="black"/>
</g>
<path d="M466.486 388.329H253.235V552.808H466.486V388.329Z" fill="#FF725E"/>
<path opacity="0.3" d="M466.486 388.329H253.235V552.808H466.486V388.329Z" fill="black"/>
<path d="M413.058 551.644C412.873 551.644 412.714 514.989 412.714 469.775C412.714 424.561 412.873 387.893 413.058 387.893C413.243 387.893 413.402 424.548 413.402 469.775C413.402 515.002 413.243 551.644 413.058 551.644Z" fill="#263238"/>
<path d="M448.403 515.372H432.053V533.852H448.403V515.372Z" fill="#F5F5F5"/>
<path d="M342.512 388.766H318.291V423.86H342.512V388.766Z" fill="#263238"/>
<path d="M342.512 517.224H318.291V552.318H342.512V517.224Z" fill="#263238"/>
<path d="M464.634 388.329H464.079H462.478L456.327 388.395L433.667 388.501L358.941 388.673L284.189 388.581L261.543 388.475L255.392 388.409L261.543 388.343L284.189 388.237L358.941 388.131L433.667 388.237L456.327 388.343L462.478 388.409H464.079L464.634 388.329Z" fill="#263238"/>
<path d="M99.1672 103.567L75.9386 97.8521H76.1105C70.1128 101.667 63.1772 103.75 56.0699 103.871C51.8622 103.89 47.6754 103.279 43.6487 102.059C36.5691 99.7855 30.2883 95.5332 25.5486 89.8042C20.8088 84.0752 17.8082 77.1091 16.9013 69.7291C16.1891 64.1476 16.7134 58.4778 18.4371 53.1216C20.1608 47.7655 23.0416 42.854 26.8754 38.7355C28.8907 36.5219 31.1493 34.5428 33.6085 32.8358C34.8519 32.0553 36.0954 31.2484 37.3917 30.5738L39.3627 29.6213L40.3416 29.1451L41.3734 28.7747C46.6851 26.7158 52.3831 25.8444 58.0673 26.2217C65.6853 26.7163 72.9865 29.455 79.0505 34.0925C85.1145 38.7299 89.6701 45.0587 92.143 52.2811C93.5169 56.3214 94.2403 60.5542 94.286 64.8214C94.3191 71.9131 92.3918 78.8761 88.7169 84.9414V84.7298C95.1723 96.3838 98.4264 102.27 99.154 103.567C98.4 102.244 95.0268 96.4632 88.3466 84.9282V84.8224V84.7166C91.8895 78.7099 93.7195 71.8475 93.6378 64.8743C93.5764 60.6754 92.844 56.5134 91.4684 52.5457C89.0224 45.471 84.5436 39.2751 78.5928 34.7338C72.6421 30.1925 65.4838 27.5076 58.0144 27.0154C52.4421 26.6522 46.8577 27.51 41.6512 29.5287L40.6459 29.8859L39.6802 30.3621L37.7489 31.2881C36.4261 31.9627 35.262 32.7432 34.0318 33.5104C31.6201 35.1717 29.4016 37.0973 27.4177 39.2514C23.6541 43.2945 20.8252 48.1155 19.1313 53.3731C17.4374 58.6307 16.92 64.1964 17.6157 69.6762C18.842 79.7153 23.9926 88.8608 31.9417 95.1139C35.4956 97.9298 39.5288 100.081 43.8471 101.463C47.8015 102.686 51.9176 103.306 56.0567 103.302C63.0788 103.227 69.9443 101.218 75.8989 97.4949H75.9782H76.1237L99.1672 103.567Z" fill="#263238"/>
<path d="M52.313 47.7836L53.4903 67.229C53.5373 67.996 53.8631 68.7193 54.4065 69.2626C54.9499 69.806 55.6732 70.1319 56.4402 70.1789C57.2472 70.2245 58.041 69.9592 58.6586 69.4377C59.2761 68.9161 59.6704 68.1778 59.7604 67.3745L61.9166 47.8894C61.9542 47.5408 61.9172 47.1882 61.8081 46.855C61.699 46.5218 61.5204 46.2156 61.2839 45.9566C61.0475 45.6977 60.7588 45.492 60.4368 45.3531C60.1149 45.2143 59.7671 45.1454 59.4165 45.1512H54.694C54.3627 45.1611 54.0367 45.2378 53.7357 45.3768C53.4348 45.5158 53.165 45.7142 52.9426 45.9601C52.7202 46.2059 52.5498 46.4942 52.4416 46.8076C52.3334 47.1209 52.2897 47.4529 52.313 47.7836Z" fill="#FF725E"/>
<path d="M61.5727 81.0393C61.2767 81.9275 60.724 82.7081 59.9845 83.2824C59.245 83.8567 58.3518 84.1988 57.4179 84.2657C56.484 84.3325 55.5512 84.121 54.7375 83.6578C53.9237 83.1947 53.2655 82.5007 52.8461 81.6637C52.4266 80.8266 52.2647 79.8839 52.3808 78.9549C52.4969 78.0258 52.8858 77.152 53.4984 76.4438C54.1109 75.7357 54.9196 75.2251 55.8223 74.9764C56.725 74.7278 57.6812 74.7523 58.5699 75.0469C59.1608 75.2428 59.7073 75.5532 60.1781 75.9605C60.649 76.3678 61.0349 76.8639 61.3138 77.4205C61.5927 77.977 61.7591 78.5831 61.8035 79.2041C61.8479 79.825 61.7695 80.4486 61.5727 81.0393Z" fill="#FF725E"/>
</svg>
