<svg width="30" height="31" viewBox="0 0 30 31" fill="none" xmlns="http://www.w3.org/2000/svg">
<rect y="0.5" width="30" height="30" rx="15" fill="#7F714F"/>
<g clip-path="url(#clip0_109_279)">
<path d="M13.5938 20.6562C13.5938 20.8417 13.5388 21.0229 13.4358 21.1771C13.3327 21.3313 13.1863 21.4514 13.015 21.5224C12.8437 21.5933 12.6552 21.6119 12.4734 21.5757C12.2915 21.5396 12.1244 21.4503 11.9933 21.3192C11.8622 21.1881 11.7729 21.021 11.7368 20.8391C11.7006 20.6573 11.7192 20.4688 11.7901 20.2975C11.8611 20.1262 11.9812 19.9798 12.1354 19.8767C12.2896 19.7737 12.4708 19.7188 12.6562 19.7188C12.9049 19.7188 13.1433 19.8175 13.3192 19.9933C13.495 20.1692 13.5938 20.4076 13.5938 20.6562ZM18.75 19.7188C18.5646 19.7188 18.3833 19.7737 18.2292 19.8767C18.075 19.9798 17.9548 20.1262 17.8839 20.2975C17.8129 20.4688 17.7943 20.6573 17.8305 20.8391C17.8667 21.021 17.956 21.1881 18.0871 21.3192C18.2182 21.4503 18.3852 21.5396 18.5671 21.5757C18.749 21.6119 18.9375 21.5933 19.1088 21.5224C19.2801 21.4514 19.4265 21.3313 19.5295 21.1771C19.6325 21.0229 19.6875 20.8417 19.6875 20.6562C19.6875 20.4076 19.5887 20.1692 19.4129 19.9933C19.2371 19.8175 18.9986 19.7188 18.75 19.7188ZM21.5455 12.3441L20.0432 17.7512C19.9606 18.0465 19.7839 18.3069 19.54 18.4928C19.296 18.6787 18.9981 18.78 18.6914 18.7812H12.9C12.5924 18.7811 12.2933 18.6804 12.0483 18.4944C11.8033 18.3084 11.6258 18.0474 11.543 17.7512L9.4875 10.3438H8.4375C8.31318 10.3438 8.19395 10.2944 8.10604 10.2065C8.01814 10.1185 7.96875 9.99932 7.96875 9.875C7.96875 9.75068 8.01814 9.63145 8.10604 9.54354C8.19395 9.45564 8.31318 9.40625 8.4375 9.40625H9.84375C9.94623 9.40623 10.0459 9.4398 10.1275 9.50181C10.2091 9.56382 10.2681 9.65086 10.2955 9.74961L10.851 11.75H21.0938C21.166 11.75 21.2373 11.7667 21.302 11.7988C21.3668 11.8309 21.4232 11.8775 21.467 11.935C21.5107 11.9926 21.5406 12.0594 21.5542 12.1304C21.5678 12.2014 21.5648 12.2745 21.5455 12.3441ZM20.4768 12.6875H11.1117L12.4482 17.5004C12.4757 17.5991 12.5347 17.6862 12.6163 17.7482C12.6979 17.8102 12.7975 17.8438 12.9 17.8438H18.6914C18.7939 17.8438 18.8936 17.8102 18.9751 17.7482C19.0567 17.6862 19.1158 17.5991 19.1432 17.5004L20.4768 12.6875Z" fill="white"/>
</g>
<defs>
<clipPath id="clip0_109_279">
<rect width="15" height="15" fill="white" transform="translate(7.5 8)"/>
</clipPath>
</defs>
</svg>
