<svg width="11" height="18" viewBox="0 0 11 18" fill="none" xmlns="http://www.w3.org/2000/svg">
<path d="M9.79596 9.79596L2.29596 17.296C2.08461 17.5073 1.79797 17.626 1.49908 17.626C1.2002 17.626 0.913552 17.5073 0.702208 17.296C0.490863 17.0846 0.372131 16.798 0.372131 16.4991C0.372131 16.2002 0.490863 15.9136 0.702208 15.7022L7.40627 9.00002L0.704083 2.29596C0.599436 2.19131 0.516425 2.06708 0.45979 1.93035C0.403156 1.79362 0.374006 1.64708 0.374006 1.49908C0.374006 1.35109 0.403156 1.20455 0.45979 1.06782C0.516425 0.931089 0.599436 0.806855 0.704083 0.702208C0.80873 0.597561 0.932964 0.51455 1.06969 0.457916C1.20642 0.401281 1.35296 0.372131 1.50096 0.372131C1.64895 0.372131 1.7955 0.401281 1.93222 0.457916C2.06895 0.51455 2.19319 0.597561 2.29783 0.702208L9.79783 8.20221C9.90259 8.30685 9.98566 8.43114 10.0423 8.56795C10.0989 8.70476 10.128 8.85141 10.1278 8.99947C10.1276 9.14754 10.0982 9.29411 10.0413 9.43079C9.98432 9.56747 9.90096 9.69157 9.79596 9.79596Z" fill="#3D3D3D"/>
</svg>
