<svg width="30" height="30" viewBox="0 0 30 30" fill="none" xmlns="http://www.w3.org/2000/svg">
<path d="M28.125 24.3751H26.25V15.9376L26.5242 16.2118C26.7004 16.3877 26.9393 16.4864 27.1883 16.4862C27.4373 16.486 27.676 16.3868 27.852 16.2106C28.0279 16.0344 28.1266 15.7955 28.1264 15.5465C28.1261 15.2975 28.027 15.0588 27.8508 14.8829L16.3254 3.361C15.9738 3.00963 15.4971 2.81226 15 2.81226C14.5029 2.81226 14.0262 3.00963 13.6746 3.361L2.14922 14.8829C1.97346 15.0588 1.87478 15.2973 1.87489 15.546C1.875 15.7946 1.97389 16.0331 2.1498 16.2088C2.32572 16.3846 2.56425 16.4833 2.81291 16.4832C3.06158 16.4831 3.30002 16.3842 3.47578 16.2083L3.75 15.9376V24.3751H1.875C1.62636 24.3751 1.3879 24.4738 1.21209 24.6496C1.03627 24.8255 0.9375 25.0639 0.9375 25.3126C0.9375 25.5612 1.03627 25.7997 1.21209 25.9755C1.3879 26.1513 1.62636 26.2501 1.875 26.2501H28.125C28.3736 26.2501 28.6121 26.1513 28.7879 25.9755C28.9637 25.7997 29.0625 25.5612 29.0625 25.3126C29.0625 25.0639 28.9637 24.8255 28.7879 24.6496C28.6121 24.4738 28.3736 24.3751 28.125 24.3751ZM5.625 14.0626L15 4.68756L24.375 14.0626V24.3751H18.75V17.8126C18.75 17.5639 18.6512 17.3255 18.4754 17.1496C18.2996 16.9738 18.0611 16.8751 17.8125 16.8751H12.1875C11.9389 16.8751 11.7004 16.9738 11.5246 17.1496C11.3488 17.3255 11.25 17.5639 11.25 17.8126V24.3751H5.625V14.0626ZM16.875 24.3751H13.125V18.7501H16.875V24.3751Z" fill="#3D3D3D"/>
</svg>
