<svg width="31" height="30" viewBox="0 0 31 30" fill="none" xmlns="http://www.w3.org/2000/svg">
<path d="M25.8125 4.6875H5.1875C4.69022 4.6875 4.21331 4.88504 3.86167 5.23667C3.51004 5.58831 3.3125 6.06522 3.3125 6.5625V23.4375C3.3125 23.9348 3.51004 24.4117 3.86167 24.7633C4.21331 25.115 4.69022 25.3125 5.1875 25.3125H25.8125C26.3098 25.3125 26.7867 25.115 27.1383 24.7633C27.49 24.4117 27.6875 23.9348 27.6875 23.4375V6.5625C27.6875 6.06522 27.49 5.58831 27.1383 5.23667C26.7867 4.88504 26.3098 4.6875 25.8125 4.6875ZM25.8125 23.4375H5.1875V6.5625H25.8125V23.4375ZM21.125 10.3125C21.125 11.8043 20.5324 13.2351 19.4775 14.29C18.4226 15.3449 16.9918 15.9375 15.5 15.9375C14.0082 15.9375 12.5774 15.3449 11.5225 14.29C10.4676 13.2351 9.875 11.8043 9.875 10.3125C9.875 10.0639 9.97377 9.8254 10.1496 9.64959C10.3254 9.47377 10.5639 9.375 10.8125 9.375C11.0611 9.375 11.2996 9.47377 11.4754 9.64959C11.6512 9.8254 11.75 10.0639 11.75 10.3125C11.75 11.3071 12.1451 12.2609 12.8483 12.9642C13.5516 13.6674 14.5054 14.0625 15.5 14.0625C16.4946 14.0625 17.4484 13.6674 18.1516 12.9642C18.8549 12.2609 19.25 11.3071 19.25 10.3125C19.25 10.0639 19.3488 9.8254 19.5246 9.64959C19.7004 9.47377 19.9389 9.375 20.1875 9.375C20.4361 9.375 20.6746 9.47377 20.8504 9.64959C21.0262 9.8254 21.125 10.0639 21.125 10.3125Z" fill="#3D3D3D"/>
</svg>
