<svg width="31" height="30" viewBox="0 0 31 30" fill="none" xmlns="http://www.w3.org/2000/svg">
<path d="M25.8125 7.5H7.0625C6.81386 7.5 6.5754 7.40123 6.39959 7.22541C6.22377 7.0496 6.125 6.81114 6.125 6.5625C6.125 6.31386 6.22377 6.0754 6.39959 5.89959C6.5754 5.72377 6.81386 5.625 7.0625 5.625H23C23.2486 5.625 23.4871 5.52623 23.6629 5.35041C23.8387 5.1746 23.9375 4.93614 23.9375 4.6875C23.9375 4.43886 23.8387 4.2004 23.6629 4.02459C23.4871 3.84877 23.2486 3.75 23 3.75H7.0625C6.31658 3.75 5.60121 4.04632 5.07376 4.57376C4.54632 5.10121 4.25 5.81658 4.25 6.5625V21.5625C4.25 22.3084 4.54632 23.0238 5.07376 23.5512C5.60121 24.0787 6.31658 24.375 7.0625 24.375H25.8125C26.3098 24.375 26.7867 24.1775 27.1383 23.8258C27.49 23.4742 27.6875 22.9973 27.6875 22.5V9.375C27.6875 8.87772 27.49 8.40081 27.1383 8.04918C26.7867 7.69754 26.3098 7.5 25.8125 7.5ZM25.8125 22.5H7.0625C6.81386 22.5 6.5754 22.4012 6.39959 22.2254C6.22377 22.0496 6.125 21.8111 6.125 21.5625V9.21445C6.42603 9.32116 6.74312 9.37547 7.0625 9.375H25.8125V22.5ZM20.1875 15.4688C20.1875 15.1906 20.27 14.9187 20.4245 14.6875C20.579 14.4562 20.7986 14.276 21.0556 14.1695C21.3126 14.0631 21.5953 14.0353 21.8681 14.0895C22.1409 14.1438 22.3915 14.2777 22.5881 14.4744C22.7848 14.671 22.9187 14.9216 22.973 15.1944C23.0272 15.4672 22.9994 15.7499 22.893 16.0069C22.7865 16.2639 22.6063 16.4835 22.375 16.638C22.1438 16.7925 21.8719 16.875 21.5938 16.875C21.2208 16.875 20.8631 16.7268 20.5994 16.4631C20.3357 16.1994 20.1875 15.8417 20.1875 15.4688Z" fill="#3D3D3D"/>
</svg>
