<svg width="31" height="30" viewBox="0 0 31 30" fill="none" xmlns="http://www.w3.org/2000/svg">
<path d="M25.8125 7.5H7.0625C6.81386 7.5 6.5754 7.40123 6.39959 7.22541C6.22377 7.0496 6.125 6.81114 6.125 6.5625C6.125 6.31386 6.22377 6.0754 6.39959 5.89959C6.5754 5.72377 6.81386 5.625 7.0625 5.625H23C23.2486 5.625 23.4871 5.52623 23.6629 5.35041C23.8387 5.1746 23.9375 4.93614 23.9375 4.6875C23.9375 4.43886 23.8387 4.2004 23.6629 4.02459C23.4871 3.84877 23.2486 3.75 23 3.75H7.0625C6.31658 3.75 5.60121 4.04632 5.07376 4.57376C4.54632 5.10121 4.25 5.81658 4.25 6.5625V21.5625C4.25 22.3084 4.54632 23.0238 5.07376 23.5512C5.60121 24.0787 6.31658 24.375 7.0625 24.375H25.8125C26.3098 24.375 26.7867 24.1775 27.1383 23.8258C27.49 23.4742 27.6875 22.9973 27.6875 22.5V9.375C27.6875 8.87772 27.49 8.40081 27.1383 8.04918C26.7867 7.69754 26.3098 7.5 25.8125 7.5ZM21.5938 16.875C21.3156 16.875 21.0437 16.7925 20.8125 16.638C20.5812 16.4835 20.401 16.2639 20.2945 16.0069C20.1881 15.7499 20.1603 15.4672 20.2145 15.1944C20.2688 14.9216 20.4027 14.671 20.5994 14.4744C20.796 14.2777 21.0466 14.1438 21.3194 14.0895C21.5922 14.0353 21.8749 14.0631 22.1319 14.1695C22.3889 14.276 22.6085 14.4562 22.763 14.6875C22.9175 14.9187 23 15.1906 23 15.4688C23 15.8417 22.8518 16.1994 22.5881 16.4631C22.3244 16.7268 21.9667 16.875 21.5938 16.875Z" fill="#7F714F"/>
</svg>
