<svg width="30" height="30" viewBox="0 0 30 30" fill="none" xmlns="http://www.w3.org/2000/svg">
<path d="M27.0609 24.8438C25.2762 21.7582 22.5258 19.5457 19.316 18.4969C20.9037 17.5517 22.1372 16.1115 22.8272 14.3974C23.5172 12.6833 23.6254 10.7902 23.1352 9.00864C22.6451 7.2271 21.5837 5.65571 20.114 4.53579C18.6444 3.41586 16.8477 2.80933 15 2.80933C13.1523 2.80933 11.3556 3.41586 9.88596 4.53579C8.41631 5.65571 7.35491 7.2271 6.86477 9.00864C6.37463 10.7902 6.48284 12.6833 7.17279 14.3974C7.86275 16.1115 9.09629 17.5517 10.684 18.4969C7.47422 19.5445 4.72382 21.757 2.93906 24.8438C2.87361 24.9505 2.8302 25.0692 2.81138 25.193C2.79257 25.3168 2.79873 25.4431 2.82952 25.5644C2.8603 25.6858 2.91508 25.7997 2.99061 25.8995C3.06615 25.9994 3.16092 26.0831 3.26932 26.1457C3.37773 26.2083 3.49758 26.2486 3.6218 26.2641C3.74603 26.2797 3.8721 26.2702 3.9926 26.2362C4.1131 26.2023 4.22557 26.1445 4.32338 26.0664C4.42119 25.9882 4.50236 25.8913 4.56211 25.7813C6.76992 21.9656 10.6723 19.6875 15 19.6875C19.3277 19.6875 23.2301 21.9656 25.4379 25.7813C25.4976 25.8913 25.5788 25.9882 25.6766 26.0664C25.7744 26.1445 25.8869 26.2023 26.0074 26.2362C26.1279 26.2702 26.254 26.2797 26.3782 26.2641C26.5024 26.2486 26.6223 26.2083 26.7307 26.1457C26.8391 26.0831 26.9338 25.9994 27.0094 25.8995C27.0849 25.7997 27.1397 25.6858 27.1705 25.5644C27.2013 25.4431 27.2074 25.3168 27.1886 25.193C27.1698 25.0692 27.1264 24.9505 27.0609 24.8438ZM8.4375 11.25C8.4375 9.95207 8.82238 8.68328 9.54348 7.60408C10.2646 6.52489 11.2895 5.68375 12.4886 5.18705C13.6878 4.69035 15.0073 4.5604 16.2803 4.81361C17.5533 5.06683 18.7226 5.69184 19.6404 6.60963C20.5582 7.52741 21.1832 8.69673 21.4364 9.96973C21.6896 11.2427 21.5597 12.5622 21.063 13.7614C20.5663 14.9605 19.7251 15.9854 18.6459 16.7065C17.5667 17.4276 16.2979 17.8125 15 17.8125C13.2601 17.8107 11.592 17.1187 10.3617 15.8883C9.13136 14.658 8.43936 12.9899 8.4375 11.25Z" fill="#3D3D3D"/>
</svg>
