<svg width="19" height="21" viewBox="0 0 19 21" fill="none" xmlns="http://www.w3.org/2000/svg">
<path d="M18.0938 3.6875H14.1875V2.90625C14.1875 2.28465 13.9406 1.68851 13.501 1.24897C13.0615 0.80943 12.4654 0.5625 11.8438 0.5625H7.15625C6.53465 0.5625 5.93851 0.80943 5.49897 1.24897C5.05943 1.68851 4.8125 2.28465 4.8125 2.90625V3.6875H0.90625C0.69905 3.6875 0.500336 3.76981 0.353823 3.91632C0.20731 4.06284 0.125 4.26155 0.125 4.46875C0.125 4.67595 0.20731 4.87466 0.353823 5.02118C0.500336 5.16769 0.69905 5.25 0.90625 5.25H1.6875V19.3125C1.6875 19.7269 1.85212 20.1243 2.14515 20.4174C2.43817 20.7104 2.8356 20.875 3.25 20.875H15.75C16.1644 20.875 16.5618 20.7104 16.8549 20.4174C17.1479 20.1243 17.3125 19.7269 17.3125 19.3125V5.25H18.0938C18.301 5.25 18.4997 5.16769 18.6462 5.02118C18.7927 4.87466 18.875 4.67595 18.875 4.46875C18.875 4.26155 18.7927 4.06284 18.6462 3.91632C18.4997 3.76981 18.301 3.6875 18.0938 3.6875ZM6.375 2.90625C6.375 2.69905 6.45731 2.50034 6.60382 2.35382C6.75034 2.20731 6.94905 2.125 7.15625 2.125H11.8438C12.051 2.125 12.2497 2.20731 12.3962 2.35382C12.5427 2.50034 12.625 2.69905 12.625 2.90625V3.6875H6.375V2.90625ZM15.75 19.3125H3.25V5.25H15.75V19.3125ZM7.9375 9.15625V15.4062C7.9375 15.6135 7.85519 15.8122 7.70868 15.9587C7.56216 16.1052 7.36345 16.1875 7.15625 16.1875C6.94905 16.1875 6.75034 16.1052 6.60382 15.9587C6.45731 15.8122 6.375 15.6135 6.375 15.4062V9.15625C6.375 8.94905 6.45731 8.75034 6.60382 8.60382C6.75034 8.45731 6.94905 8.375 7.15625 8.375C7.36345 8.375 7.56216 8.45731 7.70868 8.60382C7.85519 8.75034 7.9375 8.94905 7.9375 9.15625ZM12.625 9.15625V15.4062C12.625 15.6135 12.5427 15.8122 12.3962 15.9587C12.2497 16.1052 12.051 16.1875 11.8438 16.1875C11.6365 16.1875 11.4378 16.1052 11.2913 15.9587C11.1448 15.8122 11.0625 15.6135 11.0625 15.4062V9.15625C11.0625 8.94905 11.1448 8.75034 11.2913 8.60382C11.4378 8.45731 11.6365 8.375 11.8438 8.375C12.051 8.375 12.2497 8.45731 12.3962 8.60382C12.5427 8.75034 12.625 8.94905 12.625 9.15625Z" fill="#3D3D3D"/>
</svg>
